{"glyphs":{"0":{"ha":844,"x_min":63,"x_max":782,"o":"m 422 -14 q 225 51 306 -14 q 103 228 144 115 q 63 486 63 342 q 103 745 63 632 q 225 922 144 858 q 422 986 306 986 q 619 922 539 986 q 740 745 699 858 q 782 486 782 632 q 740 228 782 342 q 619 51 699 115 q 422 -14 539 -14 m 422 126 q 534 168 488 126 q 606 290 581 210 q 632 486 632 371 q 606 683 632 603 q 534 806 581 764 q 422 847 488 847 q 310 806 357 847 q 238 683 263 764 q 213 486 213 603 q 238 290 213 371 q 310 168 263 210 q 422 126 357 126 z "},"1":{"ha":532,"x_min":29,"x_max":401,"o":"m 325 0 q 272 20 293 0 q 251 71 251 40 l 251 815 l 269 790 l 140 700 q 100 686 124 686 q 51 708 72 686 q 29 758 29 729 q 65 818 29 794 l 276 958 q 303 969 289 967 q 331 972 318 972 q 382 952 363 972 q 401 901 401 932 l 401 71 q 380 20 401 40 q 325 0 358 0 z "},"2":{"ha":783,"x_min":78,"x_max":708,"o":"m 643 129 q 690 110 671 129 q 708 64 708 92 q 690 18 708 36 q 643 0 671 0 l 156 0 q 107 18 125 0 q 89 67 89 36 q 108 117 89 94 l 418 451 q 510 578 478 515 q 543 688 543 640 q 497 811 543 764 q 376 858 451 858 q 312 844 344 858 q 251 805 279 829 q 201 749 222 781 q 174 724 188 729 q 147 718 160 718 q 99 737 121 718 q 78 781 78 756 q 90 818 78 800 q 122 856 103 836 q 197 923 153 893 q 289 969 240 953 q 385 986 338 986 q 544 950 476 986 q 648 849 611 914 q 685 694 685 783 q 640 528 685 619 q 514 350 594 438 l 299 115 l 283 129 l 643 129 z "},"3":{"ha":740,"x_min":60,"x_max":672,"o":"m 144 178 q 168 174 156 178 q 196 160 181 171 q 256 123 221 138 q 338 108 292 108 q 433 133 389 108 q 506 201 478 157 q 533 307 533 246 q 507 409 533 369 q 439 469 481 449 q 351 489 397 489 q 307 484 325 489 q 272 474 289 479 q 236 469 256 469 q 194 488 210 469 q 179 533 179 507 q 186 563 179 550 q 206 590 193 575 l 463 865 l 493 838 l 125 838 q 78 856 97 838 q 60 903 60 875 q 78 947 60 929 q 125 965 97 965 l 564 965 q 617 944 600 965 q 635 896 635 924 q 627 867 635 881 q 608 840 619 853 l 350 563 l 315 600 q 353 611 326 606 q 396 617 379 617 q 538 576 475 617 q 637 469 601 536 q 672 317 672 401 q 626 141 672 215 q 499 26 581 67 q 313 -14 418 -14 q 208 1 260 -14 q 118 43 156 15 q 86 73 94 57 q 78 104 78 89 q 97 154 78 131 q 144 178 115 178 z "},"4":{"ha":789,"x_min":15,"x_max":751,"o":"m 531 0 q 482 20 501 0 q 463 71 463 40 l 463 778 l 488 769 l 188 386 l 181 404 l 686 404 q 733 385 714 404 q 751 339 751 367 q 733 294 751 313 q 686 276 714 276 l 85 276 q 38 297 60 276 q 15 344 15 317 q 33 392 15 371 l 475 944 q 500 965 485 958 q 532 972 515 972 q 582 952 563 972 q 601 901 601 932 l 601 71 q 581 20 601 40 q 531 0 560 0 z "},"5":{"ha":786,"x_min":90,"x_max":704,"o":"m 332 -10 q 220 7 278 -10 q 122 57 163 24 q 99 89 107 69 q 90 126 90 108 q 108 165 90 146 q 156 183 125 183 q 207 161 178 183 q 266 131 235 143 q 331 118 297 118 q 456 144 403 118 q 537 219 508 171 q 565 331 565 267 q 539 433 565 390 q 467 499 513 475 q 367 522 422 522 q 286 508 321 522 q 224 478 251 493 q 172 464 196 464 q 118 480 136 464 q 95 519 100 496 q 93 561 90 542 l 142 910 q 165 949 146 933 q 211 965 183 965 l 618 965 q 665 947 646 965 q 683 900 683 928 q 665 854 683 872 q 618 836 646 836 l 246 836 l 261 849 l 217 550 l 196 592 q 238 619 208 606 q 306 641 268 632 q 383 650 344 650 q 548 609 475 650 q 663 496 621 568 q 704 332 704 424 q 658 152 704 229 q 529 33 613 75 q 332 -10 446 -10 z "},"6":{"ha":761,"x_min":74,"x_max":714,"o":"m 397 -14 q 259 17 319 -14 q 158 100 199 47 q 95 219 117 153 q 74 354 74 285 q 86 478 74 408 q 128 624 99 549 q 205 769 157 700 q 324 895 253 839 q 494 981 396 951 q 521 985 508 985 q 570 970 549 985 q 592 918 592 956 q 575 874 592 893 q 531 847 558 856 q 431 797 481 831 q 338 718 381 764 q 265 616 294 672 q 221 499 235 560 l 186 493 q 240 555 207 525 q 317 605 272 585 q 418 625 361 625 q 528 600 475 625 q 623 531 581 575 q 690 428 665 486 q 714 304 714 369 q 672 145 714 218 q 558 29 629 72 q 397 -14 486 -14 m 396 115 q 488 140 447 115 q 551 207 528 164 q 575 304 575 250 q 553 401 575 358 q 491 471 531 444 q 399 497 451 497 q 303 471 344 497 q 238 401 261 444 q 214 303 214 357 q 238 209 214 253 q 302 140 261 165 q 396 115 343 115 z "},"7":{"ha":746,"x_min":78,"x_max":710,"o":"m 268 -6 q 217 13 239 -6 q 196 61 196 32 q 203 93 196 76 l 553 867 l 568 836 l 143 836 q 97 855 115 836 q 78 901 78 874 q 97 946 78 928 q 143 964 115 964 l 636 964 q 688 945 667 964 q 710 897 710 926 q 703 865 710 881 l 332 39 q 306 6 324 18 q 268 -6 288 -6 z "},"8":{"ha":757,"x_min":63,"x_max":694,"o":"m 526 492 l 522 517 q 613 459 574 496 q 673 376 651 422 q 694 281 694 331 q 652 138 694 203 q 538 35 610 74 q 379 -3 467 -3 q 219 35 290 -3 q 105 138 147 74 q 63 281 63 203 q 89 390 63 343 q 156 469 115 438 q 238 522 196 501 l 228 492 q 160 534 193 507 q 107 603 128 561 q 86 699 86 644 q 125 837 86 775 q 231 935 164 899 q 379 972 297 972 q 526 935 461 972 q 631 837 592 899 q 669 699 669 775 q 647 599 669 640 q 592 532 625 558 q 526 492 558 506 m 225 696 q 246 619 225 653 q 301 567 267 586 q 379 547 336 547 q 456 567 421 547 q 510 619 490 586 q 531 696 531 653 q 488 803 531 761 q 379 844 444 844 q 268 803 311 844 q 225 696 225 761 m 379 125 q 505 170 454 125 q 556 282 556 215 q 532 364 556 328 q 468 421 508 400 q 379 442 428 442 q 290 421 331 442 q 226 364 250 400 q 203 282 203 328 q 253 170 203 215 q 379 125 303 125 z "},"9":{"ha":785,"x_min":74,"x_max":714,"o":"m 390 989 q 528 958 468 989 q 630 876 589 928 q 692 758 671 824 q 714 621 714 692 q 701 497 714 567 q 660 350 689 426 q 583 203 631 274 q 463 76 535 132 q 293 -11 392 19 q 267 -14 279 -14 q 217 1 239 -14 q 196 51 196 17 q 213 96 196 78 q 257 122 229 114 q 390 199 325 147 q 503 323 456 251 q 567 476 550 394 l 601 482 q 549 422 581 453 q 472 372 517 392 q 369 351 428 351 q 213 392 279 351 q 110 506 146 433 q 74 671 74 578 q 116 829 74 757 q 230 945 158 901 q 390 989 301 989 m 392 861 q 300 836 340 861 q 236 768 260 811 q 213 671 213 725 q 233 573 213 617 q 294 504 254 529 q 389 479 335 479 q 485 505 443 479 q 550 575 526 531 q 574 672 574 619 q 550 767 574 725 q 486 835 526 810 q 392 861 446 861 z "},"A":{"ha":892,"x_min":22,"x_max":868,"o":"m 460 792 l 147 42 q 122 7 139 19 q 85 -6 106 -6 q 39 12 54 -6 q 22 56 24 29 q 26 78 22 65 l 379 931 q 408 967 389 954 q 449 978 426 979 q 488 965 469 978 q 514 931 506 953 l 863 90 q 868 63 868 76 q 848 13 868 32 q 803 -6 828 -6 q 765 8 782 -6 q 739 42 747 21 l 424 788 l 460 792 m 203 239 l 265 372 l 658 372 l 682 239 l 203 239 z "},"Á":{"ha":892,"x_min":22,"x_max":868,"o":"m 460 792 l 147 42 q 122 7 139 19 q 85 -6 106 -6 q 39 12 54 -6 q 22 56 24 29 q 26 78 22 65 l 379 931 q 408 967 389 954 q 449 978 426 979 q 488 965 469 978 q 514 931 506 953 l 863 90 q 868 63 868 76 q 848 13 868 32 q 803 -6 828 -6 q 765 8 782 -6 q 739 42 747 21 l 424 788 l 460 792 m 203 239 l 265 372 l 658 372 l 682 239 l 203 239 m 451 1029 q 416 1041 429 1029 q 403 1071 403 1053 q 408 1088 403 1079 q 421 1104 413 1096 l 542 1206 q 569 1224 554 1217 q 600 1232 585 1232 q 643 1216 622 1232 q 664 1172 664 1200 q 653 1137 664 1154 q 621 1108 642 1119 l 482 1038 q 467 1031 475 1032 q 451 1029 458 1029 z "},"Ă":{"ha":892,"x_min":22,"x_max":868,"o":"m 460 792 l 147 42 q 122 7 139 19 q 85 -6 106 -6 q 39 12 54 -6 q 22 56 24 29 q 26 78 22 65 l 379 931 q 408 967 389 954 q 449 978 426 979 q 488 965 469 978 q 514 931 506 953 l 863 90 q 868 63 868 76 q 848 13 868 32 q 803 -6 828 -6 q 765 8 782 -6 q 739 42 747 21 l 424 788 l 460 792 m 203 239 l 265 372 l 658 372 l 682 239 l 203 239 m 449 1061 q 318 1096 374 1061 q 239 1193 263 1131 q 240 1241 228 1224 q 275 1258 251 1258 q 314 1247 300 1258 q 344 1215 328 1236 q 385 1176 360 1190 q 449 1163 411 1163 q 553 1215 522 1163 q 584 1247 569 1236 q 622 1258 599 1258 q 659 1242 647 1258 q 660 1196 671 1225 q 581 1096 636 1131 q 449 1061 525 1061 z "},"Ắ":{"ha":892,"x_min":22,"x_max":868,"o":"m 460 792 l 147 42 q 122 7 139 19 q 85 -6 106 -6 q 39 12 54 -6 q 22 56 24 29 q 26 78 22 65 l 379 931 q 408 967 389 954 q 449 978 426 979 q 488 965 469 978 q 514 931 506 953 l 863 90 q 868 63 868 76 q 848 13 868 32 q 803 -6 828 -6 q 765 8 782 -6 q 739 42 747 21 l 424 788 l 460 792 m 203 239 l 265 372 l 658 372 l 682 239 l 203 239 m 449 1061 q 318 1096 374 1061 q 239 1193 263 1131 q 240 1241 228 1224 q 275 1258 251 1258 q 314 1247 300 1258 q 344 1215 328 1236 q 385 1176 360 1190 q 449 1163 411 1163 q 553 1215 522 1163 q 584 1247 569 1236 q 622 1258 599 1258 q 659 1242 647 1258 q 660 1196 671 1225 q 581 1096 636 1131 q 449 1061 525 1061 m 451 1293 q 416 1305 429 1293 q 403 1335 403 1317 q 408 1351 403 1343 q 421 1368 413 1360 l 542 1469 q 569 1488 554 1481 q 600 1496 585 1496 q 643 1480 622 1496 q 664 1436 664 1464 q 653 1401 664 1418 q 621 1372 642 1383 l 482 1301 q 467 1294 475 1296 q 451 1293 458 1293 z "},"Ặ":{"ha":892,"x_min":22,"x_max":868,"o":"m 460 792 l 147 42 q 122 7 139 19 q 85 -6 106 -6 q 39 12 54 -6 q 22 56 24 29 q 26 78 22 65 l 379 931 q 408 967 389 954 q 449 978 426 979 q 488 965 469 978 q 514 931 506 953 l 863 90 q 868 63 868 76 q 848 13 868 32 q 803 -6 828 -6 q 765 8 782 -6 q 739 42 747 21 l 424 788 l 460 792 m 203 239 l 265 372 l 658 372 l 682 239 l 203 239 m 447 -200 q 389 -185 407 -200 q 371 -136 371 -171 l 371 -114 q 390 -63 371 -78 q 447 -49 410 -49 q 508 -63 490 -49 q 526 -114 526 -78 l 526 -136 q 508 -186 526 -172 q 447 -200 489 -200 m 449 1061 q 318 1096 374 1061 q 239 1193 263 1131 q 240 1241 228 1224 q 275 1258 251 1258 q 314 1247 300 1258 q 344 1215 328 1236 q 385 1176 360 1190 q 449 1163 411 1163 q 553 1215 522 1163 q 584 1247 569 1236 q 622 1258 599 1258 q 659 1242 647 1258 q 660 1196 671 1225 q 581 1096 636 1131 q 449 1061 525 1061 z "},"Ằ":{"ha":892,"x_min":22,"x_max":868,"o":"m 460 792 l 147 42 q 122 7 139 19 q 85 -6 106 -6 q 39 12 54 -6 q 22 56 24 29 q 26 78 22 65 l 379 931 q 408 967 389 954 q 449 978 426 979 q 488 965 469 978 q 514 931 506 953 l 863 90 q 868 63 868 76 q 848 13 868 32 q 803 -6 828 -6 q 765 8 782 -6 q 739 42 747 21 l 424 788 l 460 792 m 203 239 l 265 372 l 658 372 l 682 239 l 203 239 m 449 1061 q 318 1096 374 1061 q 239 1193 263 1131 q 240 1241 228 1224 q 275 1258 251 1258 q 314 1247 300 1258 q 344 1215 328 1236 q 385 1176 360 1190 q 449 1163 411 1163 q 553 1215 522 1163 q 584 1247 569 1236 q 622 1258 599 1258 q 659 1242 647 1258 q 660 1196 671 1225 q 581 1096 636 1131 q 449 1061 525 1061 m 446 1297 q 431 1299 439 1297 q 415 1306 424 1301 l 278 1376 q 233 1440 233 1400 q 254 1484 233 1468 q 297 1500 275 1500 q 329 1492 314 1500 q 356 1474 344 1485 l 476 1372 q 490 1356 486 1364 q 494 1339 494 1347 q 481 1309 494 1321 q 446 1297 468 1297 z "},"Ẳ":{"ha":892,"x_min":22,"x_max":868,"o":"m 460 792 l 147 42 q 122 7 139 19 q 85 -6 106 -6 q 39 12 54 -6 q 22 56 24 29 q 26 78 22 65 l 379 931 q 408 967 389 954 q 449 978 426 979 q 488 965 469 978 q 514 931 506 953 l 863 90 q 868 63 868 76 q 848 13 868 32 q 803 -6 828 -6 q 765 8 782 -6 q 739 42 747 21 l 424 788 l 460 792 m 203 239 l 265 372 l 658 372 l 682 239 l 203 239 m 449 1061 q 318 1096 374 1061 q 239 1193 263 1131 q 240 1241 228 1224 q 275 1258 251 1258 q 314 1247 300 1258 q 344 1215 328 1236 q 385 1176 360 1190 q 449 1163 411 1163 q 553 1215 522 1163 q 584 1247 569 1236 q 622 1258 599 1258 q 659 1242 647 1258 q 660 1196 671 1225 q 581 1096 636 1131 q 449 1061 525 1061 m 322 1542 q 369 1571 344 1560 q 431 1582 394 1582 q 513 1564 483 1582 q 553 1519 542 1546 q 564 1468 564 1492 q 556 1427 564 1444 q 531 1390 547 1410 q 510 1365 518 1376 q 503 1342 503 1354 q 488 1321 501 1328 q 454 1314 475 1314 q 431 1321 443 1314 q 419 1343 419 1328 q 425 1369 419 1356 q 442 1397 431 1383 q 465 1429 454 1414 q 476 1458 476 1444 q 462 1487 476 1476 q 428 1497 447 1497 q 395 1490 410 1497 q 368 1472 381 1482 q 344 1465 358 1465 q 314 1479 331 1464 q 305 1513 300 1496 q 322 1542 310 1531 z "},"Ẵ":{"ha":892,"x_min":22,"x_max":868,"o":"m 460 792 l 147 42 q 122 7 139 19 q 85 -6 106 -6 q 39 12 54 -6 q 22 56 24 29 q 26 78 22 65 l 379 931 q 408 967 389 954 q 449 978 426 979 q 488 965 469 978 q 514 931 506 953 l 863 90 q 868 63 868 76 q 848 13 868 32 q 803 -6 828 -6 q 765 8 782 -6 q 739 42 747 21 l 424 788 l 460 792 m 203 239 l 265 372 l 658 372 l 682 239 l 203 239 m 449 1061 q 318 1096 374 1061 q 239 1193 263 1131 q 240 1241 228 1224 q 275 1258 251 1258 q 314 1247 300 1258 q 344 1215 328 1236 q 385 1176 360 1190 q 449 1163 411 1163 q 553 1215 522 1163 q 584 1247 569 1236 q 622 1258 599 1258 q 659 1242 647 1258 q 660 1196 671 1225 q 581 1096 636 1131 q 449 1061 525 1061 m 264 1303 q 219 1326 238 1303 q 203 1389 201 1349 q 243 1467 206 1433 q 346 1501 281 1501 q 427 1480 389 1501 q 499 1438 465 1458 q 557 1417 532 1417 q 583 1427 574 1417 q 590 1454 593 1438 q 598 1496 583 1481 q 633 1511 613 1511 q 679 1488 661 1511 q 696 1428 697 1465 q 680 1375 694 1401 q 638 1330 665 1349 q 569 1311 611 1311 q 483 1333 525 1311 q 404 1375 440 1354 q 343 1396 368 1396 q 317 1386 328 1396 q 307 1358 306 1376 q 299 1318 314 1333 q 264 1303 285 1303 z "},"Ǎ":{"ha":892,"x_min":22,"x_max":868,"o":"m 460 792 l 147 42 q 122 7 139 19 q 85 -6 106 -6 q 39 12 54 -6 q 22 56 24 29 q 26 78 22 65 l 379 931 q 408 967 389 954 q 449 978 426 979 q 488 965 469 978 q 514 931 506 953 l 863 90 q 868 63 868 76 q 848 13 868 32 q 803 -6 828 -6 q 765 8 782 -6 q 739 42 747 21 l 424 788 l 460 792 m 203 239 l 265 372 l 658 372 l 682 239 l 203 239 m 428 1132 l 547 1215 q 581 1233 567 1228 q 607 1239 594 1239 q 633 1230 624 1239 q 643 1210 643 1221 q 640 1194 643 1201 q 625 1174 636 1186 l 532 1069 q 500 1043 517 1051 q 460 1035 483 1035 l 440 1035 q 400 1043 417 1035 q 368 1069 383 1051 l 274 1174 q 260 1193 264 1186 q 257 1208 257 1200 q 267 1229 257 1219 q 293 1239 278 1239 q 353 1215 317 1239 l 472 1133 l 428 1132 z "},"Â":{"ha":892,"x_min":22,"x_max":868,"o":"m 460 792 l 147 42 q 122 7 139 19 q 85 -6 106 -6 q 39 12 54 -6 q 22 56 24 29 q 26 78 22 65 l 379 931 q 408 967 389 954 q 449 978 426 979 q 488 965 469 978 q 514 931 506 953 l 863 90 q 868 63 868 76 q 848 13 868 32 q 803 -6 828 -6 q 765 8 782 -6 q 739 42 747 21 l 424 788 l 460 792 m 203 239 l 265 372 l 658 372 l 682 239 l 203 239 m 468 1142 l 350 1064 q 316 1045 331 1053 q 290 1038 301 1038 q 264 1047 275 1038 q 253 1068 253 1057 q 257 1085 253 1078 q 271 1103 261 1092 l 365 1208 q 397 1234 381 1225 q 436 1243 413 1243 l 457 1243 q 497 1234 481 1243 q 529 1208 513 1225 l 622 1104 q 637 1085 633 1092 q 640 1068 640 1078 q 630 1047 640 1057 q 604 1038 619 1038 q 578 1045 592 1038 q 544 1064 564 1053 l 425 1140 l 468 1142 z "},"Ấ":{"ha":892,"x_min":22,"x_max":876,"o":"m 460 792 l 147 42 q 122 7 139 19 q 85 -6 106 -6 q 39 12 54 -6 q 22 56 24 29 q 26 78 22 65 l 379 931 q 408 967 389 954 q 449 978 426 979 q 488 965 469 978 q 514 931 506 953 l 863 90 q 868 63 868 76 q 848 13 868 32 q 803 -6 828 -6 q 765 8 782 -6 q 739 42 747 21 l 424 788 l 460 792 m 203 239 l 265 372 l 658 372 l 682 239 l 203 239 m 468 1142 l 350 1064 q 316 1045 331 1053 q 290 1038 301 1038 q 264 1047 275 1038 q 253 1068 253 1057 q 257 1085 253 1078 q 271 1103 261 1092 l 365 1208 q 397 1234 381 1225 q 436 1243 413 1243 l 457 1243 q 497 1234 481 1243 q 529 1208 513 1225 l 622 1104 q 637 1085 633 1092 q 640 1068 640 1078 q 630 1047 640 1057 q 604 1038 619 1038 q 578 1045 592 1038 q 544 1064 564 1053 l 425 1140 l 468 1142 m 664 1143 q 628 1155 642 1143 q 615 1185 615 1167 q 620 1201 615 1193 q 633 1218 625 1210 l 754 1319 q 782 1338 767 1331 q 813 1346 797 1346 q 856 1330 835 1346 q 876 1286 876 1314 q 865 1251 876 1268 q 833 1222 854 1233 l 694 1151 q 679 1144 688 1146 q 664 1143 671 1143 z "},"Ậ":{"ha":892,"x_min":22,"x_max":868,"o":"m 460 792 l 147 42 q 122 7 139 19 q 85 -6 106 -6 q 39 12 54 -6 q 22 56 24 29 q 26 78 22 65 l 379 931 q 408 967 389 954 q 449 978 426 979 q 488 965 469 978 q 514 931 506 953 l 863 90 q 868 63 868 76 q 848 13 868 32 q 803 -6 828 -6 q 765 8 782 -6 q 739 42 747 21 l 424 788 l 460 792 m 203 239 l 265 372 l 658 372 l 682 239 l 203 239 m 447 -200 q 389 -185 407 -200 q 371 -136 371 -171 l 371 -114 q 390 -63 371 -78 q 447 -49 410 -49 q 508 -63 490 -49 q 526 -114 526 -78 l 526 -136 q 508 -186 526 -172 q 447 -200 489 -200 m 468 1142 l 350 1064 q 316 1045 331 1053 q 290 1038 301 1038 q 264 1047 275 1038 q 253 1068 253 1057 q 257 1085 253 1078 q 271 1103 261 1092 l 365 1208 q 397 1234 381 1225 q 436 1243 413 1243 l 457 1243 q 497 1234 481 1243 q 529 1208 513 1225 l 622 1104 q 637 1085 633 1092 q 640 1068 640 1078 q 630 1047 640 1057 q 604 1038 619 1038 q 578 1045 592 1038 q 544 1064 564 1053 l 425 1140 l 468 1142 z "},"Ầ":{"ha":892,"x_min":22,"x_max":868,"o":"m 460 792 l 147 42 q 122 7 139 19 q 85 -6 106 -6 q 39 12 54 -6 q 22 56 24 29 q 26 78 22 65 l 379 931 q 408 967 389 954 q 449 978 426 979 q 488 965 469 978 q 514 931 506 953 l 863 90 q 868 63 868 76 q 848 13 868 32 q 803 -6 828 -6 q 765 8 782 -6 q 739 42 747 21 l 424 788 l 460 792 m 203 239 l 265 372 l 658 372 l 682 239 l 203 239 m 468 1142 l 350 1064 q 316 1045 331 1053 q 290 1038 301 1038 q 264 1047 275 1038 q 253 1068 253 1057 q 257 1085 253 1078 q 271 1103 261 1092 l 365 1208 q 397 1234 381 1225 q 436 1243 413 1243 l 457 1243 q 497 1234 481 1243 q 529 1208 513 1225 l 622 1104 q 637 1085 633 1092 q 640 1068 640 1078 q 630 1047 640 1057 q 604 1038 619 1038 q 578 1045 592 1038 q 544 1064 564 1053 l 425 1140 l 468 1142 m 638 1218 q 623 1220 631 1218 q 607 1226 615 1222 l 469 1297 q 425 1361 425 1321 q 446 1405 425 1389 q 489 1421 467 1421 q 521 1413 506 1421 q 547 1394 536 1406 l 668 1293 q 682 1276 678 1285 q 686 1260 686 1268 q 673 1230 686 1242 q 638 1218 660 1218 z "},"Ẩ":{"ha":892,"x_min":22,"x_max":868,"o":"m 460 792 l 147 42 q 122 7 139 19 q 85 -6 106 -6 q 39 12 54 -6 q 22 56 24 29 q 26 78 22 65 l 379 931 q 408 967 389 954 q 449 978 426 979 q 488 965 469 978 q 514 931 506 953 l 863 90 q 868 63 868 76 q 848 13 868 32 q 803 -6 828 -6 q 765 8 782 -6 q 739 42 747 21 l 424 788 l 460 792 m 203 239 l 265 372 l 658 372 l 682 239 l 203 239 m 468 1142 l 350 1064 q 316 1045 331 1053 q 290 1038 301 1038 q 264 1047 275 1038 q 253 1068 253 1057 q 257 1085 253 1078 q 271 1103 261 1092 l 365 1208 q 397 1234 381 1225 q 436 1243 413 1243 l 457 1243 q 497 1234 481 1243 q 529 1208 513 1225 l 622 1104 q 637 1085 633 1092 q 640 1068 640 1078 q 630 1047 640 1057 q 604 1038 619 1038 q 578 1045 592 1038 q 544 1064 564 1053 l 425 1140 l 468 1142 m 557 1357 q 604 1386 579 1375 q 665 1397 629 1397 q 747 1379 718 1397 q 788 1334 776 1361 q 799 1283 799 1307 q 790 1242 799 1260 q 765 1206 782 1225 q 745 1181 753 1192 q 738 1157 738 1169 q 723 1136 736 1143 q 689 1129 710 1129 q 666 1136 678 1129 q 654 1158 654 1143 q 660 1185 654 1171 q 676 1213 665 1199 q 700 1244 689 1229 q 711 1274 711 1260 q 697 1302 711 1292 q 663 1313 682 1313 q 630 1305 644 1313 q 603 1288 615 1297 q 579 1280 593 1281 q 549 1294 565 1279 q 540 1328 535 1311 q 557 1357 544 1346 z "},"Ẫ":{"ha":892,"x_min":22,"x_max":868,"o":"m 460 792 l 147 42 q 122 7 139 19 q 85 -6 106 -6 q 39 12 54 -6 q 22 56 24 29 q 26 78 22 65 l 379 931 q 408 967 389 954 q 449 978 426 979 q 488 965 469 978 q 514 931 506 953 l 863 90 q 868 63 868 76 q 848 13 868 32 q 803 -6 828 -6 q 765 8 782 -6 q 739 42 747 21 l 424 788 l 460 792 m 203 239 l 265 372 l 658 372 l 682 239 l 203 239 m 468 1128 l 350 1050 q 316 1031 331 1039 q 290 1024 301 1024 q 264 1033 275 1024 q 253 1054 253 1043 q 257 1071 253 1064 q 271 1089 261 1078 l 365 1194 q 397 1220 381 1211 q 436 1229 413 1229 l 457 1229 q 497 1220 481 1229 q 529 1194 513 1211 l 622 1090 q 637 1071 633 1078 q 640 1054 640 1064 q 630 1033 640 1043 q 604 1024 619 1024 q 578 1031 592 1024 q 544 1050 564 1039 l 425 1126 l 468 1128 m 264 1235 q 219 1258 238 1235 q 203 1321 201 1281 q 243 1399 206 1365 q 346 1433 281 1433 q 427 1412 389 1433 q 499 1369 465 1390 q 557 1349 532 1349 q 583 1359 574 1349 q 590 1386 593 1369 q 598 1428 583 1413 q 633 1443 613 1443 q 679 1420 661 1443 q 696 1360 697 1397 q 680 1307 694 1333 q 638 1262 665 1281 q 569 1243 611 1243 q 483 1265 525 1243 q 404 1307 440 1286 q 343 1328 368 1328 q 317 1318 328 1328 q 307 1290 306 1308 q 299 1250 314 1265 q 264 1235 285 1235 z "},"Ȁ":{"ha":892,"x_min":22,"x_max":868,"o":"m 460 792 l 147 42 q 122 7 139 19 q 85 -6 106 -6 q 39 12 54 -6 q 22 56 24 29 q 26 78 22 65 l 379 931 q 408 967 389 954 q 449 978 426 979 q 488 965 469 978 q 514 931 506 953 l 863 90 q 868 63 868 76 q 848 13 868 32 q 803 -6 828 -6 q 765 8 782 -6 q 739 42 747 21 l 424 788 l 460 792 m 203 239 l 265 372 l 658 372 l 682 239 l 203 239 m 333 1046 q 319 1049 326 1046 q 303 1054 311 1051 l 165 1126 q 121 1190 121 1150 q 142 1233 121 1217 q 185 1249 163 1249 q 217 1241 201 1249 q 243 1224 232 1233 l 364 1121 q 378 1105 374 1113 q 382 1088 382 1097 q 369 1058 382 1069 q 333 1046 356 1046 m 603 1056 q 587 1058 594 1056 q 571 1064 579 1060 l 433 1135 q 390 1199 390 1158 q 410 1242 390 1226 q 453 1258 431 1258 q 485 1251 469 1258 q 511 1232 500 1243 l 632 1131 q 646 1114 642 1122 q 650 1097 650 1106 q 638 1067 650 1079 q 603 1056 625 1056 z "},"Ä":{"ha":892,"x_min":22,"x_max":868,"o":"m 460 792 l 147 42 q 122 7 139 19 q 85 -6 106 -6 q 39 12 54 -6 q 22 56 24 29 q 26 78 22 65 l 379 931 q 408 967 389 954 q 449 978 426 979 q 488 965 469 978 q 514 931 506 953 l 863 90 q 868 63 868 76 q 848 13 868 32 q 803 -6 828 -6 q 765 8 782 -6 q 739 42 747 21 l 424 788 l 460 792 m 203 239 l 265 372 l 658 372 l 682 239 l 203 239 m 579 1063 q 523 1078 542 1063 q 504 1128 504 1093 l 504 1149 q 524 1199 504 1185 q 579 1214 543 1214 q 638 1199 619 1214 q 657 1149 657 1183 l 657 1128 q 638 1077 657 1092 q 579 1063 618 1063 m 315 1063 q 259 1078 278 1063 q 240 1128 240 1093 l 240 1149 q 260 1199 240 1185 q 317 1214 279 1214 q 374 1199 356 1214 q 393 1149 393 1183 l 393 1128 q 374 1077 393 1092 q 315 1063 354 1063 z "},"Ạ":{"ha":892,"x_min":22,"x_max":868,"o":"m 460 792 l 147 42 q 122 7 139 19 q 85 -6 106 -6 q 39 12 54 -6 q 22 56 24 29 q 26 78 22 65 l 379 931 q 408 967 389 954 q 449 978 426 979 q 488 965 469 978 q 514 931 506 953 l 863 90 q 868 63 868 76 q 848 13 868 32 q 803 -6 828 -6 q 765 8 782 -6 q 739 42 747 21 l 424 788 l 460 792 m 203 239 l 265 372 l 658 372 l 682 239 l 203 239 m 447 -200 q 389 -185 407 -200 q 371 -136 371 -171 l 371 -114 q 390 -63 371 -78 q 447 -49 410 -49 q 508 -63 490 -49 q 526 -114 526 -78 l 526 -136 q 508 -186 526 -172 q 447 -200 489 -200 z "},"À":{"ha":892,"x_min":22,"x_max":868,"o":"m 460 792 l 147 42 q 122 7 139 19 q 85 -6 106 -6 q 39 12 54 -6 q 22 56 24 29 q 26 78 22 65 l 379 931 q 408 967 389 954 q 449 978 426 979 q 488 965 469 978 q 514 931 506 953 l 863 90 q 868 63 868 76 q 848 13 868 32 q 803 -6 828 -6 q 765 8 782 -6 q 739 42 747 21 l 424 788 l 460 792 m 203 239 l 265 372 l 658 372 l 682 239 l 203 239 m 446 1033 q 431 1035 439 1033 q 415 1042 424 1038 l 278 1113 q 233 1176 233 1136 q 254 1220 233 1204 q 297 1236 275 1236 q 329 1228 314 1236 q 356 1210 344 1221 l 476 1108 q 490 1092 486 1100 q 494 1075 494 1083 q 481 1045 494 1057 q 446 1033 468 1033 z "},"Ả":{"ha":892,"x_min":22,"x_max":868,"o":"m 460 792 l 147 42 q 122 7 139 19 q 85 -6 106 -6 q 39 12 54 -6 q 22 56 24 29 q 26 78 22 65 l 379 931 q 408 967 389 954 q 449 978 426 979 q 488 965 469 978 q 514 931 506 953 l 863 90 q 868 63 868 76 q 848 13 868 32 q 803 -6 828 -6 q 765 8 782 -6 q 739 42 747 21 l 424 788 l 460 792 m 203 239 l 265 372 l 658 372 l 682 239 l 203 239 m 322 1278 q 369 1307 344 1296 q 431 1318 394 1318 q 513 1300 483 1318 q 553 1255 542 1282 q 564 1204 564 1228 q 556 1163 564 1181 q 531 1126 547 1146 q 510 1101 518 1113 q 503 1078 503 1090 q 488 1057 501 1064 q 454 1050 475 1050 q 431 1057 443 1050 q 419 1079 419 1064 q 425 1106 419 1092 q 442 1133 431 1119 q 465 1165 454 1150 q 476 1194 476 1181 q 462 1223 476 1213 q 428 1233 447 1233 q 395 1226 410 1233 q 368 1208 381 1218 q 344 1201 358 1201 q 314 1215 331 1200 q 305 1249 300 1232 q 322 1278 310 1267 z "},"Ȃ":{"ha":892,"x_min":22,"x_max":868,"o":"m 460 792 l 147 42 q 122 7 139 19 q 85 -6 106 -6 q 39 12 54 -6 q 22 56 24 29 q 26 78 22 65 l 379 931 q 408 967 389 954 q 449 978 426 979 q 488 965 469 978 q 514 931 506 953 l 863 90 q 868 63 868 76 q 848 13 868 32 q 803 -6 828 -6 q 765 8 782 -6 q 739 42 747 21 l 424 788 l 460 792 m 203 239 l 265 372 l 658 372 l 682 239 l 203 239 m 449 1260 q 542 1244 500 1260 q 613 1198 583 1228 q 654 1128 642 1168 q 654 1083 667 1100 q 618 1065 642 1065 q 578 1077 593 1065 q 549 1110 564 1089 q 510 1146 535 1133 q 449 1158 485 1158 q 386 1146 411 1158 q 349 1110 361 1133 q 319 1077 335 1089 q 278 1065 304 1065 q 243 1082 256 1065 q 240 1126 231 1099 q 283 1198 254 1168 q 355 1244 313 1228 q 449 1260 397 1260 z "},"Ā":{"ha":892,"x_min":22,"x_max":868,"o":"m 460 792 l 147 42 q 122 7 139 19 q 85 -6 106 -6 q 39 12 54 -6 q 22 56 24 29 q 26 78 22 65 l 379 931 q 408 967 389 954 q 449 978 426 979 q 488 965 469 978 q 514 931 506 953 l 863 90 q 868 63 868 76 q 848 13 868 32 q 803 -6 828 -6 q 765 8 782 -6 q 739 42 747 21 l 424 788 l 460 792 m 203 239 l 265 372 l 658 372 l 682 239 l 203 239 m 279 1058 q 219 1113 219 1058 q 279 1165 219 1165 l 621 1165 q 681 1113 681 1165 q 621 1058 681 1058 l 279 1058 z "},"Ą":{"ha":896,"x_min":24,"x_max":893,"o":"m 747 -279 q 638 -244 685 -279 q 592 -136 592 -208 q 613 -51 592 -86 q 668 9 635 -15 q 740 49 701 33 q 813 74 779 64 l 811 29 l 751 14 l 424 788 l 460 792 l 147 42 q 122 7 139 19 q 85 -6 106 -6 q 37 10 50 -6 q 24 53 24 25 q 28 82 24 68 l 379 931 q 408 967 389 954 q 449 978 426 979 q 488 965 469 978 q 514 931 506 953 l 875 64 q 879 43 879 53 q 871 17 879 29 q 843 -1 863 4 q 749 -46 788 -17 q 710 -111 710 -75 q 726 -156 710 -142 q 760 -169 742 -169 q 793 -153 781 -169 q 817 -134 803 -139 q 842 -129 832 -129 q 878 -144 863 -129 q 893 -185 893 -158 q 872 -228 893 -206 q 818 -265 851 -250 q 747 -279 785 -279 m 222 239 l 265 372 l 658 372 l 682 239 l 222 239 z "},"Å":{"ha":896,"x_min":22,"x_max":868,"o":"m 449 894 q 374 915 408 894 q 317 968 339 935 q 296 1040 296 1001 q 317 1115 296 1082 q 374 1169 339 1149 q 449 1189 408 1189 q 524 1169 489 1189 q 580 1115 558 1149 q 601 1040 601 1082 q 580 968 601 1001 q 524 915 558 935 q 449 894 489 894 m 449 979 q 497 997 478 979 q 515 1040 515 1014 q 495 1089 515 1072 q 449 1106 475 1106 q 400 1088 419 1106 q 381 1040 381 1071 q 400 997 381 1014 q 449 979 419 979 m 460 792 l 147 42 q 122 7 139 19 q 85 -6 106 -6 q 39 12 54 -6 q 22 56 24 29 q 26 78 22 65 l 379 931 q 408 967 389 954 q 449 978 426 979 q 488 965 469 978 q 514 931 506 953 l 863 90 q 868 63 868 76 q 848 13 868 32 q 803 -6 828 -6 q 765 8 782 -6 q 739 42 747 21 l 424 788 l 460 792 m 203 239 l 265 372 l 658 372 l 682 239 l 203 239 z "},"Ǻ":{"ha":896,"x_min":22,"x_max":868,"o":"m 449 894 q 374 915 408 894 q 317 968 339 935 q 296 1040 296 1001 q 317 1115 296 1082 q 374 1169 339 1149 q 449 1189 408 1189 q 524 1169 489 1189 q 580 1115 558 1149 q 601 1040 601 1082 q 580 968 601 1001 q 524 915 558 935 q 449 894 489 894 m 449 979 q 497 997 478 979 q 515 1040 515 1014 q 495 1089 515 1072 q 449 1106 475 1106 q 400 1088 419 1106 q 381 1040 381 1071 q 400 997 381 1014 q 449 979 419 979 m 460 792 l 147 42 q 122 7 139 19 q 85 -6 106 -6 q 39 12 54 -6 q 22 56 24 29 q 26 78 22 65 l 379 931 q 408 967 389 954 q 449 978 426 979 q 488 965 469 978 q 514 931 506 953 l 863 90 q 868 63 868 76 q 848 13 868 32 q 803 -6 828 -6 q 765 8 782 -6 q 739 42 747 21 l 424 788 l 460 792 m 203 239 l 265 372 l 658 372 l 682 239 l 203 239 m 451 1240 q 416 1252 429 1240 q 403 1282 403 1264 q 408 1299 403 1290 q 421 1315 413 1307 l 542 1417 q 569 1435 554 1428 q 600 1443 585 1443 q 643 1427 622 1443 q 664 1383 664 1411 q 653 1348 664 1365 q 621 1319 642 1331 l 482 1249 q 467 1242 475 1243 q 451 1240 458 1240 z "},"Ã":{"ha":892,"x_min":22,"x_max":868,"o":"m 460 792 l 147 42 q 122 7 139 19 q 85 -6 106 -6 q 39 12 54 -6 q 22 56 24 29 q 26 78 22 65 l 379 931 q 408 967 389 954 q 449 978 426 979 q 488 965 469 978 q 514 931 506 953 l 863 90 q 868 63 868 76 q 848 13 868 32 q 803 -6 828 -6 q 765 8 782 -6 q 739 42 747 21 l 424 788 l 460 792 m 203 239 l 265 372 l 658 372 l 682 239 l 203 239 m 264 1039 q 219 1062 238 1039 q 203 1125 201 1085 q 243 1203 206 1169 q 346 1238 281 1238 q 427 1216 389 1238 q 499 1174 465 1194 q 557 1153 532 1153 q 583 1163 574 1153 q 590 1190 593 1174 q 598 1232 583 1217 q 633 1247 613 1247 q 679 1224 661 1247 q 696 1164 697 1201 q 680 1111 694 1138 q 638 1066 665 1085 q 569 1047 611 1047 q 483 1069 525 1047 q 404 1111 440 1090 q 343 1132 368 1132 q 317 1122 328 1132 q 307 1094 306 1113 q 299 1054 314 1069 q 264 1039 285 1039 z "},"Æ":{"ha":1244,"x_min":7,"x_max":1185,"o":"m 264 342 l 614 342 l 589 297 l 589 758 l 615 744 l 124 22 q 72 -6 103 -6 q 30 11 50 -6 q 7 57 10 28 q 22 104 7 81 l 607 942 q 638 966 621 960 q 672 972 654 972 l 1115 972 q 1165 953 1144 972 q 1185 904 1185 933 q 1165 857 1185 875 q 1115 839 1144 839 l 719 839 l 733 851 l 733 536 l 721 560 l 1053 560 q 1102 540 1082 560 q 1122 492 1122 521 q 1102 444 1122 463 q 1053 426 1082 426 l 719 426 l 733 444 l 733 103 l 721 133 l 1115 133 q 1165 113 1144 133 q 1185 67 1185 93 q 1165 19 1185 38 q 1115 0 1144 0 l 660 0 q 609 20 629 0 q 589 71 589 40 l 589 229 l 621 211 l 189 211 l 264 342 z "},"Ǽ":{"ha":1244,"x_min":7,"x_max":1185,"o":"m 264 342 l 614 342 l 589 297 l 589 758 l 615 744 l 124 22 q 72 -6 103 -6 q 30 11 50 -6 q 7 57 10 28 q 22 104 7 81 l 607 942 q 638 966 621 960 q 672 972 654 972 l 1115 972 q 1165 953 1144 972 q 1185 904 1185 933 q 1165 857 1185 875 q 1115 839 1144 839 l 719 839 l 733 851 l 733 536 l 721 560 l 1053 560 q 1102 540 1082 560 q 1122 492 1122 521 q 1102 444 1122 463 q 1053 426 1082 426 l 719 426 l 733 444 l 733 103 l 721 133 l 1115 133 q 1165 113 1144 133 q 1185 67 1185 93 q 1165 19 1185 38 q 1115 0 1144 0 l 660 0 q 609 20 629 0 q 589 71 589 40 l 589 229 l 621 211 l 189 211 l 264 342 m 843 1029 q 808 1041 821 1029 q 794 1071 794 1053 q 799 1088 794 1079 q 813 1104 804 1096 l 933 1206 q 961 1224 946 1217 q 992 1232 976 1232 q 1035 1216 1014 1232 q 1056 1172 1056 1200 q 1044 1137 1056 1154 q 1013 1108 1033 1119 l 874 1038 q 858 1031 867 1032 q 843 1029 850 1029 z "},"B":{"ha":908,"x_min":113,"x_max":849,"o":"m 539 972 q 733 910 667 972 q 799 728 799 847 q 769 615 799 665 q 681 535 739 564 q 538 504 624 506 l 540 556 q 640 543 586 556 q 740 500 693 531 q 818 417 788 469 q 849 288 849 365 q 821 147 849 203 q 747 58 793 90 q 647 13 701 26 q 539 0 592 0 l 183 0 q 133 20 154 0 q 113 71 113 40 l 113 901 q 133 952 113 932 q 183 972 154 972 l 539 972 m 519 836 l 246 836 l 263 858 l 263 560 l 247 575 l 522 575 q 610 609 572 576 q 649 706 649 642 q 614 803 649 771 q 519 836 579 836 m 529 439 l 253 439 l 263 449 l 263 121 l 251 133 l 538 133 q 654 172 610 133 q 699 288 699 210 q 672 385 699 353 q 607 428 646 417 q 529 439 568 439 z "},"C":{"ha":883,"x_min":60,"x_max":846,"o":"m 803 917 q 838 869 833 901 q 822 811 843 838 q 783 788 807 790 q 735 797 758 785 q 650 831 694 818 q 556 843 606 843 q 413 817 476 843 q 304 744 350 792 q 234 631 258 696 q 210 486 210 565 q 236 331 210 399 q 309 217 263 264 q 419 148 356 171 q 556 125 482 125 q 648 136 603 125 q 733 169 693 147 q 783 178 758 182 q 822 154 807 175 q 840 95 846 125 q 804 50 833 65 q 728 17 769 31 q 643 -6 686 3 q 556 -14 600 -14 q 367 19 456 -14 q 208 117 278 53 q 99 274 139 181 q 60 486 60 367 q 97 684 60 593 q 201 841 133 775 q 358 944 268 907 q 556 981 449 981 q 685 964 622 981 q 803 917 749 947 z "},"Ć":{"ha":883,"x_min":60,"x_max":846,"o":"m 803 917 q 838 869 833 901 q 822 811 843 838 q 783 788 807 790 q 735 797 758 785 q 650 831 694 818 q 556 843 606 843 q 413 817 476 843 q 304 744 350 792 q 234 631 258 696 q 210 486 210 565 q 236 331 210 399 q 309 217 263 264 q 419 148 356 171 q 556 125 482 125 q 648 136 603 125 q 733 169 693 147 q 783 178 758 182 q 822 154 807 175 q 840 95 846 125 q 804 50 833 65 q 728 17 769 31 q 643 -6 686 3 q 556 -14 600 -14 q 367 19 456 -14 q 208 117 278 53 q 99 274 139 181 q 60 486 60 367 q 97 684 60 593 q 201 841 133 775 q 358 944 268 907 q 556 981 449 981 q 685 964 622 981 q 803 917 749 947 m 521 1029 q 485 1041 499 1029 q 472 1071 472 1053 q 477 1088 472 1079 q 490 1104 482 1096 l 611 1206 q 639 1224 624 1217 q 669 1232 654 1232 q 713 1216 692 1232 q 733 1172 733 1200 q 722 1137 733 1154 q 690 1108 711 1119 l 551 1038 q 536 1031 544 1032 q 521 1029 528 1029 z "},"Č":{"ha":883,"x_min":60,"x_max":846,"o":"m 803 917 q 838 869 833 901 q 822 811 843 838 q 783 788 807 790 q 735 797 758 785 q 650 831 694 818 q 556 843 606 843 q 413 817 476 843 q 304 744 350 792 q 234 631 258 696 q 210 486 210 565 q 236 331 210 399 q 309 217 263 264 q 419 148 356 171 q 556 125 482 125 q 648 136 603 125 q 733 169 693 147 q 783 178 758 182 q 822 154 807 175 q 840 95 846 125 q 804 50 833 65 q 728 17 769 31 q 643 -6 686 3 q 556 -14 600 -14 q 367 19 456 -14 q 208 117 278 53 q 99 274 139 181 q 60 486 60 367 q 97 684 60 593 q 201 841 133 775 q 358 944 268 907 q 556 981 449 981 q 685 964 622 981 q 803 917 749 947 m 497 1132 l 617 1215 q 650 1233 636 1228 q 676 1239 664 1239 q 703 1230 693 1239 q 713 1210 713 1221 q 709 1194 713 1201 q 694 1174 706 1186 l 601 1069 q 569 1043 586 1051 q 529 1035 553 1035 l 510 1035 q 469 1043 486 1035 q 438 1069 453 1051 l 343 1174 q 330 1193 333 1186 q 326 1208 326 1200 q 337 1229 326 1219 q 363 1239 347 1239 q 422 1215 386 1239 l 542 1133 l 497 1132 z "},"Ç":{"ha":883,"x_min":60,"x_max":846,"o":"m 803 917 q 838 869 833 901 q 822 811 843 838 q 783 788 807 790 q 735 797 758 785 q 650 831 694 818 q 556 843 606 843 q 413 817 476 843 q 304 744 350 792 q 234 631 258 696 q 210 486 210 565 q 236 331 210 399 q 309 217 263 264 q 419 148 356 171 q 556 125 482 125 q 648 136 603 125 q 733 169 693 147 q 783 178 758 182 q 822 154 807 175 q 840 95 846 125 q 804 50 833 65 q 728 17 769 31 q 643 -6 686 3 q 556 -14 600 -14 q 367 19 456 -14 q 208 117 278 53 q 99 274 139 181 q 60 486 60 367 q 97 684 60 593 q 201 841 133 775 q 358 944 268 907 q 556 981 449 981 q 685 964 622 981 q 803 917 749 947 m 461 -206 q 430 -199 449 -206 q 396 -178 411 -192 q 381 -149 381 -165 q 396 -112 381 -131 l 508 35 l 592 35 l 511 -168 q 461 -206 496 -206 z "},"Ḉ":{"ha":883,"x_min":60,"x_max":846,"o":"m 803 917 q 838 869 833 901 q 822 811 843 838 q 783 788 807 790 q 735 797 758 785 q 650 831 694 818 q 556 843 606 843 q 413 817 476 843 q 304 744 350 792 q 234 631 258 696 q 210 486 210 565 q 236 331 210 399 q 309 217 263 264 q 419 148 356 171 q 556 125 482 125 q 648 136 603 125 q 733 169 693 147 q 783 178 758 182 q 822 154 807 175 q 840 95 846 125 q 804 50 833 65 q 728 17 769 31 q 643 -6 686 3 q 556 -14 600 -14 q 367 19 456 -14 q 208 117 278 53 q 99 274 139 181 q 60 486 60 367 q 97 684 60 593 q 201 841 133 775 q 358 944 268 907 q 556 981 449 981 q 685 964 622 981 q 803 917 749 947 m 461 -206 q 430 -199 449 -206 q 396 -178 411 -192 q 381 -149 381 -165 q 396 -112 381 -131 l 508 35 l 592 35 l 511 -168 q 461 -206 496 -206 m 521 1029 q 485 1041 499 1029 q 472 1071 472 1053 q 477 1088 472 1079 q 490 1104 482 1096 l 611 1206 q 639 1224 624 1217 q 669 1232 654 1232 q 713 1216 692 1232 q 733 1172 733 1200 q 722 1137 733 1154 q 690 1108 711 1119 l 551 1038 q 536 1031 544 1032 q 521 1029 528 1029 z "},"Ĉ":{"ha":883,"x_min":60,"x_max":846,"o":"m 803 917 q 838 869 833 901 q 822 811 843 838 q 783 788 807 790 q 735 797 758 785 q 650 831 694 818 q 556 843 606 843 q 413 817 476 843 q 304 744 350 792 q 234 631 258 696 q 210 486 210 565 q 236 331 210 399 q 309 217 263 264 q 419 148 356 171 q 556 125 482 125 q 648 136 603 125 q 733 169 693 147 q 783 178 758 182 q 822 154 807 175 q 840 95 846 125 q 804 50 833 65 q 728 17 769 31 q 643 -6 686 3 q 556 -14 600 -14 q 367 19 456 -14 q 208 117 278 53 q 99 274 139 181 q 60 486 60 367 q 97 684 60 593 q 201 841 133 775 q 358 944 268 907 q 556 981 449 981 q 685 964 622 981 q 803 917 749 947 m 538 1142 l 419 1064 q 385 1045 400 1053 q 360 1038 371 1038 q 333 1047 344 1038 q 322 1068 322 1057 q 326 1085 322 1078 q 340 1103 331 1092 l 435 1208 q 466 1234 450 1225 q 506 1243 482 1243 l 526 1243 q 566 1234 550 1243 q 599 1208 582 1225 l 692 1104 q 706 1085 703 1092 q 710 1068 710 1078 q 699 1047 710 1057 q 674 1038 689 1038 q 647 1045 661 1038 q 614 1064 633 1053 l 494 1140 l 538 1142 z "},"Ċ":{"ha":883,"x_min":60,"x_max":846,"o":"m 803 917 q 838 869 833 901 q 822 811 843 838 q 783 788 807 790 q 735 797 758 785 q 650 831 694 818 q 556 843 606 843 q 413 817 476 843 q 304 744 350 792 q 234 631 258 696 q 210 486 210 565 q 236 331 210 399 q 309 217 263 264 q 419 148 356 171 q 556 125 482 125 q 648 136 603 125 q 733 169 693 147 q 783 178 758 182 q 822 154 807 175 q 840 95 846 125 q 804 50 833 65 q 728 17 769 31 q 643 -6 686 3 q 556 -14 600 -14 q 367 19 456 -14 q 208 117 278 53 q 99 274 139 181 q 60 486 60 367 q 97 684 60 593 q 201 841 133 775 q 358 944 268 907 q 556 981 449 981 q 685 964 622 981 q 803 917 749 947 m 510 1042 q 451 1057 469 1042 q 433 1107 433 1072 l 433 1129 q 453 1179 433 1165 q 511 1193 472 1193 q 571 1179 553 1193 q 589 1129 589 1165 l 589 1107 q 570 1056 589 1071 q 510 1042 551 1042 z "},"D":{"ha":994,"x_min":113,"x_max":936,"o":"m 522 972 q 701 934 624 972 q 831 828 779 896 q 910 673 883 761 q 936 486 936 585 q 889 241 936 351 q 750 65 842 131 q 522 0 658 0 l 183 0 q 133 20 154 0 q 113 71 113 40 l 113 901 q 133 952 113 932 q 183 972 154 972 l 522 972 m 508 133 q 668 182 607 133 q 758 310 729 231 q 786 486 786 390 q 770 620 786 557 q 720 733 754 683 q 634 810 686 782 q 508 839 582 839 l 246 839 l 258 851 l 258 119 l 250 133 l 508 133 z "},"Ǆ":{"ha":1893,"x_min":113,"x_max":1839,"o":"m 522 972 q 701 934 624 972 q 831 828 779 896 q 910 673 883 761 q 936 486 936 585 q 889 241 936 351 q 750 65 842 131 q 522 0 658 0 l 183 0 q 133 20 154 0 q 113 71 113 40 l 113 901 q 133 952 113 932 q 183 972 154 972 l 522 972 m 508 133 q 668 182 607 133 q 758 310 729 231 q 786 486 786 390 q 770 620 786 557 q 720 733 754 683 q 634 810 686 782 q 508 839 582 839 l 246 839 l 258 851 l 258 119 l 250 133 l 508 133 m 1764 972 q 1815 953 1790 972 q 1839 904 1839 935 q 1824 860 1839 882 l 1258 125 l 1246 133 l 1754 133 q 1803 115 1783 133 q 1824 67 1824 97 q 1803 19 1824 39 q 1754 0 1783 0 l 1125 0 q 1073 22 1094 0 q 1051 69 1051 43 q 1068 113 1051 92 l 1633 847 l 1644 839 l 1174 839 q 1124 858 1144 839 q 1104 907 1104 876 q 1124 954 1104 936 q 1174 972 1144 972 l 1764 972 m 1424 1132 l 1543 1215 q 1576 1233 1563 1228 q 1603 1239 1590 1239 q 1629 1230 1619 1239 q 1639 1210 1639 1221 q 1635 1194 1639 1201 q 1621 1174 1632 1186 l 1528 1069 q 1496 1043 1513 1051 q 1456 1035 1479 1035 l 1436 1035 q 1396 1043 1413 1035 q 1364 1069 1379 1051 l 1269 1174 q 1256 1193 1260 1186 q 1253 1208 1253 1200 q 1263 1229 1253 1219 q 1289 1239 1274 1239 q 1349 1215 1313 1239 l 1468 1133 l 1424 1132 z "},"Ð":{"ha":994,"x_min":4,"x_max":936,"o":"m 522 972 q 701 934 624 972 q 831 828 779 896 q 910 673 883 761 q 936 486 936 585 q 889 241 936 351 q 750 65 842 131 q 522 0 658 0 l 183 0 q 133 20 154 0 q 113 71 113 40 l 113 901 q 133 952 113 932 q 183 972 154 972 l 522 972 m 508 133 q 668 182 607 133 q 758 310 729 231 q 786 486 786 390 q 770 620 786 557 q 720 733 754 683 q 634 810 686 782 q 508 839 582 839 l 246 839 l 258 851 l 258 119 l 250 133 l 508 133 m 75 425 q 24 442 44 425 q 4 490 4 460 q 24 535 4 517 q 75 553 44 553 l 311 553 q 362 535 342 553 q 382 489 382 517 q 362 442 382 460 q 311 425 342 425 l 75 425 z "},"Ď":{"ha":994,"x_min":113,"x_max":936,"o":"m 522 972 q 701 934 624 972 q 831 828 779 896 q 910 673 883 761 q 936 486 936 585 q 889 241 936 351 q 750 65 842 131 q 522 0 658 0 l 183 0 q 133 20 154 0 q 113 71 113 40 l 113 901 q 133 952 113 932 q 183 972 154 972 l 522 972 m 508 133 q 668 182 607 133 q 758 310 729 231 q 786 486 786 390 q 770 620 786 557 q 720 733 754 683 q 634 810 686 782 q 508 839 582 839 l 246 839 l 258 851 l 258 119 l 250 133 l 508 133 m 408 1132 l 528 1215 q 561 1233 547 1228 q 588 1239 575 1239 q 614 1230 604 1239 q 624 1210 624 1221 q 620 1194 624 1201 q 606 1174 617 1186 l 513 1069 q 481 1043 497 1051 q 440 1035 464 1035 l 421 1035 q 381 1043 397 1035 q 349 1069 364 1051 l 254 1174 q 241 1193 244 1186 q 238 1208 238 1200 q 248 1229 238 1219 q 274 1239 258 1239 q 333 1215 297 1239 l 453 1133 l 408 1132 z "},"Ḓ":{"ha":994,"x_min":113,"x_max":936,"o":"m 522 972 q 701 934 624 972 q 831 828 779 896 q 910 673 883 761 q 936 486 936 585 q 889 241 936 351 q 750 65 842 131 q 522 0 658 0 l 183 0 q 133 20 154 0 q 113 71 113 40 l 113 901 q 133 952 113 932 q 183 972 154 972 l 522 972 m 508 133 q 668 182 607 133 q 758 310 729 231 q 786 486 786 390 q 770 620 786 557 q 720 733 754 683 q 634 810 686 782 q 508 839 582 839 l 246 839 l 258 851 l 258 119 l 250 133 l 508 133 m 460 -156 l 349 -249 q 323 -270 333 -262 q 292 -278 313 -278 q 266 -269 276 -278 q 256 -247 256 -260 q 258 -230 256 -237 q 271 -211 261 -222 l 350 -117 q 421 -82 376 -82 l 463 -82 q 500 -89 486 -82 q 526 -117 514 -96 l 601 -211 q 613 -230 610 -222 q 615 -247 615 -237 q 606 -268 615 -258 q 581 -278 596 -278 q 549 -269 558 -278 q 522 -249 539 -261 l 403 -147 l 460 -156 z "},"Đ":{"ha":994,"x_min":4,"x_max":936,"o":"m 522 972 q 701 934 624 972 q 831 828 779 896 q 910 673 883 761 q 936 486 936 585 q 889 241 936 351 q 750 65 842 131 q 522 0 658 0 l 183 0 q 133 20 154 0 q 113 71 113 40 l 113 901 q 133 952 113 932 q 183 972 154 972 l 522 972 m 508 133 q 668 182 607 133 q 758 310 729 231 q 786 486 786 390 q 770 620 786 557 q 720 733 754 683 q 634 810 686 782 q 508 839 582 839 l 246 839 l 258 851 l 258 119 l 250 133 l 508 133 m 75 425 q 24 442 44 425 q 4 490 4 460 q 24 535 4 517 q 75 553 44 553 l 311 553 q 362 535 342 553 q 382 489 382 517 q 362 442 382 460 q 311 425 342 425 l 75 425 z "},"Ḍ":{"ha":994,"x_min":113,"x_max":936,"o":"m 522 972 q 701 934 624 972 q 831 828 779 896 q 910 673 883 761 q 936 486 936 585 q 889 241 936 351 q 750 65 842 131 q 522 0 658 0 l 183 0 q 133 20 154 0 q 113 71 113 40 l 113 901 q 133 952 113 932 q 183 972 154 972 l 522 972 m 508 133 q 668 182 607 133 q 758 310 729 231 q 786 486 786 390 q 770 620 786 557 q 720 733 754 683 q 634 810 686 782 q 508 839 582 839 l 246 839 l 258 851 l 258 119 l 250 133 l 508 133 m 436 -200 q 378 -185 396 -200 q 360 -136 360 -171 l 360 -114 q 379 -63 360 -78 q 436 -49 399 -49 q 497 -63 479 -49 q 515 -114 515 -78 l 515 -136 q 497 -186 515 -172 q 436 -200 478 -200 z "},"Ḏ":{"ha":994,"x_min":113,"x_max":936,"o":"m 522 972 q 701 934 624 972 q 831 828 779 896 q 910 673 883 761 q 936 486 936 585 q 889 241 936 351 q 750 65 842 131 q 522 0 658 0 l 183 0 q 133 20 154 0 q 113 71 113 40 l 113 901 q 133 952 113 932 q 183 972 154 972 l 522 972 m 508 133 q 668 182 607 133 q 758 310 729 231 q 786 486 786 390 q 770 620 786 557 q 720 733 754 683 q 634 810 686 782 q 508 839 582 839 l 246 839 l 258 851 l 258 119 l 250 133 l 508 133 m 289 -199 q 229 -146 229 -199 q 289 -93 229 -93 l 610 -93 q 669 -146 669 -93 q 610 -199 669 -199 l 289 -199 z "},"ǲ":{"ha":1664,"x_min":113,"x_max":1619,"o":"m 522 972 q 701 934 624 972 q 831 828 779 896 q 910 673 883 761 q 936 486 936 585 q 889 241 936 351 q 750 65 842 131 q 522 0 658 0 l 183 0 q 133 20 154 0 q 113 71 113 40 l 113 901 q 133 952 113 932 q 183 972 154 972 l 522 972 m 508 133 q 668 182 607 133 q 758 310 729 231 q 786 486 786 390 q 770 620 786 557 q 720 733 754 683 q 634 810 686 782 q 508 839 582 839 l 246 839 l 258 851 l 258 119 l 250 133 l 508 133 m 1554 128 q 1601 110 1582 128 q 1619 64 1619 92 q 1601 19 1619 38 q 1554 0 1582 0 l 1106 0 q 1058 22 1076 0 q 1042 64 1040 43 q 1047 94 1043 81 q 1064 124 1050 107 l 1435 615 l 1435 599 l 1125 599 q 1078 617 1097 599 q 1060 663 1060 636 q 1078 708 1060 690 q 1125 726 1097 726 l 1553 726 q 1598 706 1579 726 q 1614 657 1617 686 q 1610 633 1614 644 q 1594 606 1607 621 l 1229 119 l 1224 128 l 1554 128 z "},"ǅ":{"ha":1665,"x_min":113,"x_max":1621,"o":"m 522 972 q 701 934 624 972 q 831 828 779 896 q 910 673 883 761 q 936 486 936 585 q 889 241 936 351 q 750 65 842 131 q 522 0 658 0 l 183 0 q 133 20 154 0 q 113 71 113 40 l 113 901 q 133 952 113 932 q 183 972 154 972 l 522 972 m 508 133 q 668 182 607 133 q 758 310 729 231 q 786 486 786 390 q 770 620 786 557 q 720 733 754 683 q 634 810 686 782 q 508 839 582 839 l 246 839 l 258 851 l 258 119 l 250 133 l 508 133 m 1556 128 q 1602 110 1583 128 q 1621 64 1621 92 q 1602 19 1621 38 q 1556 0 1583 0 l 1107 0 q 1060 22 1078 0 q 1043 64 1042 43 q 1048 94 1044 81 q 1065 124 1051 107 l 1436 615 l 1436 599 l 1126 599 q 1080 617 1099 599 q 1061 663 1061 636 q 1080 708 1061 690 q 1126 726 1099 726 l 1554 726 q 1599 706 1581 726 q 1615 657 1618 686 q 1612 633 1615 644 q 1596 606 1608 621 l 1231 119 l 1225 128 l 1556 128 m 1315 819 q 1243 854 1269 819 l 1169 942 q 1154 979 1154 960 q 1167 1003 1154 994 q 1201 1013 1179 1013 q 1254 986 1222 1013 l 1354 903 l 1324 904 l 1418 986 q 1448 1007 1435 1000 q 1482 1014 1461 1014 q 1510 1005 1499 1014 q 1521 982 1521 996 q 1517 964 1521 974 q 1501 942 1513 954 l 1428 854 q 1356 819 1401 819 l 1315 819 z "},"E":{"ha":793,"x_min":113,"x_max":733,"o":"m 183 972 l 664 972 q 713 953 693 972 q 733 904 733 933 q 713 857 733 875 q 664 839 693 839 l 244 839 l 258 863 l 258 551 l 246 565 l 601 565 q 651 546 631 565 q 671 496 671 526 q 651 449 671 467 q 601 431 631 431 l 249 431 l 258 443 l 258 122 l 249 133 l 664 133 q 713 113 693 133 q 733 67 733 93 q 713 19 733 38 q 664 0 693 0 l 183 0 q 133 20 154 0 q 113 71 113 40 l 113 901 q 133 952 113 932 q 183 972 154 972 z "},"É":{"ha":793,"x_min":113,"x_max":733,"o":"m 183 972 l 664 972 q 713 953 693 972 q 733 904 733 933 q 713 857 733 875 q 664 839 693 839 l 244 839 l 258 863 l 258 551 l 246 565 l 601 565 q 651 546 631 565 q 671 496 671 526 q 651 449 671 467 q 601 431 631 431 l 249 431 l 258 443 l 258 122 l 249 133 l 664 133 q 713 113 693 133 q 733 67 733 93 q 713 19 733 38 q 664 0 693 0 l 183 0 q 133 20 154 0 q 113 71 113 40 l 113 901 q 133 952 113 932 q 183 972 154 972 m 433 1029 q 398 1041 411 1029 q 385 1071 385 1053 q 390 1088 385 1079 q 403 1104 394 1096 l 524 1206 q 551 1224 536 1217 q 582 1232 567 1232 q 625 1216 604 1232 q 646 1172 646 1200 q 635 1137 646 1154 q 603 1108 624 1119 l 464 1038 q 449 1031 457 1032 q 433 1029 440 1029 z "},"Ĕ":{"ha":793,"x_min":113,"x_max":733,"o":"m 183 972 l 664 972 q 713 953 693 972 q 733 904 733 933 q 713 857 733 875 q 664 839 693 839 l 244 839 l 258 863 l 258 551 l 246 565 l 601 565 q 651 546 631 565 q 671 496 671 526 q 651 449 671 467 q 601 431 631 431 l 249 431 l 258 443 l 258 122 l 249 133 l 664 133 q 713 113 693 133 q 733 67 733 93 q 713 19 733 38 q 664 0 693 0 l 183 0 q 133 20 154 0 q 113 71 113 40 l 113 901 q 133 952 113 932 q 183 972 154 972 m 431 1061 q 300 1096 356 1061 q 221 1193 244 1131 q 222 1241 210 1224 q 257 1258 233 1258 q 296 1247 282 1258 q 326 1215 310 1236 q 367 1176 342 1190 q 431 1163 393 1163 q 535 1215 504 1163 q 566 1247 551 1236 q 604 1258 581 1258 q 641 1242 629 1258 q 642 1196 653 1225 q 563 1096 618 1131 q 431 1061 507 1061 z "},"Ě":{"ha":793,"x_min":113,"x_max":733,"o":"m 183 972 l 664 972 q 713 953 693 972 q 733 904 733 933 q 713 857 733 875 q 664 839 693 839 l 244 839 l 258 863 l 258 551 l 246 565 l 601 565 q 651 546 631 565 q 671 496 671 526 q 651 449 671 467 q 601 431 631 431 l 249 431 l 258 443 l 258 122 l 249 133 l 664 133 q 713 113 693 133 q 733 67 733 93 q 713 19 733 38 q 664 0 693 0 l 183 0 q 133 20 154 0 q 113 71 113 40 l 113 901 q 133 952 113 932 q 183 972 154 972 m 410 1132 l 529 1215 q 563 1233 549 1228 q 589 1239 576 1239 q 615 1230 606 1239 q 625 1210 625 1221 q 622 1194 625 1201 q 607 1174 618 1186 l 514 1069 q 482 1043 499 1051 q 442 1035 465 1035 l 422 1035 q 382 1043 399 1035 q 350 1069 365 1051 l 256 1174 q 242 1193 246 1186 q 239 1208 239 1200 q 249 1229 239 1219 q 275 1239 260 1239 q 335 1215 299 1239 l 454 1133 l 410 1132 z "},"Ḝ":{"ha":793,"x_min":113,"x_max":733,"o":"m 183 972 l 664 972 q 713 953 693 972 q 733 904 733 933 q 713 857 733 875 q 664 839 693 839 l 244 839 l 258 863 l 258 551 l 246 565 l 601 565 q 651 546 631 565 q 671 496 671 526 q 651 449 671 467 q 601 431 631 431 l 249 431 l 258 443 l 258 122 l 249 133 l 664 133 q 713 113 693 133 q 733 67 733 93 q 713 19 733 38 q 664 0 693 0 l 183 0 q 133 20 154 0 q 113 71 113 40 l 113 901 q 133 952 113 932 q 183 972 154 972 m 328 -206 q 297 -199 315 -206 q 263 -178 278 -192 q 247 -149 247 -165 q 263 -112 247 -131 l 375 35 l 458 35 l 378 -168 q 328 -206 363 -206 m 431 1061 q 300 1096 356 1061 q 221 1193 244 1131 q 222 1241 210 1224 q 257 1258 233 1258 q 296 1247 282 1258 q 326 1215 310 1236 q 367 1176 342 1190 q 431 1163 393 1163 q 535 1215 504 1163 q 566 1247 551 1236 q 604 1258 581 1258 q 641 1242 629 1258 q 642 1196 653 1225 q 563 1096 618 1131 q 431 1061 507 1061 z "},"Ê":{"ha":793,"x_min":113,"x_max":733,"o":"m 183 972 l 664 972 q 713 953 693 972 q 733 904 733 933 q 713 857 733 875 q 664 839 693 839 l 244 839 l 258 863 l 258 551 l 246 565 l 601 565 q 651 546 631 565 q 671 496 671 526 q 651 449 671 467 q 601 431 631 431 l 249 431 l 258 443 l 258 122 l 249 133 l 664 133 q 713 113 693 133 q 733 67 733 93 q 713 19 733 38 q 664 0 693 0 l 183 0 q 133 20 154 0 q 113 71 113 40 l 113 901 q 133 952 113 932 q 183 972 154 972 m 451 1142 l 333 1064 q 299 1045 314 1053 q 274 1038 285 1038 q 247 1047 258 1038 q 236 1068 236 1057 q 240 1085 236 1078 q 254 1103 244 1092 l 349 1208 q 380 1234 364 1225 q 419 1243 396 1243 l 440 1243 q 480 1234 464 1243 q 513 1208 496 1225 l 606 1104 q 620 1085 617 1092 q 624 1068 624 1078 q 613 1047 624 1057 q 588 1038 603 1038 q 561 1045 575 1038 q 528 1064 547 1053 l 408 1140 l 451 1142 z "},"Ế":{"ha":793,"x_min":113,"x_max":878,"o":"m 183 972 l 664 972 q 713 953 693 972 q 733 904 733 933 q 713 857 733 875 q 664 839 693 839 l 244 839 l 258 863 l 258 551 l 246 565 l 601 565 q 651 546 631 565 q 671 496 671 526 q 651 449 671 467 q 601 431 631 431 l 249 431 l 258 443 l 258 122 l 249 133 l 664 133 q 713 113 693 133 q 733 67 733 93 q 713 19 733 38 q 664 0 693 0 l 183 0 q 133 20 154 0 q 113 71 113 40 l 113 901 q 133 952 113 932 q 183 972 154 972 m 451 1142 l 333 1064 q 299 1045 314 1053 q 274 1038 285 1038 q 247 1047 258 1038 q 236 1068 236 1057 q 240 1085 236 1078 q 254 1103 244 1092 l 349 1208 q 380 1234 364 1225 q 419 1243 396 1243 l 440 1243 q 480 1234 464 1243 q 513 1208 496 1225 l 606 1104 q 620 1085 617 1092 q 624 1068 624 1078 q 613 1047 624 1057 q 588 1038 603 1038 q 561 1045 575 1038 q 528 1064 547 1053 l 408 1140 l 451 1142 m 665 1136 q 630 1148 643 1136 q 617 1178 617 1160 q 622 1194 617 1186 q 635 1211 626 1203 l 756 1313 q 783 1331 768 1324 q 814 1339 799 1339 q 857 1323 836 1339 q 878 1279 878 1307 q 867 1244 878 1261 q 835 1215 856 1226 l 696 1144 q 681 1138 689 1139 q 665 1136 672 1136 z "},"Ệ":{"ha":793,"x_min":113,"x_max":733,"o":"m 183 972 l 664 972 q 713 953 693 972 q 733 904 733 933 q 713 857 733 875 q 664 839 693 839 l 244 839 l 258 863 l 258 551 l 246 565 l 601 565 q 651 546 631 565 q 671 496 671 526 q 651 449 671 467 q 601 431 631 431 l 249 431 l 258 443 l 258 122 l 249 133 l 664 133 q 713 113 693 133 q 733 67 733 93 q 713 19 733 38 q 664 0 693 0 l 183 0 q 133 20 154 0 q 113 71 113 40 l 113 901 q 133 952 113 932 q 183 972 154 972 m 408 -200 q 350 -185 368 -200 q 332 -136 332 -171 l 332 -114 q 351 -63 332 -78 q 408 -49 371 -49 q 469 -63 451 -49 q 488 -114 488 -78 l 488 -136 q 469 -186 488 -172 q 408 -200 450 -200 m 451 1142 l 333 1064 q 299 1045 314 1053 q 274 1038 285 1038 q 247 1047 258 1038 q 236 1068 236 1057 q 240 1085 236 1078 q 254 1103 244 1092 l 349 1208 q 380 1234 364 1225 q 419 1243 396 1243 l 440 1243 q 480 1234 464 1243 q 513 1208 496 1225 l 606 1104 q 620 1085 617 1092 q 624 1068 624 1078 q 613 1047 624 1057 q 588 1038 603 1038 q 561 1045 575 1038 q 528 1064 547 1053 l 408 1140 l 451 1142 z "},"Ề":{"ha":793,"x_min":113,"x_max":733,"o":"m 183 972 l 664 972 q 713 953 693 972 q 733 904 733 933 q 713 857 733 875 q 664 839 693 839 l 244 839 l 258 863 l 258 551 l 246 565 l 601 565 q 651 546 631 565 q 671 496 671 526 q 651 449 671 467 q 601 431 631 431 l 249 431 l 258 443 l 258 122 l 249 133 l 664 133 q 713 113 693 133 q 733 67 733 93 q 713 19 733 38 q 664 0 693 0 l 183 0 q 133 20 154 0 q 113 71 113 40 l 113 901 q 133 952 113 932 q 183 972 154 972 m 451 1142 l 333 1064 q 299 1045 314 1053 q 274 1038 285 1038 q 247 1047 258 1038 q 236 1068 236 1057 q 240 1085 236 1078 q 254 1103 244 1092 l 349 1208 q 380 1234 364 1225 q 419 1243 396 1243 l 440 1243 q 480 1234 464 1243 q 513 1208 496 1225 l 606 1104 q 620 1085 617 1092 q 624 1068 624 1078 q 613 1047 624 1057 q 588 1038 603 1038 q 561 1045 575 1038 q 528 1064 547 1053 l 408 1140 l 451 1142 m 622 1222 q 608 1224 615 1222 q 592 1231 600 1226 l 454 1301 q 410 1365 410 1325 q 431 1409 410 1393 q 474 1425 451 1425 q 506 1417 490 1425 q 532 1399 521 1410 l 653 1297 q 667 1281 663 1289 q 671 1264 671 1272 q 658 1234 671 1246 q 622 1222 644 1222 z "},"Ể":{"ha":793,"x_min":113,"x_max":733,"o":"m 183 972 l 664 972 q 713 953 693 972 q 733 904 733 933 q 713 857 733 875 q 664 839 693 839 l 244 839 l 258 863 l 258 551 l 246 565 l 601 565 q 651 546 631 565 q 671 496 671 526 q 651 449 671 467 q 601 431 631 431 l 249 431 l 258 443 l 258 122 l 249 133 l 664 133 q 713 113 693 133 q 733 67 733 93 q 713 19 733 38 q 664 0 693 0 l 183 0 q 133 20 154 0 q 113 71 113 40 l 113 901 q 133 952 113 932 q 183 972 154 972 m 451 1142 l 333 1064 q 299 1045 314 1053 q 274 1038 285 1038 q 247 1047 258 1038 q 236 1068 236 1057 q 240 1085 236 1078 q 254 1103 244 1092 l 349 1208 q 380 1234 364 1225 q 419 1243 396 1243 l 440 1243 q 480 1234 464 1243 q 513 1208 496 1225 l 606 1104 q 620 1085 617 1092 q 624 1068 624 1078 q 613 1047 624 1057 q 588 1038 603 1038 q 561 1045 575 1038 q 528 1064 547 1053 l 408 1140 l 451 1142 m 306 1579 q 353 1608 328 1597 q 414 1619 378 1619 q 496 1601 467 1619 q 536 1556 525 1583 q 547 1506 547 1529 q 539 1465 547 1482 q 514 1428 531 1447 q 494 1403 501 1414 q 486 1379 486 1392 q 472 1358 485 1365 q 438 1351 458 1351 q 415 1358 426 1351 q 403 1381 403 1365 q 408 1407 403 1393 q 425 1435 414 1421 q 449 1467 438 1451 q 460 1496 460 1482 q 445 1524 460 1514 q 411 1535 431 1535 q 378 1527 393 1535 q 351 1510 364 1519 q 328 1502 342 1503 q 297 1517 314 1501 q 288 1551 283 1533 q 306 1579 293 1568 z "},"Ễ":{"ha":793,"x_min":113,"x_max":733,"o":"m 183 972 l 664 972 q 713 953 693 972 q 733 904 733 933 q 713 857 733 875 q 664 839 693 839 l 244 839 l 258 863 l 258 551 l 246 565 l 601 565 q 651 546 631 565 q 671 496 671 526 q 651 449 671 467 q 601 431 631 431 l 249 431 l 258 443 l 258 122 l 249 133 l 664 133 q 713 113 693 133 q 733 67 733 93 q 713 19 733 38 q 664 0 693 0 l 183 0 q 133 20 154 0 q 113 71 113 40 l 113 901 q 133 952 113 932 q 183 972 154 972 m 451 1142 l 333 1064 q 299 1045 314 1053 q 274 1038 285 1038 q 247 1047 258 1038 q 236 1068 236 1057 q 240 1085 236 1078 q 254 1103 244 1092 l 349 1208 q 380 1234 364 1225 q 419 1243 396 1243 l 440 1243 q 480 1234 464 1243 q 513 1208 496 1225 l 606 1104 q 620 1085 617 1092 q 624 1068 624 1078 q 613 1047 624 1057 q 588 1038 603 1038 q 561 1045 575 1038 q 528 1064 547 1053 l 408 1140 l 451 1142 m 246 1247 q 201 1270 219 1247 q 185 1333 183 1293 q 225 1412 188 1378 q 328 1446 263 1446 q 409 1424 371 1446 q 481 1382 447 1403 q 539 1361 514 1361 q 565 1372 556 1361 q 572 1399 575 1382 q 580 1440 565 1425 q 615 1456 594 1456 q 661 1433 643 1456 q 678 1372 679 1410 q 662 1319 676 1346 q 620 1274 647 1293 q 551 1256 593 1256 q 465 1277 507 1256 q 386 1319 422 1299 q 325 1340 350 1340 q 299 1331 310 1340 q 289 1303 288 1321 q 281 1263 296 1278 q 246 1247 267 1247 z "},"Ȅ":{"ha":793,"x_min":103,"x_max":733,"o":"m 183 972 l 664 972 q 713 953 693 972 q 733 904 733 933 q 713 857 733 875 q 664 839 693 839 l 244 839 l 258 863 l 258 551 l 246 565 l 601 565 q 651 546 631 565 q 671 496 671 526 q 651 449 671 467 q 601 431 631 431 l 249 431 l 258 443 l 258 122 l 249 133 l 664 133 q 713 113 693 133 q 733 67 733 93 q 713 19 733 38 q 664 0 693 0 l 183 0 q 133 20 154 0 q 113 71 113 40 l 113 901 q 133 952 113 932 q 183 972 154 972 m 315 1046 q 301 1049 308 1046 q 285 1054 293 1051 l 147 1126 q 103 1190 103 1150 q 124 1233 103 1217 q 167 1249 144 1249 q 199 1241 183 1249 q 225 1224 214 1233 l 346 1121 q 360 1105 356 1113 q 364 1088 364 1097 q 351 1058 364 1069 q 315 1046 338 1046 m 585 1056 q 569 1058 576 1056 q 553 1064 561 1060 l 415 1135 q 372 1199 372 1158 q 392 1242 372 1226 q 435 1258 413 1258 q 467 1251 451 1258 q 493 1232 482 1243 l 614 1131 q 628 1114 624 1122 q 632 1097 632 1106 q 619 1067 632 1079 q 585 1056 607 1056 z "},"Ë":{"ha":793,"x_min":113,"x_max":733,"o":"m 183 972 l 664 972 q 713 953 693 972 q 733 904 733 933 q 713 857 733 875 q 664 839 693 839 l 244 839 l 258 863 l 258 551 l 246 565 l 601 565 q 651 546 631 565 q 671 496 671 526 q 651 449 671 467 q 601 431 631 431 l 249 431 l 258 443 l 258 122 l 249 133 l 664 133 q 713 113 693 133 q 733 67 733 93 q 713 19 733 38 q 664 0 693 0 l 183 0 q 133 20 154 0 q 113 71 113 40 l 113 901 q 133 952 113 932 q 183 972 154 972 m 561 1063 q 505 1078 524 1063 q 486 1128 486 1093 l 486 1149 q 506 1199 486 1185 q 561 1214 525 1214 q 620 1199 601 1214 q 639 1149 639 1183 l 639 1128 q 619 1077 639 1092 q 561 1063 600 1063 m 297 1063 q 241 1078 260 1063 q 222 1128 222 1093 l 222 1149 q 242 1199 222 1185 q 299 1214 261 1214 q 356 1199 338 1214 q 375 1149 375 1183 l 375 1128 q 356 1077 375 1092 q 297 1063 336 1063 z "},"Ė":{"ha":793,"x_min":113,"x_max":733,"o":"m 183 972 l 664 972 q 713 953 693 972 q 733 904 733 933 q 713 857 733 875 q 664 839 693 839 l 244 839 l 258 863 l 258 551 l 246 565 l 601 565 q 651 546 631 565 q 671 496 671 526 q 651 449 671 467 q 601 431 631 431 l 249 431 l 258 443 l 258 122 l 249 133 l 664 133 q 713 113 693 133 q 733 67 733 93 q 713 19 733 38 q 664 0 693 0 l 183 0 q 133 20 154 0 q 113 71 113 40 l 113 901 q 133 952 113 932 q 183 972 154 972 m 429 1042 q 371 1057 389 1042 q 353 1107 353 1072 l 353 1129 q 372 1179 353 1165 q 431 1193 392 1193 q 490 1179 472 1193 q 508 1129 508 1165 l 508 1107 q 490 1056 508 1071 q 429 1042 471 1042 z "},"Ẹ":{"ha":793,"x_min":113,"x_max":733,"o":"m 183 972 l 664 972 q 713 953 693 972 q 733 904 733 933 q 713 857 733 875 q 664 839 693 839 l 244 839 l 258 863 l 258 551 l 246 565 l 601 565 q 651 546 631 565 q 671 496 671 526 q 651 449 671 467 q 601 431 631 431 l 249 431 l 258 443 l 258 122 l 249 133 l 664 133 q 713 113 693 133 q 733 67 733 93 q 713 19 733 38 q 664 0 693 0 l 183 0 q 133 20 154 0 q 113 71 113 40 l 113 901 q 133 952 113 932 q 183 972 154 972 m 408 -200 q 350 -185 368 -200 q 332 -136 332 -171 l 332 -114 q 351 -63 332 -78 q 408 -49 371 -49 q 469 -63 451 -49 q 488 -114 488 -78 l 488 -136 q 469 -186 488 -172 q 408 -200 450 -200 z "},"È":{"ha":793,"x_min":113,"x_max":733,"o":"m 183 972 l 664 972 q 713 953 693 972 q 733 904 733 933 q 713 857 733 875 q 664 839 693 839 l 244 839 l 258 863 l 258 551 l 246 565 l 601 565 q 651 546 631 565 q 671 496 671 526 q 651 449 671 467 q 601 431 631 431 l 249 431 l 258 443 l 258 122 l 249 133 l 664 133 q 713 113 693 133 q 733 67 733 93 q 713 19 733 38 q 664 0 693 0 l 183 0 q 133 20 154 0 q 113 71 113 40 l 113 901 q 133 952 113 932 q 183 972 154 972 m 428 1033 q 413 1035 421 1033 q 397 1042 406 1038 l 260 1113 q 215 1176 215 1136 q 236 1220 215 1204 q 279 1236 257 1236 q 311 1228 296 1236 q 338 1210 326 1221 l 458 1108 q 472 1092 468 1100 q 476 1075 476 1083 q 463 1045 476 1057 q 428 1033 450 1033 z "},"Ẻ":{"ha":793,"x_min":113,"x_max":733,"o":"m 183 972 l 664 972 q 713 953 693 972 q 733 904 733 933 q 713 857 733 875 q 664 839 693 839 l 244 839 l 258 863 l 258 551 l 246 565 l 601 565 q 651 546 631 565 q 671 496 671 526 q 651 449 671 467 q 601 431 631 431 l 249 431 l 258 443 l 258 122 l 249 133 l 664 133 q 713 113 693 133 q 733 67 733 93 q 713 19 733 38 q 664 0 693 0 l 183 0 q 133 20 154 0 q 113 71 113 40 l 113 901 q 133 952 113 932 q 183 972 154 972 m 306 1278 q 353 1307 328 1296 q 414 1318 378 1318 q 496 1300 467 1318 q 536 1255 525 1282 q 547 1204 547 1228 q 539 1163 547 1181 q 514 1126 531 1146 q 494 1101 501 1113 q 486 1078 486 1090 q 472 1057 485 1064 q 438 1050 458 1050 q 415 1057 426 1050 q 403 1079 403 1064 q 408 1106 403 1092 q 425 1133 414 1119 q 449 1165 438 1150 q 460 1194 460 1181 q 445 1223 460 1213 q 411 1233 431 1233 q 378 1226 393 1233 q 351 1208 364 1218 q 328 1201 342 1201 q 297 1215 314 1200 q 288 1249 283 1232 q 306 1278 293 1267 z "},"Ȇ":{"ha":793,"x_min":113,"x_max":733,"o":"m 183 972 l 664 972 q 713 953 693 972 q 733 904 733 933 q 713 857 733 875 q 664 839 693 839 l 244 839 l 258 863 l 258 551 l 246 565 l 601 565 q 651 546 631 565 q 671 496 671 526 q 651 449 671 467 q 601 431 631 431 l 249 431 l 258 443 l 258 122 l 249 133 l 664 133 q 713 113 693 133 q 733 67 733 93 q 713 19 733 38 q 664 0 693 0 l 183 0 q 133 20 154 0 q 113 71 113 40 l 113 901 q 133 952 113 932 q 183 972 154 972 m 431 1260 q 524 1244 482 1260 q 594 1198 565 1228 q 636 1128 624 1168 q 636 1083 649 1100 q 600 1065 624 1065 q 560 1077 575 1065 q 531 1110 546 1089 q 492 1146 517 1133 q 431 1158 467 1158 q 368 1146 393 1158 q 331 1110 343 1133 q 301 1077 317 1089 q 260 1065 286 1065 q 225 1082 238 1065 q 222 1126 213 1099 q 265 1198 236 1168 q 337 1244 294 1228 q 431 1260 379 1260 z "},"Ē":{"ha":793,"x_min":113,"x_max":733,"o":"m 183 972 l 664 972 q 713 953 693 972 q 733 904 733 933 q 713 857 733 875 q 664 839 693 839 l 244 839 l 258 863 l 258 551 l 246 565 l 601 565 q 651 546 631 565 q 671 496 671 526 q 651 449 671 467 q 601 431 631 431 l 249 431 l 258 443 l 258 122 l 249 133 l 664 133 q 713 113 693 133 q 733 67 733 93 q 713 19 733 38 q 664 0 693 0 l 183 0 q 133 20 154 0 q 113 71 113 40 l 113 901 q 133 952 113 932 q 183 972 154 972 m 261 1058 q 201 1113 201 1058 q 261 1165 201 1165 l 603 1165 q 663 1113 663 1165 q 603 1058 663 1058 l 261 1058 z "},"Ḗ":{"ha":793,"x_min":113,"x_max":733,"o":"m 183 972 l 664 972 q 713 953 693 972 q 733 904 733 933 q 713 857 733 875 q 664 839 693 839 l 244 839 l 258 863 l 258 551 l 246 565 l 601 565 q 651 546 631 565 q 671 496 671 526 q 651 449 671 467 q 601 431 631 431 l 249 431 l 258 443 l 258 122 l 249 133 l 664 133 q 713 113 693 133 q 733 67 733 93 q 713 19 733 38 q 664 0 693 0 l 183 0 q 133 20 154 0 q 113 71 113 40 l 113 901 q 133 952 113 932 q 183 972 154 972 m 261 1058 q 201 1113 201 1058 q 261 1165 201 1165 l 603 1165 q 663 1113 663 1165 q 603 1058 663 1058 l 261 1058 m 433 1257 q 398 1269 411 1257 q 385 1299 385 1281 q 390 1315 385 1307 q 403 1332 394 1324 l 524 1433 q 551 1452 536 1444 q 582 1460 567 1460 q 625 1444 604 1460 q 646 1400 646 1428 q 635 1365 646 1382 q 603 1336 624 1347 l 464 1265 q 449 1258 457 1260 q 433 1257 440 1257 z "},"Ḕ":{"ha":793,"x_min":113,"x_max":733,"o":"m 183 972 l 664 972 q 713 953 693 972 q 733 904 733 933 q 713 857 733 875 q 664 839 693 839 l 244 839 l 258 863 l 258 551 l 246 565 l 601 565 q 651 546 631 565 q 671 496 671 526 q 651 449 671 467 q 601 431 631 431 l 249 431 l 258 443 l 258 122 l 249 133 l 664 133 q 713 113 693 133 q 733 67 733 93 q 713 19 733 38 q 664 0 693 0 l 183 0 q 133 20 154 0 q 113 71 113 40 l 113 901 q 133 952 113 932 q 183 972 154 972 m 261 1058 q 201 1113 201 1058 q 261 1165 201 1165 l 603 1165 q 663 1113 663 1165 q 603 1058 663 1058 l 261 1058 m 428 1261 q 413 1263 421 1261 q 397 1269 406 1265 l 260 1340 q 215 1404 215 1364 q 236 1448 215 1432 q 279 1464 257 1464 q 311 1456 296 1464 q 338 1438 326 1449 l 458 1336 q 472 1319 468 1328 q 476 1303 476 1311 q 463 1273 476 1285 q 428 1261 450 1261 z "},"Ę":{"ha":797,"x_min":113,"x_max":733,"o":"m 568 -279 q 459 -244 506 -279 q 413 -136 413 -208 q 434 -60 413 -93 q 491 -2 456 -26 q 567 38 526 22 q 643 64 607 54 l 638 0 l 183 0 q 133 20 154 0 q 113 71 113 40 l 113 901 q 133 952 113 932 q 183 972 154 972 l 664 972 q 713 953 693 972 q 733 904 733 933 q 713 860 733 879 q 664 840 693 840 l 244 840 l 258 864 l 258 551 l 246 565 l 601 565 q 651 546 631 565 q 671 496 671 526 q 651 451 671 472 q 601 431 631 431 l 249 431 l 258 443 l 258 122 l 249 133 l 664 133 q 713 115 693 133 q 733 67 733 97 q 714 22 733 38 q 664 0 694 7 q 596 -24 626 -8 q 547 -62 565 -40 q 529 -111 529 -85 q 544 -155 529 -140 q 581 -169 560 -169 q 613 -154 601 -169 q 638 -134 624 -139 q 663 -129 653 -129 q 699 -144 685 -129 q 714 -185 714 -158 q 693 -228 714 -206 q 640 -265 672 -250 q 568 -279 607 -279 z "},"Ẽ":{"ha":793,"x_min":113,"x_max":733,"o":"m 183 972 l 664 972 q 713 953 693 972 q 733 904 733 933 q 713 857 733 875 q 664 839 693 839 l 244 839 l 258 863 l 258 551 l 246 565 l 601 565 q 651 546 631 565 q 671 496 671 526 q 651 449 671 467 q 601 431 631 431 l 249 431 l 258 443 l 258 122 l 249 133 l 664 133 q 713 113 693 133 q 733 67 733 93 q 713 19 733 38 q 664 0 693 0 l 183 0 q 133 20 154 0 q 113 71 113 40 l 113 901 q 133 952 113 932 q 183 972 154 972 m 246 1039 q 201 1062 219 1039 q 185 1125 183 1085 q 225 1203 188 1169 q 328 1238 263 1238 q 409 1216 371 1238 q 481 1174 447 1194 q 539 1153 514 1153 q 565 1163 556 1153 q 572 1190 575 1174 q 580 1232 565 1217 q 615 1247 594 1247 q 661 1224 643 1247 q 678 1164 679 1201 q 662 1111 676 1138 q 620 1066 647 1085 q 551 1047 593 1047 q 465 1069 507 1047 q 386 1111 422 1090 q 325 1132 350 1132 q 299 1122 310 1132 q 289 1094 288 1113 q 281 1054 296 1069 q 246 1039 267 1039 z "},"F":{"ha":782,"x_min":113,"x_max":724,"o":"m 186 0 q 133 20 153 0 q 113 71 113 40 l 113 901 q 133 952 113 932 q 183 972 154 972 l 653 972 q 703 953 683 972 q 724 904 724 933 q 703 858 724 878 q 653 839 683 839 l 247 839 l 257 853 l 257 543 l 249 560 l 590 560 q 641 540 621 560 q 661 492 661 521 q 641 446 661 465 q 590 426 621 426 l 246 426 l 257 438 l 257 71 q 236 20 257 40 q 186 0 215 0 z "},"G":{"ha":967,"x_min":60,"x_max":897,"o":"m 564 -14 q 367 24 458 -14 q 206 131 275 63 q 99 290 138 200 q 60 486 60 381 q 99 682 60 592 q 206 841 138 772 q 367 948 275 910 q 564 986 458 986 q 696 971 632 986 q 811 926 760 956 q 838 901 829 917 q 846 869 846 885 q 827 819 846 840 q 781 797 808 797 q 760 800 771 797 q 742 807 750 803 q 658 837 703 826 q 564 847 614 847 q 383 799 464 847 q 256 669 303 751 q 210 486 210 588 q 256 303 210 386 q 383 173 303 221 q 564 125 464 125 q 667 137 613 125 q 758 168 721 149 l 747 131 l 747 394 l 769 375 l 588 375 q 537 394 557 375 q 517 444 517 414 q 537 494 517 475 q 588 514 557 514 l 828 514 q 877 494 857 514 q 897 443 897 474 l 897 135 q 886 97 897 113 q 861 72 875 82 q 723 10 799 33 q 564 -14 647 -14 z "},"Ğ":{"ha":967,"x_min":60,"x_max":897,"o":"m 564 -14 q 367 24 458 -14 q 206 131 275 63 q 99 290 138 200 q 60 486 60 381 q 99 682 60 592 q 206 841 138 772 q 367 948 275 910 q 564 986 458 986 q 696 971 632 986 q 811 926 760 956 q 838 901 829 917 q 846 869 846 885 q 827 819 846 840 q 781 797 808 797 q 760 800 771 797 q 742 807 750 803 q 658 837 703 826 q 564 847 614 847 q 383 799 464 847 q 256 669 303 751 q 210 486 210 588 q 256 303 210 386 q 383 173 303 221 q 564 125 464 125 q 667 137 613 125 q 758 168 721 149 l 747 131 l 747 394 l 769 375 l 588 375 q 537 394 557 375 q 517 444 517 414 q 537 494 517 475 q 588 514 557 514 l 828 514 q 877 494 857 514 q 897 443 897 474 l 897 135 q 886 97 897 113 q 861 72 875 82 q 723 10 799 33 q 564 -14 647 -14 m 535 1061 q 404 1096 460 1061 q 325 1193 349 1131 q 326 1241 314 1224 q 361 1258 338 1258 q 400 1247 386 1258 q 431 1215 414 1236 q 472 1176 446 1190 q 535 1163 497 1163 q 639 1215 608 1163 q 670 1247 656 1236 q 708 1258 685 1258 q 745 1242 733 1258 q 746 1196 757 1225 q 667 1096 722 1131 q 535 1061 611 1061 z "},"Ǧ":{"ha":967,"x_min":60,"x_max":897,"o":"m 564 -14 q 367 24 458 -14 q 206 131 275 63 q 99 290 138 200 q 60 486 60 381 q 99 682 60 592 q 206 841 138 772 q 367 948 275 910 q 564 986 458 986 q 696 971 632 986 q 811 926 760 956 q 838 901 829 917 q 846 869 846 885 q 827 819 846 840 q 781 797 808 797 q 760 800 771 797 q 742 807 750 803 q 658 837 703 826 q 564 847 614 847 q 383 799 464 847 q 256 669 303 751 q 210 486 210 588 q 256 303 210 386 q 383 173 303 221 q 564 125 464 125 q 667 137 613 125 q 758 168 721 149 l 747 131 l 747 394 l 769 375 l 588 375 q 537 394 557 375 q 517 444 517 414 q 537 494 517 475 q 588 514 557 514 l 828 514 q 877 494 857 514 q 897 443 897 474 l 897 135 q 886 97 897 113 q 861 72 875 82 q 723 10 799 33 q 564 -14 647 -14 m 514 1132 l 633 1215 q 667 1233 653 1228 q 693 1239 681 1239 q 719 1230 710 1239 q 729 1210 729 1221 q 726 1194 729 1201 q 711 1174 722 1186 l 618 1069 q 586 1043 603 1051 q 546 1035 569 1035 l 526 1035 q 486 1043 503 1035 q 454 1069 469 1051 l 360 1174 q 347 1193 350 1186 q 343 1208 343 1200 q 353 1229 343 1219 q 379 1239 364 1239 q 439 1215 403 1239 l 558 1133 l 514 1132 z "},"Ĝ":{"ha":967,"x_min":60,"x_max":897,"o":"m 564 -14 q 367 24 458 -14 q 206 131 275 63 q 99 290 138 200 q 60 486 60 381 q 99 682 60 592 q 206 841 138 772 q 367 948 275 910 q 564 986 458 986 q 696 971 632 986 q 811 926 760 956 q 838 901 829 917 q 846 869 846 885 q 827 819 846 840 q 781 797 808 797 q 760 800 771 797 q 742 807 750 803 q 658 837 703 826 q 564 847 614 847 q 383 799 464 847 q 256 669 303 751 q 210 486 210 588 q 256 303 210 386 q 383 173 303 221 q 564 125 464 125 q 667 137 613 125 q 758 168 721 149 l 747 131 l 747 394 l 769 375 l 588 375 q 537 394 557 375 q 517 444 517 414 q 537 494 517 475 q 588 514 557 514 l 828 514 q 877 494 857 514 q 897 443 897 474 l 897 135 q 886 97 897 113 q 861 72 875 82 q 723 10 799 33 q 564 -14 647 -14 m 556 1142 l 438 1064 q 403 1045 418 1053 q 378 1038 389 1038 q 351 1047 363 1038 q 340 1068 340 1057 q 344 1085 340 1078 q 358 1103 349 1092 l 453 1208 q 484 1234 468 1225 q 524 1243 500 1243 l 544 1243 q 584 1234 568 1243 q 617 1208 600 1225 l 710 1104 q 724 1085 721 1092 q 728 1068 728 1078 q 717 1047 728 1057 q 692 1038 707 1038 q 665 1045 679 1038 q 632 1064 651 1053 l 513 1140 l 556 1142 z "},"Ģ":{"ha":967,"x_min":60,"x_max":897,"o":"m 564 -14 q 367 24 458 -14 q 206 131 275 63 q 99 290 138 200 q 60 486 60 381 q 99 682 60 592 q 206 841 138 772 q 367 948 275 910 q 564 986 458 986 q 696 971 632 986 q 811 926 760 956 q 838 901 829 917 q 846 869 846 885 q 827 819 846 840 q 781 797 808 797 q 760 800 771 797 q 742 807 750 803 q 658 837 703 826 q 564 847 614 847 q 383 799 464 847 q 256 669 303 751 q 210 486 210 588 q 256 303 210 386 q 383 173 303 221 q 564 125 464 125 q 667 137 613 125 q 758 168 721 149 l 747 131 l 747 394 l 769 375 l 588 375 q 537 394 557 375 q 517 444 517 414 q 537 494 517 475 q 588 514 557 514 l 828 514 q 877 494 857 514 q 897 443 897 474 l 897 135 q 886 97 897 113 q 861 72 875 82 q 723 10 799 33 q 564 -14 647 -14 m 658 -146 q 641 -203 658 -175 q 594 -250 624 -232 q 529 -268 565 -268 q 483 -255 497 -268 q 468 -229 468 -242 q 476 -206 468 -212 q 494 -199 485 -199 q 513 -202 501 -199 q 536 -206 524 -206 q 559 -194 550 -204 q 568 -164 568 -183 q 554 -147 568 -147 q 540 -153 544 -147 q 518 -158 536 -158 q 486 -145 499 -160 q 474 -108 474 -131 q 497 -62 474 -78 q 560 -47 521 -47 q 631 -73 603 -47 q 658 -146 658 -99 z "},"Ġ":{"ha":967,"x_min":60,"x_max":897,"o":"m 564 -14 q 367 24 458 -14 q 206 131 275 63 q 99 290 138 200 q 60 486 60 381 q 99 682 60 592 q 206 841 138 772 q 367 948 275 910 q 564 986 458 986 q 696 971 632 986 q 811 926 760 956 q 838 901 829 917 q 846 869 846 885 q 827 819 846 840 q 781 797 808 797 q 760 800 771 797 q 742 807 750 803 q 658 837 703 826 q 564 847 614 847 q 383 799 464 847 q 256 669 303 751 q 210 486 210 588 q 256 303 210 386 q 383 173 303 221 q 564 125 464 125 q 667 137 613 125 q 758 168 721 149 l 747 131 l 747 394 l 769 375 l 588 375 q 537 394 557 375 q 517 444 517 414 q 537 494 517 475 q 588 514 557 514 l 828 514 q 877 494 857 514 q 897 443 897 474 l 897 135 q 886 97 897 113 q 861 72 875 82 q 723 10 799 33 q 564 -14 647 -14 m 533 1042 q 475 1057 493 1042 q 457 1107 457 1072 l 457 1129 q 476 1179 457 1165 q 535 1193 496 1193 q 594 1179 576 1193 q 613 1129 613 1165 l 613 1107 q 594 1056 613 1071 q 533 1042 575 1042 z "},"Ḡ":{"ha":967,"x_min":60,"x_max":897,"o":"m 564 -14 q 367 24 458 -14 q 206 131 275 63 q 99 290 138 200 q 60 486 60 381 q 99 682 60 592 q 206 841 138 772 q 367 948 275 910 q 564 986 458 986 q 696 971 632 986 q 811 926 760 956 q 838 901 829 917 q 846 869 846 885 q 827 819 846 840 q 781 797 808 797 q 760 800 771 797 q 742 807 750 803 q 658 837 703 826 q 564 847 614 847 q 383 799 464 847 q 256 669 303 751 q 210 486 210 588 q 256 303 210 386 q 383 173 303 221 q 564 125 464 125 q 667 137 613 125 q 758 168 721 149 l 747 131 l 747 394 l 769 375 l 588 375 q 537 394 557 375 q 517 444 517 414 q 537 494 517 475 q 588 514 557 514 l 828 514 q 877 494 857 514 q 897 443 897 474 l 897 135 q 886 97 897 113 q 861 72 875 82 q 723 10 799 33 q 564 -14 647 -14 m 367 1058 q 307 1113 307 1058 q 367 1165 307 1165 l 708 1165 q 768 1113 768 1165 q 708 1058 768 1058 l 367 1058 z "},"H":{"ha":999,"x_min":113,"x_max":886,"o":"m 188 972 q 237 952 215 972 q 258 901 258 932 l 258 71 q 235 20 257 40 q 185 0 214 0 q 133 20 153 0 q 113 71 113 40 l 113 901 q 133 952 113 932 q 188 972 154 972 m 814 972 q 867 952 847 972 q 886 901 886 932 l 886 71 q 866 20 886 40 q 813 0 846 0 q 763 20 783 0 q 742 71 742 40 l 742 901 q 763 952 742 932 q 814 972 785 972 m 182 558 l 815 558 l 814 425 l 181 425 l 182 558 z "},"Ħ":{"ha":1131,"x_min":76,"x_max":1054,"o":"m 136 681 q 94 698 111 681 q 76 740 76 715 q 94 782 76 765 q 136 799 111 799 l 994 799 q 1038 782 1021 799 q 1054 739 1054 765 q 1038 697 1054 714 q 994 681 1021 681 l 136 681 m 253 972 q 302 952 281 972 q 324 901 324 932 l 324 71 q 301 20 324 40 q 250 0 279 0 q 199 20 218 0 q 179 71 179 40 l 179 901 q 200 952 179 932 q 253 972 221 972 m 881 972 q 932 952 913 972 q 951 901 951 932 l 951 71 q 931 20 951 40 q 878 0 911 0 q 828 20 850 0 q 807 71 807 40 l 807 901 q 829 952 807 932 q 881 972 851 972 m 247 558 l 881 558 l 881 425 l 246 425 l 247 558 z "},"Ḫ":{"ha":999,"x_min":113,"x_max":886,"o":"m 188 972 q 237 952 215 972 q 258 901 258 932 l 258 71 q 235 20 257 40 q 185 0 214 0 q 133 20 153 0 q 113 71 113 40 l 113 901 q 133 952 113 932 q 188 972 154 972 m 814 972 q 867 952 847 972 q 886 901 886 932 l 886 71 q 866 20 886 40 q 813 0 846 0 q 763 20 783 0 q 742 71 742 40 l 742 901 q 763 952 742 932 q 814 972 785 972 m 182 558 l 815 558 l 814 425 l 181 425 l 182 558 m 501 -243 q 409 -225 451 -243 q 337 -175 367 -207 q 294 -101 307 -143 q 296 -55 283 -72 q 331 -37 308 -37 q 372 -49 357 -37 q 401 -82 388 -61 q 439 -126 414 -110 q 501 -142 464 -142 q 563 -126 538 -142 q 601 -82 588 -110 q 631 -49 617 -61 q 671 -37 646 -37 q 707 -54 694 -37 q 708 -99 719 -71 q 666 -174 696 -142 q 594 -225 636 -207 q 501 -243 553 -243 z "},"Ĥ":{"ha":999,"x_min":113,"x_max":886,"o":"m 188 972 q 237 952 215 972 q 258 901 258 932 l 258 71 q 235 20 257 40 q 185 0 214 0 q 133 20 153 0 q 113 71 113 40 l 113 901 q 133 952 113 932 q 188 972 154 972 m 814 972 q 867 952 847 972 q 886 901 886 932 l 886 71 q 866 20 886 40 q 813 0 846 0 q 763 20 783 0 q 742 71 742 40 l 742 901 q 763 952 742 932 q 814 972 785 972 m 182 558 l 815 558 l 814 425 l 181 425 l 182 558 m 521 1142 l 403 1064 q 369 1045 383 1053 q 343 1038 354 1038 q 317 1047 328 1038 q 306 1068 306 1057 q 310 1085 306 1078 q 324 1103 314 1092 l 418 1208 q 449 1234 433 1225 q 489 1243 465 1243 l 510 1243 q 549 1234 533 1243 q 582 1208 565 1225 l 675 1104 q 690 1085 686 1092 q 693 1068 693 1078 q 683 1047 693 1057 q 657 1038 672 1038 q 631 1045 644 1038 q 597 1064 617 1053 l 478 1140 l 521 1142 z "},"Ḥ":{"ha":999,"x_min":113,"x_max":886,"o":"m 188 972 q 237 952 215 972 q 258 901 258 932 l 258 71 q 235 20 257 40 q 185 0 214 0 q 133 20 153 0 q 113 71 113 40 l 113 901 q 133 952 113 932 q 188 972 154 972 m 814 972 q 867 952 847 972 q 886 901 886 932 l 886 71 q 866 20 886 40 q 813 0 846 0 q 763 20 783 0 q 742 71 742 40 l 742 901 q 763 952 742 932 q 814 972 785 972 m 182 558 l 815 558 l 814 425 l 181 425 l 182 558 m 499 -200 q 440 -185 458 -200 q 422 -136 422 -171 l 422 -114 q 442 -63 422 -78 q 499 -49 461 -49 q 560 -63 542 -49 q 578 -114 578 -78 l 578 -136 q 559 -186 578 -172 q 499 -200 540 -200 z "},"I":{"ha":371,"x_min":113,"x_max":258,"o":"m 258 71 q 235 20 257 40 q 185 0 214 0 q 133 20 153 0 q 113 71 113 40 l 113 901 q 133 952 113 932 q 188 972 154 972 q 237 952 215 972 q 258 901 258 932 l 258 71 z "},"Ĳ":{"ha":821,"x_min":113,"x_max":708,"o":"m 269 415 q 247 365 269 385 q 197 344 225 344 q 144 365 164 344 q 125 415 125 385 l 125 901 q 146 952 125 932 q 199 972 167 972 q 248 952 226 972 q 269 901 269 932 l 269 415 m 386 -14 q 235 24 304 -14 q 126 128 167 61 q 113 167 113 149 q 135 215 113 196 q 181 235 158 235 q 215 224 199 235 q 246 199 232 214 q 307 144 272 163 q 386 125 342 125 q 475 148 435 125 q 540 210 515 171 q 564 297 564 250 l 564 901 q 585 952 564 932 q 636 972 607 972 q 689 952 669 972 q 708 901 708 932 l 708 297 q 666 142 708 213 q 551 28 624 71 q 386 -14 478 -14 z "},"Í":{"ha":371,"x_min":113,"x_max":403,"o":"m 258 71 q 235 20 257 40 q 185 0 214 0 q 133 20 153 0 q 113 71 113 40 l 113 901 q 133 952 113 932 q 188 972 154 972 q 237 952 215 972 q 258 901 258 932 l 258 71 m 190 1029 q 155 1041 168 1029 q 142 1071 142 1053 q 147 1088 142 1079 q 160 1104 151 1096 l 281 1206 q 308 1224 293 1217 q 339 1232 324 1232 q 382 1216 361 1232 q 403 1172 403 1200 q 392 1137 403 1154 q 360 1108 381 1119 l 221 1038 q 206 1031 214 1032 q 190 1029 197 1029 z "},"Ĭ":{"ha":371,"x_min":-33,"x_max":410,"o":"m 258 71 q 235 20 257 40 q 185 0 214 0 q 133 20 153 0 q 113 71 113 40 l 113 901 q 133 952 113 932 q 188 972 154 972 q 237 952 215 972 q 258 901 258 932 l 258 71 m 188 1061 q 57 1096 113 1061 q -22 1193 1 1131 q -22 1241 -33 1224 q 14 1258 -10 1258 q 53 1247 39 1258 q 83 1215 67 1236 q 124 1176 99 1190 q 188 1163 150 1163 q 292 1215 261 1163 q 323 1247 308 1236 q 361 1258 338 1258 q 398 1242 386 1258 q 399 1196 410 1225 q 319 1096 375 1131 q 188 1061 264 1061 z "},"Ǐ":{"ha":371,"x_min":-4,"x_max":382,"o":"m 258 71 q 235 20 257 40 q 185 0 214 0 q 133 20 153 0 q 113 71 113 40 l 113 901 q 133 952 113 932 q 188 972 154 972 q 237 952 215 972 q 258 901 258 932 l 258 71 m 167 1132 l 286 1215 q 319 1233 306 1228 q 346 1239 333 1239 q 372 1230 363 1239 q 382 1210 382 1221 q 378 1194 382 1201 q 364 1174 375 1186 l 271 1069 q 239 1043 256 1051 q 199 1035 222 1035 l 179 1035 q 139 1043 156 1035 q 107 1069 122 1051 l 13 1174 q -1 1193 3 1186 q -4 1208 -4 1200 q 6 1229 -4 1219 q 32 1239 17 1239 q 92 1215 56 1239 l 211 1133 l 167 1132 z "},"Î":{"ha":371,"x_min":-7,"x_max":381,"o":"m 258 71 q 235 20 257 40 q 185 0 214 0 q 133 20 153 0 q 113 71 113 40 l 113 901 q 133 952 113 932 q 188 972 154 972 q 237 952 215 972 q 258 901 258 932 l 258 71 m 208 1142 l 90 1064 q 56 1045 71 1053 q 31 1038 42 1038 q 4 1047 15 1038 q -7 1068 -7 1057 q -3 1085 -7 1078 q 11 1103 1 1092 l 106 1208 q 137 1234 121 1225 q 176 1243 153 1243 l 197 1243 q 237 1234 221 1243 q 269 1208 253 1225 l 363 1104 q 377 1085 374 1092 q 381 1068 381 1078 q 370 1047 381 1057 q 344 1038 360 1038 q 318 1045 332 1038 q 285 1064 304 1053 l 165 1140 l 208 1142 z "},"Ȉ":{"ha":371,"x_min":-140,"x_max":389,"o":"m 258 71 q 235 20 257 40 q 185 0 214 0 q 133 20 153 0 q 113 71 113 40 l 113 901 q 133 952 113 932 q 188 972 154 972 q 237 952 215 972 q 258 901 258 932 l 258 71 m 72 1046 q 58 1049 65 1046 q 42 1054 50 1051 l -96 1126 q -140 1190 -140 1150 q -119 1233 -140 1217 q -76 1249 -99 1249 q -44 1241 -60 1249 q -18 1224 -29 1233 l 103 1121 q 117 1105 113 1113 q 121 1088 121 1097 q 108 1058 121 1069 q 72 1046 94 1046 m 342 1056 q 326 1058 333 1056 q 310 1064 318 1060 l 172 1135 q 129 1199 129 1158 q 149 1242 129 1226 q 192 1258 169 1258 q 224 1251 208 1258 q 250 1232 239 1243 l 371 1131 q 385 1114 381 1122 q 389 1097 389 1106 q 376 1067 389 1079 q 342 1056 364 1056 z "},"Ï":{"ha":371,"x_min":-19,"x_max":396,"o":"m 258 71 q 235 20 257 40 q 185 0 214 0 q 133 20 153 0 q 113 71 113 40 l 113 901 q 133 952 113 932 q 188 972 154 972 q 237 952 215 972 q 258 901 258 932 l 258 71 m 319 1063 q 263 1078 282 1063 q 244 1128 244 1093 l 244 1149 q 264 1199 244 1185 q 319 1214 283 1214 q 378 1199 360 1214 q 397 1149 397 1183 l 397 1128 q 378 1077 397 1092 q 319 1063 358 1063 m 56 1063 q -1 1078 18 1063 q -19 1128 -19 1093 l -19 1149 q 0 1199 -19 1185 q 57 1214 19 1214 q 115 1199 96 1214 q 133 1149 133 1183 l 133 1128 q 114 1077 133 1092 q 56 1063 94 1063 z "},"Ḯ":{"ha":371,"x_min":-19,"x_max":403,"o":"m 258 71 q 235 20 257 40 q 185 0 214 0 q 133 20 153 0 q 113 71 113 40 l 113 901 q 133 952 113 932 q 188 972 154 972 q 237 952 215 972 q 258 901 258 932 l 258 71 m 319 1063 q 263 1078 282 1063 q 244 1128 244 1093 l 244 1149 q 264 1199 244 1185 q 319 1214 283 1214 q 378 1199 360 1214 q 397 1149 397 1183 l 397 1128 q 378 1077 397 1092 q 319 1063 358 1063 m 56 1063 q -1 1078 18 1063 q -19 1128 -19 1093 l -19 1149 q 0 1199 -19 1185 q 57 1214 19 1214 q 115 1199 96 1214 q 133 1149 133 1183 l 133 1128 q 114 1077 133 1092 q 56 1063 94 1063 m 190 1292 q 155 1303 168 1292 q 142 1333 142 1315 q 147 1350 142 1342 q 160 1367 151 1358 l 281 1468 q 308 1487 293 1479 q 339 1494 324 1494 q 382 1478 361 1494 q 403 1435 403 1463 q 392 1399 403 1417 q 360 1371 381 1382 l 221 1300 q 206 1293 214 1294 q 190 1292 197 1292 z "},"İ":{"ha":371,"x_min":110,"x_max":265,"o":"m 258 71 q 235 20 257 40 q 185 0 214 0 q 133 20 153 0 q 113 71 113 40 l 113 901 q 133 952 113 932 q 188 972 154 972 q 237 952 215 972 q 258 901 258 932 l 258 71 m 186 1042 q 128 1057 146 1042 q 110 1107 110 1072 l 110 1129 q 129 1179 110 1165 q 188 1193 149 1193 q 247 1179 229 1193 q 265 1129 265 1165 l 265 1107 q 247 1056 265 1071 q 186 1042 228 1042 z "},"Ị":{"ha":371,"x_min":110,"x_max":265,"o":"m 258 71 q 235 20 257 40 q 185 0 214 0 q 133 20 153 0 q 113 71 113 40 l 113 901 q 133 952 113 932 q 188 972 154 972 q 237 952 215 972 q 258 901 258 932 l 258 71 m 186 -200 q 128 -185 146 -200 q 110 -136 110 -171 l 110 -114 q 129 -63 110 -78 q 186 -49 149 -49 q 247 -63 229 -49 q 265 -114 265 -78 l 265 -136 q 247 -186 265 -172 q 186 -200 228 -200 z "},"Ì":{"ha":371,"x_min":-26,"x_max":258,"o":"m 258 71 q 235 20 257 40 q 185 0 214 0 q 133 20 153 0 q 113 71 113 40 l 113 901 q 133 952 113 932 q 188 972 154 972 q 237 952 215 972 q 258 901 258 932 l 258 71 m 186 1033 q 172 1035 179 1033 q 156 1042 164 1038 l 18 1113 q -26 1176 -26 1136 q -6 1220 -26 1204 q 38 1236 15 1236 q 69 1228 54 1236 q 96 1210 85 1221 l 217 1108 q 231 1092 226 1100 q 235 1075 235 1083 q 222 1045 235 1057 q 186 1033 208 1033 z "},"Ỉ":{"ha":371,"x_min":39,"x_max":303,"o":"m 258 71 q 235 20 257 40 q 185 0 214 0 q 133 20 153 0 q 113 71 113 40 l 113 901 q 133 952 113 932 q 188 972 154 972 q 237 952 215 972 q 258 901 258 932 l 258 71 m 63 1278 q 110 1307 85 1296 q 171 1318 135 1318 q 253 1300 224 1318 q 293 1255 282 1282 q 304 1204 304 1228 q 296 1163 304 1181 q 271 1126 288 1146 q 251 1101 258 1113 q 243 1078 243 1090 q 228 1057 242 1064 q 194 1050 215 1050 q 172 1057 183 1050 q 160 1079 160 1064 q 165 1106 160 1092 q 182 1133 171 1119 q 206 1165 194 1150 q 217 1194 217 1181 q 202 1223 217 1213 q 168 1233 188 1233 q 135 1226 150 1233 q 108 1208 121 1218 q 85 1201 99 1201 q 54 1215 71 1200 q 45 1249 40 1232 q 63 1278 50 1267 z "},"Ȋ":{"ha":371,"x_min":-31,"x_max":406,"o":"m 258 71 q 235 20 257 40 q 185 0 214 0 q 133 20 153 0 q 113 71 113 40 l 113 901 q 133 952 113 932 q 188 972 154 972 q 237 952 215 972 q 258 901 258 932 l 258 71 m 188 1260 q 281 1244 239 1260 q 351 1198 322 1228 q 393 1128 381 1168 q 393 1083 406 1100 q 357 1065 381 1065 q 317 1077 332 1065 q 288 1110 303 1089 q 249 1146 274 1133 q 188 1158 224 1158 q 125 1146 150 1158 q 88 1110 100 1133 q 58 1077 74 1089 q 17 1065 43 1065 q -18 1082 -6 1065 q -21 1126 -31 1099 q 22 1198 -7 1168 q 94 1244 51 1228 q 188 1260 136 1260 z "},"Ī":{"ha":371,"x_min":-42,"x_max":421,"o":"m 258 71 q 235 20 257 40 q 185 0 214 0 q 133 20 153 0 q 113 71 113 40 l 113 901 q 133 952 113 932 q 188 972 154 972 q 237 952 215 972 q 258 901 258 932 l 258 71 m 19 1058 q -40 1113 -40 1058 q 19 1165 -40 1165 l 361 1165 q 421 1113 421 1165 q 361 1058 421 1058 l 19 1058 z "},"Į":{"ha":368,"x_min":-22,"x_max":279,"o":"m 133 -279 q 24 -244 71 -279 q -22 -136 -22 -208 q -2 -51 -22 -86 q 51 9 18 -15 q 123 49 85 33 q 199 74 161 64 l 181 7 l 113 43 l 113 901 q 134 952 113 932 q 189 972 156 972 q 242 952 221 972 q 263 901 263 932 l 263 47 q 256 20 263 33 q 228 0 249 7 q 134 -44 174 -17 q 94 -111 94 -72 q 110 -155 94 -140 q 146 -169 126 -169 q 175 -160 164 -169 q 199 -140 186 -150 q 229 -129 211 -129 q 265 -144 250 -129 q 279 -185 279 -158 q 259 -228 279 -206 q 206 -265 239 -250 q 133 -279 172 -279 z "},"Ĩ":{"ha":371,"x_min":-60,"x_max":436,"o":"m 258 71 q 235 20 257 40 q 185 0 214 0 q 133 20 153 0 q 113 71 113 40 l 113 901 q 133 952 113 932 q 188 972 154 972 q 237 952 215 972 q 258 901 258 932 l 258 71 m 3 1039 q -42 1062 -24 1039 q -58 1125 -60 1085 q -18 1203 -56 1169 q 85 1238 19 1238 q 166 1216 128 1238 q 238 1174 204 1194 q 296 1153 271 1153 q 322 1163 313 1153 q 329 1190 332 1174 q 337 1232 322 1217 q 372 1247 351 1247 q 418 1224 400 1247 q 435 1164 436 1201 q 419 1111 433 1138 q 377 1066 404 1085 q 308 1047 350 1047 q 222 1069 264 1047 q 143 1111 179 1090 q 82 1132 107 1132 q 56 1122 67 1132 q 46 1094 44 1113 q 38 1054 53 1069 q 3 1039 24 1039 z "},"J":{"ha":776,"x_min":68,"x_max":663,"o":"m 340 -14 q 190 24 258 -14 q 81 128 122 61 q 68 167 68 149 q 90 215 68 196 q 135 235 113 235 q 170 224 154 235 q 200 199 186 214 q 263 144 228 163 q 340 125 297 125 q 431 148 390 125 q 494 210 471 171 q 518 297 518 250 l 518 901 q 540 952 518 932 q 592 972 563 972 q 643 952 624 972 q 663 901 663 932 l 663 297 q 620 142 663 213 q 505 28 578 71 q 340 -14 432 -14 z "},"Ĵ":{"ha":776,"x_min":68,"x_max":783,"o":"m 340 -14 q 190 24 258 -14 q 81 128 122 61 q 68 167 68 149 q 90 215 68 196 q 135 235 113 235 q 170 224 154 235 q 200 199 186 214 q 263 144 228 163 q 340 125 297 125 q 431 148 390 125 q 494 210 471 171 q 518 297 518 250 l 518 901 q 540 952 518 932 q 592 972 563 972 q 643 952 624 972 q 663 901 663 932 l 663 297 q 620 142 663 213 q 505 28 578 71 q 340 -14 432 -14 m 611 1142 l 493 1064 q 459 1045 474 1053 q 433 1038 444 1038 q 407 1047 418 1038 q 396 1068 396 1057 q 400 1085 396 1078 q 414 1103 404 1092 l 508 1208 q 540 1234 524 1225 q 579 1243 556 1243 l 600 1243 q 640 1234 624 1243 q 672 1208 656 1225 l 765 1104 q 780 1085 776 1092 q 783 1068 783 1078 q 773 1047 783 1057 q 747 1038 763 1038 q 721 1045 735 1038 q 688 1064 707 1053 l 568 1140 l 611 1142 z "},"K":{"ha":919,"x_min":113,"x_max":869,"o":"m 790 -1 q 739 25 758 -1 l 393 471 l 500 579 l 853 119 q 869 71 869 97 q 844 18 869 38 q 790 -1 819 -1 m 797 976 q 843 954 825 976 q 861 908 861 932 q 840 863 861 883 l 242 294 l 233 458 l 742 950 q 797 976 767 976 m 185 0 q 133 20 153 0 q 113 71 113 40 l 113 901 q 133 952 113 932 q 188 972 154 972 q 239 952 219 972 q 258 901 258 932 l 258 71 q 238 20 257 40 q 185 0 218 0 z "},"Ķ":{"ha":919,"x_min":113,"x_max":869,"o":"m 790 -1 q 739 25 758 -1 l 393 471 l 500 579 l 853 119 q 869 71 869 97 q 844 18 869 38 q 790 -1 819 -1 m 797 976 q 843 954 825 976 q 861 908 861 932 q 840 863 861 883 l 242 294 l 233 458 l 742 950 q 797 976 767 976 m 185 0 q 133 20 153 0 q 113 71 113 40 l 113 901 q 133 952 113 932 q 188 972 154 972 q 239 952 219 972 q 258 901 258 932 l 258 71 q 238 20 257 40 q 185 0 218 0 m 551 -146 q 534 -203 551 -175 q 488 -250 517 -232 q 422 -268 458 -268 q 376 -255 390 -268 q 361 -229 361 -242 q 369 -206 361 -212 q 388 -199 378 -199 q 406 -202 394 -199 q 429 -206 417 -206 q 452 -194 443 -204 q 461 -164 461 -183 q 447 -147 461 -147 q 433 -153 438 -147 q 411 -158 429 -158 q 379 -145 392 -160 q 367 -108 367 -131 q 390 -62 367 -78 q 453 -47 414 -47 q 524 -73 496 -47 q 551 -146 551 -99 z "},"L":{"ha":767,"x_min":113,"x_max":719,"o":"m 650 136 q 699 117 679 136 q 719 68 719 97 q 699 19 719 39 q 650 0 679 0 l 183 0 q 133 20 153 0 q 113 71 113 40 l 113 901 q 133 952 113 932 q 188 972 154 972 q 237 952 215 972 q 258 901 258 932 l 258 113 l 229 136 l 650 136 z "},"Ǉ":{"ha":1543,"x_min":113,"x_max":1429,"o":"m 650 136 q 699 117 679 136 q 719 68 719 97 q 699 19 719 39 q 650 0 679 0 l 183 0 q 133 20 153 0 q 113 71 113 40 l 113 901 q 133 952 113 932 q 188 972 154 972 q 237 952 215 972 q 258 901 258 932 l 258 113 l 229 136 l 650 136 m 1107 -14 q 957 24 1025 -14 q 847 128 889 61 q 835 167 835 149 q 857 215 835 196 q 901 235 879 235 q 937 224 921 235 q 967 199 953 214 q 1029 144 994 163 q 1107 125 1064 125 q 1197 148 1157 125 q 1261 210 1238 171 q 1285 297 1285 250 l 1285 901 q 1307 952 1285 932 q 1358 972 1329 972 q 1410 952 1390 972 q 1429 901 1429 932 l 1429 297 q 1387 142 1429 213 q 1272 28 1344 71 q 1107 -14 1199 -14 z "},"Ĺ":{"ha":767,"x_min":113,"x_max":719,"o":"m 650 136 q 699 117 679 136 q 719 68 719 97 q 699 19 719 39 q 650 0 679 0 l 183 0 q 133 20 153 0 q 113 71 113 40 l 113 901 q 133 952 113 932 q 188 972 154 972 q 237 952 215 972 q 258 901 258 932 l 258 113 l 229 136 l 650 136 m 178 1029 q 142 1041 156 1029 q 129 1071 129 1053 q 134 1088 129 1079 q 147 1104 139 1096 l 268 1206 q 296 1224 281 1217 q 326 1232 311 1232 q 369 1216 349 1232 q 390 1172 390 1200 q 379 1137 390 1154 q 347 1108 368 1119 l 208 1038 q 193 1031 201 1032 q 178 1029 185 1029 z "},"Ľ":{"ha":767,"x_min":113,"x_max":719,"o":"m 650 136 q 699 117 679 136 q 719 68 719 97 q 699 19 719 39 q 650 0 679 0 l 183 0 q 133 20 153 0 q 113 71 113 40 l 113 901 q 133 952 113 932 q 188 972 154 972 q 237 952 215 972 q 258 901 258 932 l 258 113 l 229 136 l 650 136 m 621 911 q 596 825 621 868 q 533 753 571 782 q 454 725 496 725 q 426 735 440 725 q 411 774 411 746 q 428 806 411 801 q 463 819 446 811 q 493 844 482 829 q 504 878 504 858 q 491 906 504 894 q 457 917 478 917 q 438 915 449 917 q 419 907 428 913 q 399 924 407 914 q 390 953 390 933 q 426 1016 392 989 q 504 1043 460 1043 q 589 1006 557 1043 q 621 911 621 968 z "},"Ḽ":{"ha":767,"x_min":113,"x_max":719,"o":"m 650 136 q 699 117 679 136 q 719 68 719 97 q 699 19 719 39 q 650 0 679 0 l 183 0 q 133 20 153 0 q 113 71 113 40 l 113 901 q 133 952 113 932 q 188 972 154 972 q 237 952 215 972 q 258 901 258 932 l 258 113 l 229 136 l 650 136 m 414 -156 l 303 -249 q 277 -270 288 -262 q 246 -278 267 -278 q 220 -269 231 -278 q 210 -247 210 -260 q 213 -230 210 -237 q 225 -211 215 -222 l 304 -117 q 375 -82 331 -82 l 417 -82 q 454 -89 440 -82 q 481 -117 468 -96 l 556 -211 q 567 -230 564 -222 q 569 -247 569 -237 q 560 -268 569 -258 q 535 -278 550 -278 q 503 -269 513 -278 q 476 -249 493 -261 l 357 -147 l 414 -156 z "},"Ļ":{"ha":767,"x_min":113,"x_max":719,"o":"m 650 136 q 699 117 679 136 q 719 68 719 97 q 699 19 719 39 q 650 0 679 0 l 183 0 q 133 20 153 0 q 113 71 113 40 l 113 901 q 133 952 113 932 q 188 972 154 972 q 237 952 215 972 q 258 901 258 932 l 258 113 l 229 136 l 650 136 m 497 -146 q 480 -203 497 -175 q 433 -250 463 -232 q 368 -268 404 -268 q 322 -255 336 -268 q 307 -229 307 -242 q 315 -206 307 -212 q 333 -199 324 -199 q 351 -202 340 -199 q 375 -206 363 -206 q 398 -194 389 -204 q 407 -164 407 -183 q 393 -147 407 -147 q 379 -153 383 -147 q 357 -158 375 -158 q 325 -145 338 -160 q 313 -108 313 -131 q 336 -62 313 -78 q 399 -47 360 -47 q 469 -73 442 -47 q 497 -146 497 -99 z "},"Ŀ":{"ha":751,"x_min":113,"x_max":719,"o":"m 650 136 q 699 117 679 136 q 719 68 719 97 q 699 19 719 39 q 650 0 679 0 l 183 0 q 133 20 153 0 q 113 71 113 40 l 113 901 q 133 952 113 932 q 188 972 154 972 q 237 952 215 972 q 258 901 258 932 l 258 113 l 229 136 l 650 136 m 565 447 q 511 467 531 447 q 492 521 492 486 l 492 547 q 511 601 492 582 q 565 619 531 619 l 581 619 q 634 601 615 619 q 653 547 653 582 l 653 521 q 634 467 653 486 q 581 447 615 447 l 565 447 z "},"Ḷ":{"ha":767,"x_min":113,"x_max":719,"o":"m 650 136 q 699 117 679 136 q 719 68 719 97 q 699 19 719 39 q 650 0 679 0 l 183 0 q 133 20 153 0 q 113 71 113 40 l 113 901 q 133 952 113 932 q 188 972 154 972 q 237 952 215 972 q 258 901 258 932 l 258 113 l 229 136 l 650 136 m 390 -200 q 332 -185 350 -200 q 314 -136 314 -171 l 314 -114 q 333 -63 314 -78 q 390 -49 353 -49 q 451 -63 433 -49 q 469 -114 469 -78 l 469 -136 q 451 -186 469 -172 q 390 -200 432 -200 z "},"ǈ":{"ha":1146,"x_min":113,"x_max":1029,"o":"m 650 136 q 699 117 679 136 q 719 68 719 97 q 699 19 719 39 q 650 0 679 0 l 183 0 q 133 20 153 0 q 113 71 113 40 l 113 901 q 133 952 113 932 q 188 972 154 972 q 237 952 215 972 q 258 901 258 932 l 258 113 l 229 136 l 650 136 m 1022 -31 q 992 -160 1022 -106 q 911 -243 961 -214 q 804 -272 861 -272 q 757 -253 775 -272 q 739 -208 739 -235 l 739 -196 q 756 -156 739 -171 q 799 -132 774 -140 q 849 -103 831 -122 q 876 -56 868 -85 q 883 6 883 -28 l 883 661 q 903 710 883 690 q 953 731 922 731 q 1003 710 983 731 q 1022 661 1022 690 l 1022 -31 m 950 828 q 892 842 910 828 q 874 892 874 857 l 874 914 q 893 963 874 949 q 951 976 913 976 q 1011 962 993 976 q 1029 914 1029 947 l 1029 892 q 1010 842 1029 856 q 950 828 992 828 z "},"Ḻ":{"ha":767,"x_min":113,"x_max":719,"o":"m 650 136 q 699 117 679 136 q 719 68 719 97 q 699 19 719 39 q 650 0 679 0 l 183 0 q 133 20 153 0 q 113 71 113 40 l 113 901 q 133 952 113 932 q 188 972 154 972 q 237 952 215 972 q 258 901 258 932 l 258 113 l 229 136 l 650 136 m 244 -199 q 185 -146 185 -199 q 244 -93 185 -93 l 565 -93 q 625 -146 625 -93 q 565 -199 625 -199 l 244 -199 z "},"Ł":{"ha":854,"x_min":54,"x_max":807,"o":"m 114 403 q 69 424 83 403 q 54 464 54 444 q 92 517 54 500 l 467 682 q 494 689 482 689 q 538 667 524 689 q 553 628 553 646 q 514 574 553 590 l 139 408 q 126 404 133 406 q 114 403 119 403 m 339 125 l 331 139 l 738 139 q 787 119 767 139 q 807 68 807 99 q 787 19 807 39 q 738 0 767 0 l 271 0 q 220 20 240 0 q 200 71 200 40 l 200 901 q 221 952 200 932 q 271 972 242 972 q 320 952 301 972 q 339 901 339 932 l 339 125 z "},"M":{"ha":1142,"x_min":113,"x_max":1028,"o":"m 185 974 q 219 965 201 974 q 247 942 238 957 l 600 404 l 540 407 l 900 942 q 957 974 922 974 q 1006 953 985 974 q 1028 903 1028 933 l 1028 71 q 1008 20 1028 40 q 957 0 989 0 q 903 20 924 0 q 883 71 883 40 l 883 775 l 928 765 l 622 300 q 597 278 613 288 q 565 271 582 269 q 534 278 550 269 q 508 300 518 288 l 214 758 l 247 814 l 247 71 q 228 20 247 40 q 179 0 210 0 q 131 20 150 0 q 113 71 113 40 l 113 903 q 134 953 113 932 q 185 974 156 974 z "},"Ṃ":{"ha":1142,"x_min":113,"x_max":1028,"o":"m 185 974 q 219 965 201 974 q 247 942 238 957 l 600 404 l 540 407 l 900 942 q 957 974 922 974 q 1006 953 985 974 q 1028 903 1028 933 l 1028 71 q 1008 20 1028 40 q 957 0 989 0 q 903 20 924 0 q 883 71 883 40 l 883 775 l 928 765 l 622 300 q 597 278 613 288 q 565 271 582 269 q 534 278 550 269 q 508 300 518 288 l 214 758 l 247 814 l 247 71 q 228 20 247 40 q 179 0 210 0 q 131 20 150 0 q 113 71 113 40 l 113 903 q 134 953 113 932 q 185 974 156 974 m 569 -200 q 511 -185 529 -200 q 493 -136 493 -171 l 493 -114 q 513 -63 493 -78 q 569 -49 532 -49 q 631 -63 613 -49 q 649 -114 649 -78 l 649 -136 q 630 -186 649 -172 q 569 -200 611 -200 z "},"N":{"ha":1018,"x_min":113,"x_max":904,"o":"m 842 972 q 887 953 869 972 q 904 907 904 935 l 904 71 q 884 20 904 40 q 833 0 864 0 q 803 6 819 0 q 779 21 788 11 l 208 761 l 240 779 l 240 64 q 222 19 240 38 q 176 0 204 0 q 130 19 147 0 q 113 64 113 38 l 113 901 q 133 953 113 933 q 183 972 154 972 q 216 966 199 972 q 242 947 233 960 l 799 222 l 778 203 l 778 907 q 796 953 778 935 q 842 972 814 972 z "},"Ǌ":{"ha":1793,"x_min":113,"x_max":1681,"o":"m 842 972 q 887 953 869 972 q 904 907 904 935 l 904 71 q 884 20 904 40 q 833 0 864 0 q 803 6 819 0 q 779 21 788 11 l 208 761 l 240 779 l 240 64 q 222 19 240 38 q 176 0 204 0 q 130 19 147 0 q 113 64 113 38 l 113 901 q 133 953 113 933 q 183 972 154 972 q 216 966 199 972 q 242 947 233 960 l 799 222 l 778 203 l 778 907 q 796 953 778 935 q 842 972 814 972 m 1358 -14 q 1208 24 1276 -14 q 1099 128 1140 61 q 1086 167 1086 149 q 1108 215 1086 196 q 1153 235 1131 235 q 1188 224 1172 235 q 1218 199 1204 214 q 1281 144 1246 163 q 1358 125 1315 125 q 1449 148 1408 125 q 1513 210 1489 171 q 1536 297 1536 250 l 1536 901 q 1558 952 1536 932 q 1610 972 1581 972 q 1661 952 1642 972 q 1681 901 1681 932 l 1681 297 q 1638 142 1681 213 q 1523 28 1596 71 q 1358 -14 1450 -14 z "},"Ń":{"ha":1018,"x_min":113,"x_max":904,"o":"m 842 972 q 887 953 869 972 q 904 907 904 935 l 904 71 q 884 20 904 40 q 833 0 864 0 q 803 6 819 0 q 779 21 788 11 l 208 761 l 240 779 l 240 64 q 222 19 240 38 q 176 0 204 0 q 130 19 147 0 q 113 64 113 38 l 113 901 q 133 953 113 933 q 183 972 154 972 q 216 966 199 972 q 242 947 233 960 l 799 222 l 778 203 l 778 907 q 796 953 778 935 q 842 972 814 972 m 513 1029 q 477 1041 490 1029 q 464 1071 464 1053 q 469 1088 464 1079 q 482 1104 474 1096 l 603 1206 q 631 1224 615 1217 q 661 1232 646 1232 q 704 1216 683 1232 q 725 1172 725 1200 q 714 1137 725 1154 q 682 1108 703 1119 l 543 1038 q 528 1031 536 1032 q 513 1029 519 1029 z "},"Ň":{"ha":1018,"x_min":113,"x_max":904,"o":"m 842 972 q 887 953 869 972 q 904 907 904 935 l 904 71 q 884 20 904 40 q 833 0 864 0 q 803 6 819 0 q 779 21 788 11 l 208 761 l 240 779 l 240 64 q 222 19 240 38 q 176 0 204 0 q 130 19 147 0 q 113 64 113 38 l 113 901 q 133 953 113 933 q 183 972 154 972 q 216 966 199 972 q 242 947 233 960 l 799 222 l 778 203 l 778 907 q 796 953 778 935 q 842 972 814 972 m 489 1132 l 608 1215 q 642 1233 628 1228 q 668 1239 656 1239 q 694 1230 685 1239 q 704 1210 704 1221 q 701 1194 704 1201 q 686 1174 697 1186 l 593 1069 q 561 1043 578 1051 q 521 1035 544 1035 l 501 1035 q 461 1043 478 1035 q 429 1069 444 1051 l 335 1174 q 322 1193 325 1186 q 318 1208 318 1200 q 328 1229 318 1219 q 354 1239 339 1239 q 414 1215 378 1239 l 533 1133 l 489 1132 z "},"Ṋ":{"ha":1018,"x_min":113,"x_max":904,"o":"m 842 972 q 887 953 869 972 q 904 907 904 935 l 904 71 q 884 20 904 40 q 833 0 864 0 q 803 6 819 0 q 779 21 788 11 l 208 761 l 240 779 l 240 64 q 222 19 240 38 q 176 0 204 0 q 130 19 147 0 q 113 64 113 38 l 113 901 q 133 953 113 933 q 183 972 154 972 q 216 966 199 972 q 242 947 233 960 l 799 222 l 778 203 l 778 907 q 796 953 778 935 q 842 972 814 972 m 532 -156 l 421 -249 q 395 -270 406 -262 q 364 -278 385 -278 q 338 -269 349 -278 q 328 -247 328 -260 q 331 -230 328 -237 q 343 -211 333 -222 l 422 -117 q 493 -82 449 -82 l 535 -82 q 572 -89 558 -82 q 599 -117 586 -96 l 674 -211 q 685 -230 682 -222 q 688 -247 688 -237 q 678 -268 688 -258 q 653 -278 668 -278 q 621 -269 631 -278 q 594 -249 611 -261 l 475 -147 l 532 -156 z "},"Ņ":{"ha":1018,"x_min":113,"x_max":904,"o":"m 842 972 q 887 953 869 972 q 904 907 904 935 l 904 71 q 884 20 904 40 q 833 0 864 0 q 803 6 819 0 q 779 21 788 11 l 208 761 l 240 779 l 240 64 q 222 19 240 38 q 176 0 204 0 q 130 19 147 0 q 113 64 113 38 l 113 901 q 133 953 113 933 q 183 972 154 972 q 216 966 199 972 q 242 947 233 960 l 799 222 l 778 203 l 778 907 q 796 953 778 935 q 842 972 814 972 m 614 -146 q 597 -203 614 -175 q 550 -250 579 -232 q 485 -268 521 -268 q 438 -255 453 -268 q 424 -229 424 -242 q 432 -206 424 -212 q 450 -199 440 -199 q 468 -202 457 -199 q 492 -206 479 -206 q 515 -194 506 -204 q 524 -164 524 -183 q 510 -147 524 -147 q 496 -153 500 -147 q 474 -158 492 -158 q 442 -145 454 -160 q 429 -108 429 -131 q 453 -62 429 -78 q 515 -47 476 -47 q 586 -73 558 -47 q 614 -146 614 -99 z "},"Ṅ":{"ha":1018,"x_min":113,"x_max":904,"o":"m 842 972 q 887 953 869 972 q 904 907 904 935 l 904 71 q 884 20 904 40 q 833 0 864 0 q 803 6 819 0 q 779 21 788 11 l 208 761 l 240 779 l 240 64 q 222 19 240 38 q 176 0 204 0 q 130 19 147 0 q 113 64 113 38 l 113 901 q 133 953 113 933 q 183 972 154 972 q 216 966 199 972 q 242 947 233 960 l 799 222 l 778 203 l 778 907 q 796 953 778 935 q 842 972 814 972 m 508 1042 q 450 1057 468 1042 q 432 1107 432 1072 l 432 1129 q 451 1179 432 1165 q 510 1193 471 1193 q 569 1179 551 1193 q 588 1129 588 1165 l 588 1107 q 569 1056 588 1071 q 508 1042 550 1042 z "},"Ṇ":{"ha":1018,"x_min":113,"x_max":904,"o":"m 842 972 q 887 953 869 972 q 904 907 904 935 l 904 71 q 884 20 904 40 q 833 0 864 0 q 803 6 819 0 q 779 21 788 11 l 208 761 l 240 779 l 240 64 q 222 19 240 38 q 176 0 204 0 q 130 19 147 0 q 113 64 113 38 l 113 901 q 133 953 113 933 q 183 972 154 972 q 216 966 199 972 q 242 947 233 960 l 799 222 l 778 203 l 778 907 q 796 953 778 935 q 842 972 814 972 m 508 -200 q 450 -185 468 -200 q 432 -136 432 -171 l 432 -114 q 451 -63 432 -78 q 508 -49 471 -49 q 569 -63 551 -49 q 588 -114 588 -78 l 588 -136 q 569 -186 588 -172 q 508 -200 550 -200 z "},"Ɲ":{"ha":1018,"x_min":-32,"x_max":904,"o":"m 33 -274 q -14 -254 4 -274 q -32 -208 -32 -235 q -17 -156 -32 -172 q 28 -132 -3 -140 q 78 -104 60 -124 q 105 -56 97 -85 q 113 6 113 -28 l 113 901 q 133 953 113 933 q 183 972 154 972 q 216 966 199 972 q 242 947 233 960 l 799 222 l 772 203 l 772 907 q 792 953 772 935 q 840 972 811 972 q 886 953 868 972 q 904 907 904 935 l 904 71 q 884 20 904 40 q 833 0 864 0 q 803 6 819 0 q 779 21 788 11 l 208 761 l 244 779 l 244 -31 q 226 -141 244 -97 q 181 -211 208 -185 q 123 -251 153 -237 q 68 -268 93 -264 q 33 -274 43 -272 z "},"ǋ":{"ha":1397,"x_min":113,"x_max":1281,"o":"m 842 972 q 887 953 869 972 q 904 907 904 935 l 904 71 q 884 20 904 40 q 833 0 864 0 q 803 6 819 0 q 779 21 788 11 l 208 761 l 240 779 l 240 64 q 222 19 240 38 q 176 0 204 0 q 130 19 147 0 q 113 64 113 38 l 113 901 q 133 953 113 933 q 183 972 154 972 q 216 966 199 972 q 242 947 233 960 l 799 222 l 778 203 l 778 907 q 796 953 778 935 q 842 972 814 972 m 1274 -31 q 1243 -160 1274 -106 q 1163 -243 1213 -214 q 1056 -272 1113 -272 q 1008 -253 1026 -272 q 990 -208 990 -235 l 990 -196 q 1008 -156 990 -171 q 1050 -132 1025 -140 q 1101 -103 1082 -122 q 1127 -56 1119 -85 q 1135 6 1135 -28 l 1135 661 q 1154 710 1135 690 q 1204 731 1174 731 q 1254 710 1235 731 q 1274 661 1274 690 l 1274 -31 m 1201 828 q 1143 842 1161 828 q 1125 892 1125 857 l 1125 914 q 1144 963 1125 949 q 1203 976 1164 976 q 1263 962 1244 976 q 1281 914 1281 947 l 1281 892 q 1262 842 1281 856 q 1201 828 1243 828 z "},"Ṉ":{"ha":1018,"x_min":113,"x_max":904,"o":"m 842 972 q 887 953 869 972 q 904 907 904 935 l 904 71 q 884 20 904 40 q 833 0 864 0 q 803 6 819 0 q 779 21 788 11 l 208 761 l 240 779 l 240 64 q 222 19 240 38 q 176 0 204 0 q 130 19 147 0 q 113 64 113 38 l 113 901 q 133 953 113 933 q 183 972 154 972 q 216 966 199 972 q 242 947 233 960 l 799 222 l 778 203 l 778 907 q 796 953 778 935 q 842 972 814 972 m 361 -199 q 301 -146 301 -199 q 361 -93 301 -93 l 682 -93 q 742 -146 742 -93 q 682 -199 742 -199 l 361 -199 z "},"Ñ":{"ha":1018,"x_min":113,"x_max":904,"o":"m 842 972 q 887 953 869 972 q 904 907 904 935 l 904 71 q 884 20 904 40 q 833 0 864 0 q 803 6 819 0 q 779 21 788 11 l 208 761 l 240 779 l 240 64 q 222 19 240 38 q 176 0 204 0 q 130 19 147 0 q 113 64 113 38 l 113 901 q 133 953 113 933 q 183 972 154 972 q 216 966 199 972 q 242 947 233 960 l 799 222 l 778 203 l 778 907 q 796 953 778 935 q 842 972 814 972 m 325 1039 q 281 1062 299 1039 q 264 1125 263 1085 q 304 1203 267 1169 q 407 1238 342 1238 q 488 1216 450 1238 q 560 1174 526 1194 q 618 1153 593 1153 q 644 1163 635 1153 q 651 1190 654 1174 q 659 1232 644 1217 q 694 1247 674 1247 q 740 1224 722 1247 q 757 1164 758 1201 q 741 1111 756 1138 q 699 1066 726 1085 q 631 1047 672 1047 q 544 1069 586 1047 q 465 1111 501 1090 q 404 1132 429 1132 q 378 1122 389 1132 q 368 1094 367 1113 q 360 1054 375 1069 q 325 1039 346 1039 z "},"Ŋ":{"ha":1046,"x_min":113,"x_max":932,"o":"m 688 -278 q 633 -261 654 -278 q 613 -217 613 -244 q 632 -169 613 -189 q 681 -149 651 -150 q 747 -136 722 -149 q 783 -98 772 -124 q 793 -35 793 -72 l 794 69 l 803 31 l 235 736 l 251 736 l 251 71 q 231 20 251 40 q 182 0 211 0 q 133 20 153 0 q 113 71 113 40 l 113 901 q 133 952 113 932 q 183 972 154 972 q 216 965 201 972 q 242 942 231 957 l 814 228 l 793 217 l 793 900 q 814 951 793 931 q 864 971 835 971 q 913 951 894 971 q 932 900 932 931 l 932 67 l 932 -29 q 900 -172 932 -117 q 813 -253 868 -228 q 688 -278 758 -278 z "},"O":{"ha":1057,"x_min":60,"x_max":999,"o":"m 999 486 q 964 290 999 381 q 866 131 929 199 q 717 24 803 63 q 528 -14 631 -14 q 340 24 426 -14 q 191 131 254 63 q 94 290 128 199 q 60 486 60 381 q 94 683 60 592 q 191 842 128 774 q 340 948 254 910 q 528 986 426 986 q 717 948 631 986 q 866 842 803 910 q 964 683 929 774 q 999 486 999 592 m 849 486 q 808 671 849 589 q 694 800 767 753 q 528 847 622 847 q 363 800 435 847 q 250 672 290 753 q 210 486 210 590 q 250 301 210 383 q 363 172 290 219 q 528 125 435 125 q 694 172 622 125 q 808 301 767 219 q 849 486 849 383 z "},"Ó":{"ha":1057,"x_min":60,"x_max":999,"o":"m 999 486 q 964 290 999 381 q 866 131 929 199 q 717 24 803 63 q 528 -14 631 -14 q 340 24 426 -14 q 191 131 254 63 q 94 290 128 199 q 60 486 60 381 q 94 683 60 592 q 191 842 128 774 q 340 948 254 910 q 528 986 426 986 q 717 948 631 986 q 866 842 803 910 q 964 683 929 774 q 999 486 999 592 m 849 486 q 808 671 849 589 q 694 800 767 753 q 528 847 622 847 q 363 800 435 847 q 250 672 290 753 q 210 486 210 590 q 250 301 210 383 q 363 172 290 219 q 528 125 435 125 q 694 172 622 125 q 808 301 767 219 q 849 486 849 383 m 532 1029 q 497 1041 510 1029 q 483 1071 483 1053 q 488 1088 483 1079 q 501 1104 493 1096 l 622 1206 q 650 1224 635 1217 q 681 1232 665 1232 q 724 1216 703 1232 q 744 1172 744 1200 q 733 1137 744 1154 q 701 1108 722 1119 l 563 1038 q 547 1031 556 1032 q 532 1029 539 1029 z "},"Ŏ":{"ha":1057,"x_min":60,"x_max":999,"o":"m 999 486 q 964 290 999 381 q 866 131 929 199 q 717 24 803 63 q 528 -14 631 -14 q 340 24 426 -14 q 191 131 254 63 q 94 290 128 199 q 60 486 60 381 q 94 683 60 592 q 191 842 128 774 q 340 948 254 910 q 528 986 426 986 q 717 948 631 986 q 866 842 803 910 q 964 683 929 774 q 999 486 999 592 m 849 486 q 808 671 849 589 q 694 800 767 753 q 528 847 622 847 q 363 800 435 847 q 250 672 290 753 q 210 486 210 590 q 250 301 210 383 q 363 172 290 219 q 528 125 435 125 q 694 172 622 125 q 808 301 767 219 q 849 486 849 383 m 529 1061 q 399 1096 454 1061 q 319 1193 343 1131 q 320 1241 308 1224 q 356 1258 332 1258 q 394 1247 381 1258 q 425 1215 408 1236 q 466 1176 440 1190 q 529 1163 492 1163 q 633 1215 603 1163 q 665 1247 650 1236 q 703 1258 679 1258 q 740 1242 728 1258 q 740 1196 751 1225 q 661 1096 717 1131 q 529 1061 606 1061 z "},"Ǒ":{"ha":1057,"x_min":60,"x_max":999,"o":"m 999 486 q 964 290 999 381 q 866 131 929 199 q 717 24 803 63 q 528 -14 631 -14 q 340 24 426 -14 q 191 131 254 63 q 94 290 128 199 q 60 486 60 381 q 94 683 60 592 q 191 842 128 774 q 340 948 254 910 q 528 986 426 986 q 717 948 631 986 q 866 842 803 910 q 964 683 929 774 q 999 486 999 592 m 849 486 q 808 671 849 589 q 694 800 767 753 q 528 847 622 847 q 363 800 435 847 q 250 672 290 753 q 210 486 210 590 q 250 301 210 383 q 363 172 290 219 q 528 125 435 125 q 694 172 622 125 q 808 301 767 219 q 849 486 849 383 m 508 1132 l 628 1215 q 661 1233 647 1228 q 688 1239 675 1239 q 714 1230 704 1239 q 724 1210 724 1221 q 720 1194 724 1201 q 706 1174 717 1186 l 613 1069 q 581 1043 597 1051 q 540 1035 564 1035 l 521 1035 q 481 1043 497 1035 q 449 1069 464 1051 l 354 1174 q 341 1193 344 1186 q 338 1208 338 1200 q 348 1229 338 1219 q 374 1239 358 1239 q 433 1215 397 1239 l 553 1133 l 508 1132 z "},"Ô":{"ha":1057,"x_min":60,"x_max":999,"o":"m 999 486 q 964 290 999 381 q 866 131 929 199 q 717 24 803 63 q 528 -14 631 -14 q 340 24 426 -14 q 191 131 254 63 q 94 290 128 199 q 60 486 60 381 q 94 683 60 592 q 191 842 128 774 q 340 948 254 910 q 528 986 426 986 q 717 948 631 986 q 866 842 803 910 q 964 683 929 774 q 999 486 999 592 m 849 486 q 808 671 849 589 q 694 800 767 753 q 528 847 622 847 q 363 800 435 847 q 250 672 290 753 q 210 486 210 590 q 250 301 210 383 q 363 172 290 219 q 528 125 435 125 q 694 172 622 125 q 808 301 767 219 q 849 486 849 383 m 550 1142 l 432 1064 q 398 1045 413 1053 q 372 1038 383 1038 q 346 1047 357 1038 q 335 1068 335 1057 q 339 1085 335 1078 q 353 1103 343 1092 l 447 1208 q 478 1234 463 1225 q 518 1243 494 1243 l 539 1243 q 578 1234 563 1243 q 611 1208 594 1225 l 704 1104 q 719 1085 715 1092 q 722 1068 722 1078 q 712 1047 722 1057 q 686 1038 701 1038 q 660 1045 674 1038 q 626 1064 646 1053 l 507 1140 l 550 1142 z "},"Ố":{"ha":1057,"x_min":60,"x_max":999,"o":"m 999 486 q 964 290 999 381 q 866 131 929 199 q 717 24 803 63 q 528 -14 631 -14 q 340 24 426 -14 q 191 131 254 63 q 94 290 128 199 q 60 486 60 381 q 94 683 60 592 q 191 842 128 774 q 340 948 254 910 q 528 986 426 986 q 717 948 631 986 q 866 842 803 910 q 964 683 929 774 q 999 486 999 592 m 849 486 q 808 671 849 589 q 694 800 767 753 q 528 847 622 847 q 363 800 435 847 q 250 672 290 753 q 210 486 210 590 q 250 301 210 383 q 363 172 290 219 q 528 125 435 125 q 694 172 622 125 q 808 301 767 219 q 849 486 849 383 m 550 1142 l 432 1064 q 398 1045 413 1053 q 372 1038 383 1038 q 346 1047 357 1038 q 335 1068 335 1057 q 339 1085 335 1078 q 353 1103 343 1092 l 447 1208 q 478 1234 463 1225 q 518 1243 494 1243 l 539 1243 q 578 1234 563 1243 q 611 1208 594 1225 l 704 1104 q 719 1085 715 1092 q 722 1068 722 1078 q 712 1047 722 1057 q 686 1038 701 1038 q 660 1045 674 1038 q 626 1064 646 1053 l 507 1140 l 550 1142 m 749 1143 q 713 1155 726 1143 q 700 1185 700 1167 q 705 1201 700 1193 q 718 1218 710 1210 l 839 1319 q 867 1338 851 1331 q 897 1346 882 1346 q 940 1330 919 1346 q 961 1286 961 1314 q 950 1251 961 1268 q 918 1222 939 1233 l 779 1151 q 764 1144 772 1146 q 749 1143 756 1143 z "},"Ộ":{"ha":1057,"x_min":60,"x_max":999,"o":"m 999 486 q 964 290 999 381 q 866 131 929 199 q 717 24 803 63 q 528 -14 631 -14 q 340 24 426 -14 q 191 131 254 63 q 94 290 128 199 q 60 486 60 381 q 94 683 60 592 q 191 842 128 774 q 340 948 254 910 q 528 986 426 986 q 717 948 631 986 q 866 842 803 910 q 964 683 929 774 q 999 486 999 592 m 849 486 q 808 671 849 589 q 694 800 767 753 q 528 847 622 847 q 363 800 435 847 q 250 672 290 753 q 210 486 210 590 q 250 301 210 383 q 363 172 290 219 q 528 125 435 125 q 694 172 622 125 q 808 301 767 219 q 849 486 849 383 m 528 -200 q 469 -185 488 -200 q 451 -136 451 -171 l 451 -114 q 471 -63 451 -78 q 528 -49 490 -49 q 589 -63 571 -49 q 607 -114 607 -78 l 607 -136 q 588 -186 607 -172 q 528 -200 569 -200 m 550 1142 l 432 1064 q 398 1045 413 1053 q 372 1038 383 1038 q 346 1047 357 1038 q 335 1068 335 1057 q 339 1085 335 1078 q 353 1103 343 1092 l 447 1208 q 478 1234 463 1225 q 518 1243 494 1243 l 539 1243 q 578 1234 563 1243 q 611 1208 594 1225 l 704 1104 q 719 1085 715 1092 q 722 1068 722 1078 q 712 1047 722 1057 q 686 1038 701 1038 q 660 1045 674 1038 q 626 1064 646 1053 l 507 1140 l 550 1142 z "},"Ồ":{"ha":1057,"x_min":60,"x_max":999,"o":"m 999 486 q 964 290 999 381 q 866 131 929 199 q 717 24 803 63 q 528 -14 631 -14 q 340 24 426 -14 q 191 131 254 63 q 94 290 128 199 q 60 486 60 381 q 94 683 60 592 q 191 842 128 774 q 340 948 254 910 q 528 986 426 986 q 717 948 631 986 q 866 842 803 910 q 964 683 929 774 q 999 486 999 592 m 849 486 q 808 671 849 589 q 694 800 767 753 q 528 847 622 847 q 363 800 435 847 q 250 672 290 753 q 210 486 210 590 q 250 301 210 383 q 363 172 290 219 q 528 125 435 125 q 694 172 622 125 q 808 301 767 219 q 849 486 849 383 m 550 1142 l 432 1064 q 398 1045 413 1053 q 372 1038 383 1038 q 346 1047 357 1038 q 335 1068 335 1057 q 339 1085 335 1078 q 353 1103 343 1092 l 447 1208 q 478 1234 463 1225 q 518 1243 494 1243 l 539 1243 q 578 1234 563 1243 q 611 1208 594 1225 l 704 1104 q 719 1085 715 1092 q 722 1068 722 1078 q 712 1047 722 1057 q 686 1038 701 1038 q 660 1045 674 1038 q 626 1064 646 1053 l 507 1140 l 550 1142 m 743 1213 q 728 1215 736 1213 q 713 1221 721 1217 l 575 1292 q 531 1356 531 1315 q 551 1399 531 1383 q 594 1415 572 1415 q 626 1408 611 1415 q 653 1389 642 1400 l 774 1288 q 788 1271 783 1279 q 792 1254 792 1263 q 778 1224 792 1236 q 743 1213 765 1213 z "},"Ổ":{"ha":1057,"x_min":60,"x_max":999,"o":"m 999 486 q 964 290 999 381 q 866 131 929 199 q 717 24 803 63 q 528 -14 631 -14 q 340 24 426 -14 q 191 131 254 63 q 94 290 128 199 q 60 486 60 381 q 94 683 60 592 q 191 842 128 774 q 340 948 254 910 q 528 986 426 986 q 717 948 631 986 q 866 842 803 910 q 964 683 929 774 q 999 486 999 592 m 849 486 q 808 671 849 589 q 694 800 767 753 q 528 847 622 847 q 363 800 435 847 q 250 672 290 753 q 210 486 210 590 q 250 301 210 383 q 363 172 290 219 q 528 125 435 125 q 694 172 622 125 q 808 301 767 219 q 849 486 849 383 m 551 1176 l 440 1083 q 415 1063 425 1071 q 383 1056 404 1056 q 358 1065 368 1056 q 347 1086 347 1074 q 350 1103 347 1094 q 363 1122 353 1111 l 442 1217 q 513 1251 468 1251 l 554 1251 q 592 1244 578 1251 q 618 1217 606 1236 l 693 1122 q 704 1103 701 1111 q 707 1086 707 1096 q 697 1065 707 1074 q 672 1056 688 1056 q 640 1063 650 1056 q 614 1085 631 1071 l 494 1186 l 551 1176 m 615 1381 q 663 1410 638 1399 q 724 1421 688 1421 q 806 1403 776 1421 q 845 1358 835 1385 q 856 1307 856 1331 q 847 1266 856 1283 q 824 1229 839 1249 q 803 1204 811 1215 q 794 1181 796 1193 q 783 1157 794 1167 q 754 1147 771 1147 q 725 1157 738 1147 q 713 1182 713 1167 q 718 1208 713 1194 q 735 1236 724 1222 q 758 1268 747 1253 q 769 1297 769 1283 q 755 1326 769 1315 q 721 1336 740 1336 q 688 1328 703 1336 q 661 1311 674 1321 q 636 1303 650 1304 q 607 1318 622 1303 q 597 1352 592 1335 q 615 1381 603 1369 z "},"Ỗ":{"ha":1057,"x_min":60,"x_max":999,"o":"m 999 486 q 964 290 999 381 q 866 131 929 199 q 717 24 803 63 q 528 -14 631 -14 q 340 24 426 -14 q 191 131 254 63 q 94 290 128 199 q 60 486 60 381 q 94 683 60 592 q 191 842 128 774 q 340 948 254 910 q 528 986 426 986 q 717 948 631 986 q 866 842 803 910 q 964 683 929 774 q 999 486 999 592 m 849 486 q 808 671 849 589 q 694 800 767 753 q 528 847 622 847 q 363 800 435 847 q 250 672 290 753 q 210 486 210 590 q 250 301 210 383 q 363 172 290 219 q 528 125 435 125 q 694 172 622 125 q 808 301 767 219 q 849 486 849 383 m 550 1142 l 432 1064 q 398 1045 413 1053 q 372 1038 383 1038 q 346 1047 357 1038 q 335 1068 335 1057 q 339 1085 335 1078 q 353 1103 343 1092 l 447 1208 q 478 1234 463 1225 q 518 1243 494 1243 l 539 1243 q 578 1234 563 1243 q 611 1208 594 1225 l 704 1104 q 719 1085 715 1092 q 722 1068 722 1078 q 712 1047 722 1057 q 686 1038 701 1038 q 660 1045 674 1038 q 626 1064 646 1053 l 507 1140 l 550 1142 m 354 1243 q 310 1266 328 1243 q 293 1329 292 1289 q 333 1408 296 1374 q 436 1442 371 1442 q 517 1420 479 1442 q 589 1378 556 1399 q 647 1357 622 1357 q 674 1367 664 1357 q 681 1394 683 1378 q 688 1436 674 1421 q 724 1451 703 1451 q 769 1428 751 1451 q 786 1368 788 1406 q 770 1315 785 1342 q 728 1270 756 1289 q 660 1251 701 1251 q 573 1273 615 1251 q 494 1315 531 1294 q 433 1336 458 1336 q 407 1326 418 1336 q 397 1299 396 1317 q 390 1258 404 1274 q 354 1243 375 1243 z "},"Ȍ":{"ha":1057,"x_min":60,"x_max":999,"o":"m 999 486 q 964 290 999 381 q 866 131 929 199 q 717 24 803 63 q 528 -14 631 -14 q 340 24 426 -14 q 191 131 254 63 q 94 290 128 199 q 60 486 60 381 q 94 683 60 592 q 191 842 128 774 q 340 948 254 910 q 528 986 426 986 q 717 948 631 986 q 866 842 803 910 q 964 683 929 774 q 999 486 999 592 m 849 486 q 808 671 849 589 q 694 800 767 753 q 528 847 622 847 q 363 800 435 847 q 250 672 290 753 q 210 486 210 590 q 250 301 210 383 q 363 172 290 219 q 528 125 435 125 q 694 172 622 125 q 808 301 767 219 q 849 486 849 383 m 414 1046 q 399 1049 407 1046 q 383 1054 392 1051 l 246 1126 q 201 1190 201 1150 q 222 1233 201 1217 q 265 1249 243 1249 q 297 1241 282 1249 q 324 1224 313 1233 l 444 1121 q 458 1105 454 1113 q 463 1088 463 1097 q 449 1058 463 1069 q 414 1046 436 1046 m 683 1056 q 667 1058 675 1056 q 651 1064 660 1060 l 514 1135 q 471 1199 471 1158 q 491 1242 471 1226 q 533 1258 511 1258 q 565 1251 550 1258 q 592 1232 581 1243 l 713 1131 q 726 1114 722 1122 q 731 1097 731 1106 q 718 1067 731 1079 q 683 1056 706 1056 z "},"Ö":{"ha":1057,"x_min":60,"x_max":999,"o":"m 999 486 q 964 290 999 381 q 866 131 929 199 q 717 24 803 63 q 528 -14 631 -14 q 340 24 426 -14 q 191 131 254 63 q 94 290 128 199 q 60 486 60 381 q 94 683 60 592 q 191 842 128 774 q 340 948 254 910 q 528 986 426 986 q 717 948 631 986 q 866 842 803 910 q 964 683 929 774 q 999 486 999 592 m 849 486 q 808 671 849 589 q 694 800 767 753 q 528 847 622 847 q 363 800 435 847 q 250 672 290 753 q 210 486 210 590 q 250 301 210 383 q 363 172 290 219 q 528 125 435 125 q 694 172 622 125 q 808 301 767 219 q 849 486 849 383 m 660 1063 q 603 1078 622 1063 q 585 1128 585 1093 l 585 1149 q 604 1199 585 1185 q 660 1214 624 1214 q 719 1199 700 1214 q 738 1149 738 1183 l 738 1128 q 718 1077 738 1092 q 660 1063 699 1063 m 396 1063 q 340 1078 358 1063 q 321 1128 321 1093 l 321 1149 q 340 1199 321 1185 q 397 1214 360 1214 q 455 1199 436 1214 q 474 1149 474 1183 l 474 1128 q 454 1077 474 1092 q 396 1063 435 1063 z "},"Ȫ":{"ha":1057,"x_min":60,"x_max":999,"o":"m 999 486 q 964 290 999 381 q 866 131 929 199 q 717 24 803 63 q 528 -14 631 -14 q 340 24 426 -14 q 191 131 254 63 q 94 290 128 199 q 60 486 60 381 q 94 683 60 592 q 191 842 128 774 q 340 948 254 910 q 528 986 426 986 q 717 948 631 986 q 866 842 803 910 q 964 683 929 774 q 999 486 999 592 m 849 486 q 808 671 849 589 q 694 800 767 753 q 528 847 622 847 q 363 800 435 847 q 250 672 290 753 q 210 486 210 590 q 250 301 210 383 q 363 172 290 219 q 528 125 435 125 q 694 172 622 125 q 808 301 767 219 q 849 486 849 383 m 660 1063 q 603 1078 622 1063 q 585 1128 585 1093 l 585 1149 q 604 1199 585 1185 q 660 1214 624 1214 q 719 1199 700 1214 q 738 1149 738 1183 l 738 1128 q 718 1077 738 1092 q 660 1063 699 1063 m 396 1063 q 340 1078 358 1063 q 321 1128 321 1093 l 321 1149 q 340 1199 321 1185 q 397 1214 360 1214 q 455 1199 436 1214 q 474 1149 474 1183 l 474 1128 q 454 1077 474 1092 q 396 1063 435 1063 m 360 1321 q 300 1375 300 1321 q 360 1428 300 1428 l 701 1428 q 761 1375 761 1428 q 701 1321 761 1321 l 360 1321 z "},"Ȱ":{"ha":1057,"x_min":60,"x_max":999,"o":"m 999 486 q 964 290 999 381 q 866 131 929 199 q 717 24 803 63 q 528 -14 631 -14 q 340 24 426 -14 q 191 131 254 63 q 94 290 128 199 q 60 486 60 381 q 94 683 60 592 q 191 842 128 774 q 340 948 254 910 q 528 986 426 986 q 717 948 631 986 q 866 842 803 910 q 964 683 929 774 q 999 486 999 592 m 849 486 q 808 671 849 589 q 694 800 767 753 q 528 847 622 847 q 363 800 435 847 q 250 672 290 753 q 210 486 210 590 q 250 301 210 383 q 363 172 290 219 q 528 125 435 125 q 694 172 622 125 q 808 301 767 219 q 849 486 849 383 m 528 1042 q 469 1057 488 1042 q 451 1107 451 1072 l 451 1129 q 471 1179 451 1165 q 529 1193 490 1193 q 589 1179 571 1193 q 607 1129 607 1165 l 607 1107 q 588 1056 607 1071 q 528 1042 569 1042 m 360 1322 q 300 1376 300 1322 q 360 1429 300 1429 l 701 1429 q 761 1376 761 1429 q 701 1322 761 1322 l 360 1322 z "},"Ọ":{"ha":1057,"x_min":60,"x_max":999,"o":"m 999 486 q 964 290 999 381 q 866 131 929 199 q 717 24 803 63 q 528 -14 631 -14 q 340 24 426 -14 q 191 131 254 63 q 94 290 128 199 q 60 486 60 381 q 94 683 60 592 q 191 842 128 774 q 340 948 254 910 q 528 986 426 986 q 717 948 631 986 q 866 842 803 910 q 964 683 929 774 q 999 486 999 592 m 849 486 q 808 671 849 589 q 694 800 767 753 q 528 847 622 847 q 363 800 435 847 q 250 672 290 753 q 210 486 210 590 q 250 301 210 383 q 363 172 290 219 q 528 125 435 125 q 694 172 622 125 q 808 301 767 219 q 849 486 849 383 m 528 -200 q 469 -185 488 -200 q 451 -136 451 -171 l 451 -114 q 471 -63 451 -78 q 528 -49 490 -49 q 589 -63 571 -49 q 607 -114 607 -78 l 607 -136 q 588 -186 607 -172 q 528 -200 569 -200 z "},"Ò":{"ha":1057,"x_min":60,"x_max":999,"o":"m 999 486 q 964 290 999 381 q 866 131 929 199 q 717 24 803 63 q 528 -14 631 -14 q 340 24 426 -14 q 191 131 254 63 q 94 290 128 199 q 60 486 60 381 q 94 683 60 592 q 191 842 128 774 q 340 948 254 910 q 528 986 426 986 q 717 948 631 986 q 866 842 803 910 q 964 683 929 774 q 999 486 999 592 m 849 486 q 808 671 849 589 q 694 800 767 753 q 528 847 622 847 q 363 800 435 847 q 250 672 290 753 q 210 486 210 590 q 250 301 210 383 q 363 172 290 219 q 528 125 435 125 q 694 172 622 125 q 808 301 767 219 q 849 486 849 383 m 526 1033 q 512 1035 519 1033 q 496 1042 504 1038 l 358 1113 q 314 1176 314 1136 q 335 1220 314 1204 q 378 1236 356 1236 q 410 1228 394 1236 q 436 1210 425 1221 l 557 1108 q 571 1092 567 1100 q 575 1075 575 1083 q 562 1045 575 1057 q 526 1033 549 1033 z "},"Ỏ":{"ha":1057,"x_min":60,"x_max":999,"o":"m 999 486 q 964 290 999 381 q 866 131 929 199 q 717 24 803 63 q 528 -14 631 -14 q 340 24 426 -14 q 191 131 254 63 q 94 290 128 199 q 60 486 60 381 q 94 683 60 592 q 191 842 128 774 q 340 948 254 910 q 528 986 426 986 q 717 948 631 986 q 866 842 803 910 q 964 683 929 774 q 999 486 999 592 m 849 486 q 808 671 849 589 q 694 800 767 753 q 528 847 622 847 q 363 800 435 847 q 250 672 290 753 q 210 486 210 590 q 250 301 210 383 q 363 172 290 219 q 528 125 435 125 q 694 172 622 125 q 808 301 767 219 q 849 486 849 383 m 404 1278 q 451 1307 426 1296 q 513 1318 476 1318 q 594 1300 565 1318 q 635 1255 624 1282 q 646 1204 646 1228 q 638 1163 646 1181 q 613 1126 629 1146 q 592 1101 600 1113 q 585 1078 585 1090 q 570 1057 583 1064 q 536 1050 557 1050 q 513 1057 525 1050 q 501 1079 501 1064 q 507 1106 501 1092 q 524 1133 513 1119 q 547 1165 536 1150 q 558 1194 558 1181 q 544 1223 558 1213 q 510 1233 529 1233 q 477 1226 492 1233 q 450 1208 463 1218 q 426 1201 440 1201 q 396 1215 413 1200 q 387 1249 382 1232 q 404 1278 392 1267 z "},"Ơ":{"ha":1057,"x_min":60,"x_max":999,"o":"m 999 486 q 964 290 999 381 q 866 131 929 199 q 717 24 803 63 q 528 -14 631 -14 q 340 24 426 -14 q 191 131 254 63 q 94 290 128 199 q 60 486 60 381 q 94 683 60 592 q 191 842 128 774 q 340 948 254 910 q 528 986 426 986 q 717 948 631 986 q 866 842 803 910 q 964 683 929 774 q 999 486 999 592 m 849 486 q 808 671 849 589 q 694 800 767 753 q 528 847 622 847 q 363 800 435 847 q 250 672 290 753 q 210 486 210 590 q 250 301 210 383 q 363 172 290 219 q 528 125 435 125 q 694 172 622 125 q 808 301 767 219 q 849 486 849 383 m 633 853 l 633 969 q 724 992 692 969 q 756 1063 756 1014 q 771 1107 756 1086 q 815 1128 786 1128 q 860 1106 849 1128 q 872 1063 872 1083 q 847 956 872 1004 q 769 881 821 908 q 633 853 717 853 z "},"Ớ":{"ha":1057,"x_min":60,"x_max":999,"o":"m 999 486 q 964 290 999 381 q 866 131 929 199 q 717 24 803 63 q 528 -14 631 -14 q 340 24 426 -14 q 191 131 254 63 q 94 290 128 199 q 60 486 60 381 q 94 683 60 592 q 191 842 128 774 q 340 948 254 910 q 528 986 426 986 q 717 948 631 986 q 866 842 803 910 q 964 683 929 774 q 999 486 999 592 m 849 486 q 808 671 849 589 q 694 800 767 753 q 528 847 622 847 q 363 800 435 847 q 250 672 290 753 q 210 486 210 590 q 250 301 210 383 q 363 172 290 219 q 528 125 435 125 q 694 172 622 125 q 808 301 767 219 q 849 486 849 383 m 633 853 l 633 969 q 724 992 692 969 q 756 1063 756 1014 q 771 1107 756 1086 q 815 1128 786 1128 q 860 1106 849 1128 q 872 1063 872 1083 q 847 956 872 1004 q 769 881 821 908 q 633 853 717 853 m 532 1029 q 497 1041 510 1029 q 483 1071 483 1053 q 488 1088 483 1079 q 501 1104 493 1096 l 622 1206 q 650 1224 635 1217 q 681 1232 665 1232 q 724 1216 703 1232 q 744 1172 744 1200 q 733 1137 744 1154 q 701 1108 722 1119 l 563 1038 q 547 1031 556 1032 q 532 1029 539 1029 z "},"Ợ":{"ha":1057,"x_min":60,"x_max":999,"o":"m 999 486 q 964 290 999 381 q 866 131 929 199 q 717 24 803 63 q 528 -14 631 -14 q 340 24 426 -14 q 191 131 254 63 q 94 290 128 199 q 60 486 60 381 q 94 683 60 592 q 191 842 128 774 q 340 948 254 910 q 528 986 426 986 q 717 948 631 986 q 866 842 803 910 q 964 683 929 774 q 999 486 999 592 m 849 486 q 808 671 849 589 q 694 800 767 753 q 528 847 622 847 q 363 800 435 847 q 250 672 290 753 q 210 486 210 590 q 250 301 210 383 q 363 172 290 219 q 528 125 435 125 q 694 172 622 125 q 808 301 767 219 q 849 486 849 383 m 633 853 l 633 969 q 724 992 692 969 q 756 1063 756 1014 q 771 1107 756 1086 q 815 1128 786 1128 q 860 1106 849 1128 q 872 1063 872 1083 q 847 956 872 1004 q 769 881 821 908 q 633 853 717 853 m 528 -200 q 469 -185 488 -200 q 451 -136 451 -171 l 451 -114 q 471 -63 451 -78 q 528 -49 490 -49 q 589 -63 571 -49 q 607 -114 607 -78 l 607 -136 q 588 -186 607 -172 q 528 -200 569 -200 z "},"Ờ":{"ha":1057,"x_min":60,"x_max":999,"o":"m 999 486 q 964 290 999 381 q 866 131 929 199 q 717 24 803 63 q 528 -14 631 -14 q 340 24 426 -14 q 191 131 254 63 q 94 290 128 199 q 60 486 60 381 q 94 683 60 592 q 191 842 128 774 q 340 948 254 910 q 528 986 426 986 q 717 948 631 986 q 866 842 803 910 q 964 683 929 774 q 999 486 999 592 m 849 486 q 808 671 849 589 q 694 800 767 753 q 528 847 622 847 q 363 800 435 847 q 250 672 290 753 q 210 486 210 590 q 250 301 210 383 q 363 172 290 219 q 528 125 435 125 q 694 172 622 125 q 808 301 767 219 q 849 486 849 383 m 633 853 l 633 969 q 724 992 692 969 q 756 1063 756 1014 q 771 1107 756 1086 q 815 1128 786 1128 q 860 1106 849 1128 q 872 1063 872 1083 q 847 956 872 1004 q 769 881 821 908 q 633 853 717 853 m 526 1033 q 512 1035 519 1033 q 496 1042 504 1038 l 358 1113 q 314 1176 314 1136 q 335 1220 314 1204 q 378 1236 356 1236 q 410 1228 394 1236 q 436 1210 425 1221 l 557 1108 q 571 1092 567 1100 q 575 1075 575 1083 q 562 1045 575 1057 q 526 1033 549 1033 z "},"Ở":{"ha":1057,"x_min":60,"x_max":999,"o":"m 999 486 q 964 290 999 381 q 866 131 929 199 q 717 24 803 63 q 528 -14 631 -14 q 340 24 426 -14 q 191 131 254 63 q 94 290 128 199 q 60 486 60 381 q 94 683 60 592 q 191 842 128 774 q 340 948 254 910 q 528 986 426 986 q 717 948 631 986 q 866 842 803 910 q 964 683 929 774 q 999 486 999 592 m 849 486 q 808 671 849 589 q 694 800 767 753 q 528 847 622 847 q 363 800 435 847 q 250 672 290 753 q 210 486 210 590 q 250 301 210 383 q 363 172 290 219 q 528 125 435 125 q 694 172 622 125 q 808 301 767 219 q 849 486 849 383 m 633 853 l 633 969 q 724 992 692 969 q 756 1063 756 1014 q 771 1107 756 1086 q 815 1128 786 1128 q 860 1106 849 1128 q 872 1063 872 1083 q 847 956 872 1004 q 769 881 821 908 q 633 853 717 853 m 404 1278 q 451 1307 426 1296 q 513 1318 476 1318 q 594 1300 565 1318 q 635 1255 624 1282 q 646 1204 646 1228 q 638 1163 646 1181 q 613 1126 629 1146 q 592 1101 600 1113 q 585 1078 585 1090 q 570 1057 583 1064 q 536 1050 557 1050 q 513 1057 525 1050 q 501 1079 501 1064 q 507 1106 501 1092 q 524 1133 513 1119 q 547 1165 536 1150 q 558 1194 558 1181 q 544 1223 558 1213 q 510 1233 529 1233 q 477 1226 492 1233 q 450 1208 463 1218 q 426 1201 440 1201 q 396 1215 413 1200 q 387 1249 382 1232 q 404 1278 392 1267 z "},"Ỡ":{"ha":1057,"x_min":60,"x_max":999,"o":"m 999 486 q 964 290 999 381 q 866 131 929 199 q 717 24 803 63 q 528 -14 631 -14 q 340 24 426 -14 q 191 131 254 63 q 94 290 128 199 q 60 486 60 381 q 94 683 60 592 q 191 842 128 774 q 340 948 254 910 q 528 986 426 986 q 717 948 631 986 q 866 842 803 910 q 964 683 929 774 q 999 486 999 592 m 849 486 q 808 671 849 589 q 694 800 767 753 q 528 847 622 847 q 363 800 435 847 q 250 672 290 753 q 210 486 210 590 q 250 301 210 383 q 363 172 290 219 q 528 125 435 125 q 694 172 622 125 q 808 301 767 219 q 849 486 849 383 m 633 853 l 633 969 q 724 992 692 969 q 756 1063 756 1014 q 771 1107 756 1086 q 815 1128 786 1128 q 860 1106 849 1128 q 872 1063 872 1083 q 847 956 872 1004 q 769 881 821 908 q 633 853 717 853 m 326 1056 q 282 1078 300 1056 q 265 1142 264 1101 q 306 1220 268 1186 q 408 1254 343 1254 q 490 1233 451 1254 q 561 1190 528 1211 q 619 1169 594 1169 q 646 1180 636 1169 q 653 1207 656 1190 q 660 1249 646 1233 q 696 1264 675 1264 q 742 1241 724 1264 q 758 1181 760 1218 q 742 1128 757 1154 q 701 1083 728 1101 q 632 1064 674 1064 q 545 1085 588 1064 q 467 1128 503 1107 q 406 1149 431 1149 q 379 1139 390 1149 q 369 1111 368 1129 q 362 1071 376 1086 q 326 1056 347 1056 z "},"Ő":{"ha":1057,"x_min":60,"x_max":999,"o":"m 999 486 q 964 290 999 381 q 866 131 929 199 q 717 24 803 63 q 528 -14 631 -14 q 340 24 426 -14 q 191 131 254 63 q 94 290 128 199 q 60 486 60 381 q 94 683 60 592 q 191 842 128 774 q 340 948 254 910 q 528 986 426 986 q 717 948 631 986 q 866 842 803 910 q 964 683 929 774 q 999 486 999 592 m 849 486 q 808 671 849 589 q 694 800 767 753 q 528 847 622 847 q 363 800 435 847 q 250 672 290 753 q 210 486 210 590 q 250 301 210 383 q 363 172 290 219 q 528 125 435 125 q 694 172 622 125 q 808 301 767 219 q 849 486 849 383 m 399 1068 q 365 1099 365 1068 q 381 1139 365 1117 l 444 1238 q 468 1265 454 1254 q 503 1276 482 1276 q 551 1259 531 1276 q 571 1217 571 1242 q 565 1195 571 1206 q 550 1175 560 1185 l 472 1099 q 439 1076 456 1083 q 399 1068 422 1068 m 640 1068 q 607 1097 607 1068 q 622 1139 607 1115 l 688 1239 q 710 1263 697 1254 q 746 1272 724 1272 q 790 1260 767 1272 q 813 1219 813 1247 q 807 1196 813 1207 q 792 1175 801 1185 l 714 1099 q 681 1076 697 1083 q 640 1068 664 1068 z "},"Ȏ":{"ha":1057,"x_min":60,"x_max":999,"o":"m 999 486 q 964 290 999 381 q 866 131 929 199 q 717 24 803 63 q 528 -14 631 -14 q 340 24 426 -14 q 191 131 254 63 q 94 290 128 199 q 60 486 60 381 q 94 683 60 592 q 191 842 128 774 q 340 948 254 910 q 528 986 426 986 q 717 948 631 986 q 866 842 803 910 q 964 683 929 774 q 999 486 999 592 m 849 486 q 808 671 849 589 q 694 800 767 753 q 528 847 622 847 q 363 800 435 847 q 250 672 290 753 q 210 486 210 590 q 250 301 210 383 q 363 172 290 219 q 528 125 435 125 q 694 172 622 125 q 808 301 767 219 q 849 486 849 383 m 529 1260 q 622 1244 581 1260 q 693 1198 664 1228 q 735 1128 722 1168 q 735 1083 747 1100 q 699 1065 722 1065 q 659 1077 674 1065 q 629 1110 644 1089 q 590 1146 615 1133 q 529 1158 565 1158 q 467 1146 492 1158 q 429 1110 442 1133 q 400 1077 415 1089 q 358 1065 385 1065 q 324 1082 336 1065 q 321 1126 311 1099 q 364 1198 335 1168 q 435 1244 393 1228 q 529 1260 478 1260 z "},"Ō":{"ha":1057,"x_min":60,"x_max":999,"o":"m 999 486 q 964 290 999 381 q 866 131 929 199 q 717 24 803 63 q 528 -14 631 -14 q 340 24 426 -14 q 191 131 254 63 q 94 290 128 199 q 60 486 60 381 q 94 683 60 592 q 191 842 128 774 q 340 948 254 910 q 528 986 426 986 q 717 948 631 986 q 866 842 803 910 q 964 683 929 774 q 999 486 999 592 m 849 486 q 808 671 849 589 q 694 800 767 753 q 528 847 622 847 q 363 800 435 847 q 250 672 290 753 q 210 486 210 590 q 250 301 210 383 q 363 172 290 219 q 528 125 435 125 q 694 172 622 125 q 808 301 767 219 q 849 486 849 383 m 360 1058 q 300 1113 300 1058 q 360 1165 300 1165 l 701 1165 q 761 1113 761 1165 q 701 1058 761 1058 l 360 1058 z "},"Ṓ":{"ha":1057,"x_min":60,"x_max":999,"o":"m 999 486 q 964 290 999 381 q 866 131 929 199 q 717 24 803 63 q 528 -14 631 -14 q 340 24 426 -14 q 191 131 254 63 q 94 290 128 199 q 60 486 60 381 q 94 683 60 592 q 191 842 128 774 q 340 948 254 910 q 528 986 426 986 q 717 948 631 986 q 866 842 803 910 q 964 683 929 774 q 999 486 999 592 m 849 486 q 808 671 849 589 q 694 800 767 753 q 528 847 622 847 q 363 800 435 847 q 250 672 290 753 q 210 486 210 590 q 250 301 210 383 q 363 172 290 219 q 528 125 435 125 q 694 172 622 125 q 808 301 767 219 q 849 486 849 383 m 360 1058 q 300 1113 300 1058 q 360 1165 300 1165 l 701 1165 q 761 1113 761 1165 q 701 1058 761 1058 l 360 1058 m 532 1257 q 497 1269 510 1257 q 483 1299 483 1281 q 488 1315 483 1307 q 501 1332 493 1324 l 622 1433 q 650 1452 635 1444 q 681 1460 665 1460 q 724 1444 703 1460 q 744 1400 744 1428 q 733 1365 744 1382 q 701 1336 722 1347 l 563 1265 q 547 1258 556 1260 q 532 1257 539 1257 z "},"Ṑ":{"ha":1057,"x_min":60,"x_max":999,"o":"m 999 486 q 964 290 999 381 q 866 131 929 199 q 717 24 803 63 q 528 -14 631 -14 q 340 24 426 -14 q 191 131 254 63 q 94 290 128 199 q 60 486 60 381 q 94 683 60 592 q 191 842 128 774 q 340 948 254 910 q 528 986 426 986 q 717 948 631 986 q 866 842 803 910 q 964 683 929 774 q 999 486 999 592 m 849 486 q 808 671 849 589 q 694 800 767 753 q 528 847 622 847 q 363 800 435 847 q 250 672 290 753 q 210 486 210 590 q 250 301 210 383 q 363 172 290 219 q 528 125 435 125 q 694 172 622 125 q 808 301 767 219 q 849 486 849 383 m 360 1058 q 300 1113 300 1058 q 360 1165 300 1165 l 701 1165 q 761 1113 761 1165 q 701 1058 761 1058 l 360 1058 m 526 1261 q 512 1263 519 1261 q 496 1269 504 1265 l 358 1340 q 314 1404 314 1364 q 335 1448 314 1432 q 378 1464 356 1464 q 410 1456 394 1464 q 436 1438 425 1449 l 557 1336 q 571 1319 567 1328 q 575 1303 575 1311 q 562 1273 575 1285 q 526 1261 549 1261 z "},"Ǫ":{"ha":1057,"x_min":60,"x_max":999,"o":"m 574 -279 q 465 -244 511 -279 q 418 -136 418 -208 q 439 -49 418 -86 q 492 15 460 -11 q 564 57 525 40 q 639 85 603 74 l 678 11 q 597 -19 628 0 q 550 -62 565 -39 q 535 -111 535 -85 q 551 -155 535 -140 q 586 -169 567 -169 q 604 -166 596 -169 q 618 -156 613 -162 q 644 -135 629 -140 q 669 -129 660 -129 q 705 -144 690 -129 q 719 -185 719 -158 q 699 -228 719 -206 q 646 -265 679 -250 q 574 -279 613 -279 m 999 486 q 964 290 999 381 q 866 131 929 199 q 717 24 803 63 q 528 -14 631 -14 q 340 24 426 -14 q 191 131 254 63 q 94 290 128 199 q 60 486 60 381 q 94 683 60 592 q 191 842 128 774 q 340 948 254 910 q 528 986 426 986 q 717 948 631 986 q 866 842 803 910 q 964 683 929 774 q 999 486 999 592 m 849 486 q 808 671 849 589 q 694 800 767 753 q 528 847 622 847 q 363 800 435 847 q 250 672 290 753 q 210 486 210 590 q 250 301 210 383 q 363 172 290 219 q 528 125 435 125 q 694 172 622 125 q 808 301 767 219 q 849 486 849 383 z "},"Ø":{"ha":1021,"x_min":60,"x_max":999,"o":"m 140 -39 q 100 -22 118 -39 q 82 19 82 -6 q 96 58 82 40 l 869 1006 q 893 1024 881 1019 q 918 1029 906 1029 q 960 1013 942 1029 q 978 974 978 997 q 963 933 978 951 l 190 -12 q 168 -32 181 -25 q 140 -39 156 -39 m 999 486 q 964 290 999 381 q 866 131 929 199 q 717 24 803 63 q 528 -14 631 -14 q 340 24 426 -14 q 191 131 254 63 q 94 290 128 199 q 60 486 60 381 q 94 683 60 592 q 191 842 128 774 q 340 948 254 910 q 528 986 426 986 q 717 948 631 986 q 866 842 803 910 q 964 683 929 774 q 999 486 999 592 m 849 486 q 808 671 849 589 q 694 800 767 753 q 528 847 622 847 q 363 800 435 847 q 250 672 290 753 q 210 486 210 590 q 250 301 210 383 q 363 172 290 219 q 528 125 435 125 q 694 172 622 125 q 808 301 767 219 q 849 486 849 383 z "},"Ǿ":{"ha":1021,"x_min":60,"x_max":999,"o":"m 140 -39 q 100 -22 118 -39 q 82 19 82 -6 q 96 58 82 40 l 869 1006 q 893 1024 881 1019 q 918 1029 906 1029 q 960 1013 942 1029 q 978 974 978 997 q 963 933 978 951 l 190 -12 q 168 -32 181 -25 q 140 -39 156 -39 m 999 486 q 964 290 999 381 q 866 131 929 199 q 717 24 803 63 q 528 -14 631 -14 q 340 24 426 -14 q 191 131 254 63 q 94 290 128 199 q 60 486 60 381 q 94 683 60 592 q 191 842 128 774 q 340 948 254 910 q 528 986 426 986 q 717 948 631 986 q 866 842 803 910 q 964 683 929 774 q 999 486 999 592 m 849 486 q 808 671 849 589 q 694 800 767 753 q 528 847 622 847 q 363 800 435 847 q 250 672 290 753 q 210 486 210 590 q 250 301 210 383 q 363 172 290 219 q 528 125 435 125 q 694 172 622 125 q 808 301 767 219 q 849 486 849 383 m 514 1029 q 478 1041 492 1029 q 465 1071 465 1053 q 470 1088 465 1079 q 483 1104 475 1096 l 604 1206 q 632 1224 617 1217 q 663 1232 647 1232 q 706 1216 685 1232 q 726 1172 726 1200 q 715 1137 726 1154 q 683 1108 704 1119 l 544 1038 q 529 1031 538 1032 q 514 1029 521 1029 z "},"Õ":{"ha":1057,"x_min":60,"x_max":999,"o":"m 999 486 q 964 290 999 381 q 866 131 929 199 q 717 24 803 63 q 528 -14 631 -14 q 340 24 426 -14 q 191 131 254 63 q 94 290 128 199 q 60 486 60 381 q 94 683 60 592 q 191 842 128 774 q 340 948 254 910 q 528 986 426 986 q 717 948 631 986 q 866 842 803 910 q 964 683 929 774 q 999 486 999 592 m 849 486 q 808 671 849 589 q 694 800 767 753 q 528 847 622 847 q 363 800 435 847 q 250 672 290 753 q 210 486 210 590 q 250 301 210 383 q 363 172 290 219 q 528 125 435 125 q 694 172 622 125 q 808 301 767 219 q 849 486 849 383 m 344 1039 q 300 1062 318 1039 q 283 1125 282 1085 q 324 1203 286 1169 q 426 1238 361 1238 q 508 1216 469 1238 q 579 1174 546 1194 q 638 1153 613 1153 q 664 1163 654 1153 q 671 1190 674 1174 q 678 1232 664 1217 q 714 1247 693 1247 q 760 1224 742 1247 q 776 1164 778 1201 q 760 1111 775 1138 q 719 1066 746 1085 q 650 1047 692 1047 q 563 1069 606 1047 q 485 1111 521 1090 q 424 1132 449 1132 q 397 1122 408 1132 q 388 1094 386 1113 q 380 1054 394 1069 q 344 1039 365 1039 z "},"Ṍ":{"ha":1057,"x_min":60,"x_max":999,"o":"m 999 486 q 964 290 999 381 q 866 131 929 199 q 717 24 803 63 q 528 -14 631 -14 q 340 24 426 -14 q 191 131 254 63 q 94 290 128 199 q 60 486 60 381 q 94 683 60 592 q 191 842 128 774 q 340 948 254 910 q 528 986 426 986 q 717 948 631 986 q 866 842 803 910 q 964 683 929 774 q 999 486 999 592 m 849 486 q 808 671 849 589 q 694 800 767 753 q 528 847 622 847 q 363 800 435 847 q 250 672 290 753 q 210 486 210 590 q 250 301 210 383 q 363 172 290 219 q 528 125 435 125 q 694 172 622 125 q 808 301 767 219 q 849 486 849 383 m 344 1039 q 300 1062 318 1039 q 283 1125 282 1085 q 324 1203 286 1169 q 426 1238 361 1238 q 508 1216 469 1238 q 579 1174 546 1194 q 638 1153 613 1153 q 664 1163 654 1153 q 671 1190 674 1174 q 678 1232 664 1217 q 714 1247 693 1247 q 760 1224 742 1247 q 776 1164 778 1201 q 760 1111 775 1138 q 719 1066 746 1085 q 650 1047 692 1047 q 563 1069 606 1047 q 485 1111 521 1090 q 424 1132 449 1132 q 397 1122 408 1132 q 388 1094 386 1113 q 380 1054 394 1069 q 344 1039 365 1039 m 532 1319 q 497 1331 510 1319 q 483 1361 483 1343 q 488 1378 483 1369 q 501 1394 493 1386 l 622 1496 q 650 1515 635 1507 q 681 1522 665 1522 q 724 1506 703 1522 q 744 1463 744 1490 q 733 1427 744 1444 q 701 1399 722 1410 l 563 1328 q 547 1321 556 1322 q 532 1319 539 1319 z "},"Ṏ":{"ha":1057,"x_min":60,"x_max":999,"o":"m 999 486 q 964 290 999 381 q 866 131 929 199 q 717 24 803 63 q 528 -14 631 -14 q 340 24 426 -14 q 191 131 254 63 q 94 290 128 199 q 60 486 60 381 q 94 683 60 592 q 191 842 128 774 q 340 948 254 910 q 528 986 426 986 q 717 948 631 986 q 866 842 803 910 q 964 683 929 774 q 999 486 999 592 m 849 486 q 808 671 849 589 q 694 800 767 753 q 528 847 622 847 q 363 800 435 847 q 250 672 290 753 q 210 486 210 590 q 250 301 210 383 q 363 172 290 219 q 528 125 435 125 q 694 172 622 125 q 808 301 767 219 q 849 486 849 383 m 344 1039 q 300 1062 318 1039 q 283 1125 282 1085 q 324 1203 286 1169 q 426 1238 361 1238 q 508 1216 469 1238 q 579 1174 546 1194 q 638 1153 613 1153 q 664 1163 654 1153 q 671 1190 674 1174 q 678 1232 664 1217 q 714 1247 693 1247 q 760 1224 742 1247 q 776 1164 778 1201 q 760 1111 775 1138 q 719 1066 746 1085 q 650 1047 692 1047 q 563 1069 606 1047 q 485 1111 521 1090 q 424 1132 449 1132 q 397 1122 408 1132 q 388 1094 386 1113 q 380 1054 394 1069 q 344 1039 365 1039 m 660 1353 q 603 1368 622 1353 q 585 1418 585 1383 l 585 1439 q 604 1490 585 1475 q 660 1504 624 1504 q 719 1489 700 1504 q 738 1439 738 1474 l 738 1418 q 718 1367 738 1382 q 660 1353 699 1353 m 396 1353 q 340 1368 358 1353 q 321 1418 321 1383 l 321 1439 q 340 1490 321 1475 q 397 1504 360 1504 q 455 1489 436 1504 q 474 1439 474 1474 l 474 1418 q 454 1367 474 1382 q 396 1353 435 1353 z "},"Ȭ":{"ha":1057,"x_min":60,"x_max":999,"o":"m 999 486 q 964 290 999 381 q 866 131 929 199 q 717 24 803 63 q 528 -14 631 -14 q 340 24 426 -14 q 191 131 254 63 q 94 290 128 199 q 60 486 60 381 q 94 683 60 592 q 191 842 128 774 q 340 948 254 910 q 528 986 426 986 q 717 948 631 986 q 866 842 803 910 q 964 683 929 774 q 999 486 999 592 m 849 486 q 808 671 849 589 q 694 800 767 753 q 528 847 622 847 q 363 800 435 847 q 250 672 290 753 q 210 486 210 590 q 250 301 210 383 q 363 172 290 219 q 528 125 435 125 q 694 172 622 125 q 808 301 767 219 q 849 486 849 383 m 344 1039 q 300 1062 318 1039 q 283 1125 282 1085 q 324 1203 286 1169 q 426 1238 361 1238 q 508 1216 469 1238 q 579 1174 546 1194 q 638 1153 613 1153 q 664 1163 654 1153 q 671 1190 674 1174 q 678 1232 664 1217 q 714 1247 693 1247 q 760 1224 742 1247 q 776 1164 778 1201 q 760 1111 775 1138 q 719 1066 746 1085 q 650 1047 692 1047 q 563 1069 606 1047 q 485 1111 521 1090 q 424 1132 449 1132 q 397 1122 408 1132 q 388 1094 386 1113 q 380 1054 394 1069 q 344 1039 365 1039 m 360 1349 q 300 1403 300 1349 q 360 1456 300 1456 l 701 1456 q 761 1403 761 1456 q 701 1349 761 1349 l 360 1349 z "},"Œ":{"ha":1354,"x_min":60,"x_max":1294,"o":"m 1225 139 q 1274 119 1254 139 q 1294 68 1294 99 q 1274 19 1294 39 q 1225 0 1254 0 l 472 0 q 245 65 338 0 q 106 241 153 131 q 60 486 60 351 q 85 673 60 585 q 164 828 111 761 q 294 934 217 896 q 472 972 371 972 l 1225 972 q 1274 952 1254 972 q 1294 901 1294 932 q 1274 853 1294 872 q 1225 833 1254 833 l 814 833 l 826 857 l 826 536 l 813 556 l 1163 556 q 1212 535 1192 556 q 1232 485 1232 514 q 1212 436 1232 456 q 1163 417 1192 417 l 813 417 l 826 439 l 826 128 l 818 139 l 1225 139 m 706 139 l 688 119 l 688 854 l 703 833 l 476 833 q 351 806 403 833 q 265 731 299 779 q 215 620 231 683 q 199 486 199 557 q 227 311 199 390 q 317 185 256 232 q 476 139 379 139 l 706 139 z "},"P":{"ha":835,"x_min":113,"x_max":778,"o":"m 504 972 q 640 933 578 972 q 740 825 703 893 q 778 672 778 757 q 740 519 778 588 q 640 409 703 450 q 504 368 578 368 l 236 368 l 247 390 l 247 71 q 228 20 247 40 q 179 0 210 0 q 131 20 150 0 q 113 71 113 40 l 113 901 q 133 952 113 932 q 183 972 154 972 l 504 972 m 504 501 q 570 525 540 501 q 619 588 600 549 q 638 672 638 626 q 619 756 638 718 q 570 816 600 793 q 504 839 540 839 l 233 839 l 247 860 l 247 483 l 235 501 l 504 501 z "},"Þ":{"ha":831,"x_min":113,"x_max":774,"o":"m 251 71 q 231 20 251 40 q 182 0 211 0 q 132 20 151 0 q 113 71 113 40 l 113 957 q 133 1008 113 988 q 183 1028 154 1028 q 233 1008 214 1028 q 251 957 251 988 l 251 71 m 236 375 l 500 375 q 566 397 536 375 q 615 457 596 419 q 633 539 633 494 q 615 622 633 585 q 566 679 596 658 q 500 700 536 700 l 235 700 l 179 839 l 500 839 q 637 799 575 839 q 736 692 699 760 q 774 539 774 624 q 735 385 774 454 q 635 276 697 317 q 500 236 574 236 l 174 236 l 236 375 z "},"Q":{"ha":1058,"x_min":60,"x_max":1089,"o":"m 1024 -51 q 1069 -72 1049 -51 q 1089 -118 1089 -92 q 1062 -174 1089 -147 q 992 -221 1035 -200 q 903 -253 950 -242 q 818 -265 857 -265 q 681 -249 733 -265 q 592 -211 628 -232 q 522 -174 556 -190 q 440 -157 488 -157 q 397 -165 414 -157 q 363 -183 381 -174 q 317 -192 344 -192 q 268 -169 288 -192 q 249 -121 249 -147 q 289 -61 249 -76 l 560 39 l 686 17 l 432 -75 l 492 -37 q 583 -53 543 -37 q 659 -88 622 -68 q 735 -124 696 -108 q 825 -139 774 -139 q 897 -125 868 -139 q 946 -97 926 -111 q 987 -66 969 -81 q 1024 -51 1004 -51 m 999 486 q 964 290 999 381 q 866 131 929 199 q 717 24 803 63 q 528 -14 631 -14 q 340 24 426 -14 q 191 131 254 63 q 94 290 128 199 q 60 486 60 381 q 94 683 60 592 q 191 842 128 774 q 340 948 254 910 q 528 986 426 986 q 717 948 631 986 q 866 842 803 910 q 964 683 929 774 q 999 486 999 592 m 849 486 q 808 671 849 589 q 694 800 767 753 q 528 847 622 847 q 363 800 435 847 q 250 672 290 753 q 210 486 210 590 q 250 301 210 383 q 363 172 290 219 q 528 125 435 125 q 694 172 622 125 q 808 301 767 219 q 849 486 849 383 z "},"R":{"ha":946,"x_min":113,"x_max":896,"o":"m 196 0 q 138 20 163 0 q 113 71 113 40 l 113 901 q 133 952 113 932 q 183 972 154 972 l 575 972 q 713 935 650 972 q 813 834 775 899 q 851 686 851 769 q 829 580 851 631 q 769 490 807 529 q 685 432 732 451 l 669 458 q 744 415 713 443 q 795 348 776 386 q 815 261 814 310 q 823 190 819 218 q 833 143 826 161 q 858 115 840 125 q 890 74 883 101 q 878 24 896 46 q 847 2 865 7 q 808 1 828 -3 q 775 11 789 4 q 730 51 753 25 q 693 122 707 76 q 679 243 679 168 q 668 303 679 278 q 638 344 657 328 q 592 367 618 360 q 533 375 565 375 l 239 375 l 258 403 l 258 71 q 242 20 258 40 q 196 0 225 0 m 240 496 l 572 496 q 634 522 604 497 q 683 588 664 546 q 701 682 701 629 q 662 794 701 749 q 568 839 622 839 l 243 839 l 258 875 l 258 467 l 240 496 z "},"Ŕ":{"ha":946,"x_min":113,"x_max":896,"o":"m 196 0 q 138 20 163 0 q 113 71 113 40 l 113 901 q 133 952 113 932 q 183 972 154 972 l 575 972 q 713 935 650 972 q 813 834 775 899 q 851 686 851 769 q 829 580 851 631 q 769 490 807 529 q 685 432 732 451 l 669 458 q 744 415 713 443 q 795 348 776 386 q 815 261 814 310 q 823 190 819 218 q 833 143 826 161 q 858 115 840 125 q 890 74 883 101 q 878 24 896 46 q 847 2 865 7 q 808 1 828 -3 q 775 11 789 4 q 730 51 753 25 q 693 122 707 76 q 679 243 679 168 q 668 303 679 278 q 638 344 657 328 q 592 367 618 360 q 533 375 565 375 l 239 375 l 258 403 l 258 71 q 242 20 258 40 q 196 0 225 0 m 240 496 l 572 496 q 634 522 604 497 q 683 588 664 546 q 701 682 701 629 q 662 794 701 749 q 568 839 622 839 l 243 839 l 258 875 l 258 467 l 240 496 m 475 1029 q 440 1041 453 1029 q 426 1071 426 1053 q 431 1088 426 1079 q 444 1104 436 1096 l 565 1206 q 593 1224 578 1217 q 624 1232 608 1232 q 667 1216 646 1232 q 688 1172 688 1200 q 676 1137 688 1154 q 644 1108 665 1119 l 506 1038 q 490 1031 499 1032 q 475 1029 482 1029 z "},"Ř":{"ha":946,"x_min":113,"x_max":896,"o":"m 196 0 q 138 20 163 0 q 113 71 113 40 l 113 901 q 133 952 113 932 q 183 972 154 972 l 575 972 q 713 935 650 972 q 813 834 775 899 q 851 686 851 769 q 829 580 851 631 q 769 490 807 529 q 685 432 732 451 l 669 458 q 744 415 713 443 q 795 348 776 386 q 815 261 814 310 q 823 190 819 218 q 833 143 826 161 q 858 115 840 125 q 890 74 883 101 q 878 24 896 46 q 847 2 865 7 q 808 1 828 -3 q 775 11 789 4 q 730 51 753 25 q 693 122 707 76 q 679 243 679 168 q 668 303 679 278 q 638 344 657 328 q 592 367 618 360 q 533 375 565 375 l 239 375 l 258 403 l 258 71 q 242 20 258 40 q 196 0 225 0 m 240 496 l 572 496 q 634 522 604 497 q 683 588 664 546 q 701 682 701 629 q 662 794 701 749 q 568 839 622 839 l 243 839 l 258 875 l 258 467 l 240 496 m 451 1132 l 571 1215 q 604 1233 590 1228 q 631 1239 618 1239 q 657 1230 647 1239 q 667 1210 667 1221 q 663 1194 667 1201 q 649 1174 660 1186 l 556 1069 q 524 1043 540 1051 q 483 1035 507 1035 l 464 1035 q 424 1043 440 1035 q 392 1069 407 1051 l 297 1174 q 284 1193 288 1186 q 281 1208 281 1200 q 291 1229 281 1219 q 317 1239 301 1239 q 376 1215 340 1239 l 496 1133 l 451 1132 z "},"Ŗ":{"ha":946,"x_min":113,"x_max":896,"o":"m 196 0 q 138 20 163 0 q 113 71 113 40 l 113 901 q 133 952 113 932 q 183 972 154 972 l 575 972 q 713 935 650 972 q 813 834 775 899 q 851 686 851 769 q 829 580 851 631 q 769 490 807 529 q 685 432 732 451 l 669 458 q 744 415 713 443 q 795 348 776 386 q 815 261 814 310 q 823 190 819 218 q 833 143 826 161 q 858 115 840 125 q 890 74 883 101 q 878 24 896 46 q 847 2 865 7 q 808 1 828 -3 q 775 11 789 4 q 730 51 753 25 q 693 122 707 76 q 679 243 679 168 q 668 303 679 278 q 638 344 657 328 q 592 367 618 360 q 533 375 565 375 l 239 375 l 258 403 l 258 71 q 242 20 258 40 q 196 0 225 0 m 240 496 l 572 496 q 634 522 604 497 q 683 588 664 546 q 701 682 701 629 q 662 794 701 749 q 568 839 622 839 l 243 839 l 258 875 l 258 467 l 240 496 m 576 -146 q 559 -203 576 -175 q 513 -250 542 -232 q 447 -268 483 -268 q 401 -255 415 -268 q 386 -229 386 -242 q 394 -206 386 -212 q 413 -199 403 -199 q 431 -202 419 -199 q 454 -206 442 -206 q 477 -194 468 -204 q 486 -164 486 -183 q 472 -147 486 -147 q 458 -153 463 -147 q 436 -158 454 -158 q 404 -145 417 -160 q 392 -108 392 -131 q 415 -62 392 -78 q 478 -47 439 -47 q 549 -73 521 -47 q 576 -146 576 -99 z "},"Ȑ":{"ha":946,"x_min":113,"x_max":896,"o":"m 196 0 q 138 20 163 0 q 113 71 113 40 l 113 901 q 133 952 113 932 q 183 972 154 972 l 575 972 q 713 935 650 972 q 813 834 775 899 q 851 686 851 769 q 829 580 851 631 q 769 490 807 529 q 685 432 732 451 l 669 458 q 744 415 713 443 q 795 348 776 386 q 815 261 814 310 q 823 190 819 218 q 833 143 826 161 q 858 115 840 125 q 890 74 883 101 q 878 24 896 46 q 847 2 865 7 q 808 1 828 -3 q 775 11 789 4 q 730 51 753 25 q 693 122 707 76 q 679 243 679 168 q 668 303 679 278 q 638 344 657 328 q 592 367 618 360 q 533 375 565 375 l 239 375 l 258 403 l 258 71 q 242 20 258 40 q 196 0 225 0 m 240 496 l 572 496 q 634 522 604 497 q 683 588 664 546 q 701 682 701 629 q 662 794 701 749 q 568 839 622 839 l 243 839 l 258 875 l 258 467 l 240 496 m 357 1046 q 342 1049 350 1046 q 326 1054 335 1051 l 189 1126 q 144 1190 144 1150 q 165 1233 144 1217 q 208 1249 186 1249 q 240 1241 225 1249 q 267 1224 256 1233 l 388 1121 q 401 1105 397 1113 q 406 1088 406 1097 q 392 1058 406 1069 q 357 1046 379 1046 m 626 1056 q 610 1058 618 1056 q 594 1064 603 1060 l 457 1135 q 414 1199 414 1158 q 434 1242 414 1226 q 476 1258 454 1258 q 508 1251 493 1258 q 535 1232 524 1243 l 656 1131 q 669 1114 665 1122 q 674 1097 674 1106 q 661 1067 674 1079 q 626 1056 649 1056 z "},"Ṛ":{"ha":946,"x_min":113,"x_max":896,"o":"m 196 0 q 138 20 163 0 q 113 71 113 40 l 113 901 q 133 952 113 932 q 183 972 154 972 l 575 972 q 713 935 650 972 q 813 834 775 899 q 851 686 851 769 q 829 580 851 631 q 769 490 807 529 q 685 432 732 451 l 669 458 q 744 415 713 443 q 795 348 776 386 q 815 261 814 310 q 823 190 819 218 q 833 143 826 161 q 858 115 840 125 q 890 74 883 101 q 878 24 896 46 q 847 2 865 7 q 808 1 828 -3 q 775 11 789 4 q 730 51 753 25 q 693 122 707 76 q 679 243 679 168 q 668 303 679 278 q 638 344 657 328 q 592 367 618 360 q 533 375 565 375 l 239 375 l 258 403 l 258 71 q 242 20 258 40 q 196 0 225 0 m 240 496 l 572 496 q 634 522 604 497 q 683 588 664 546 q 701 682 701 629 q 662 794 701 749 q 568 839 622 839 l 243 839 l 258 875 l 258 467 l 240 496 m 471 -200 q 413 -185 431 -200 q 394 -136 394 -171 l 394 -114 q 414 -63 394 -78 q 471 -49 433 -49 q 532 -63 514 -49 q 550 -114 550 -78 l 550 -136 q 531 -186 550 -172 q 471 -200 513 -200 z "},"Ȓ":{"ha":946,"x_min":113,"x_max":896,"o":"m 196 0 q 138 20 163 0 q 113 71 113 40 l 113 901 q 133 952 113 932 q 183 972 154 972 l 575 972 q 713 935 650 972 q 813 834 775 899 q 851 686 851 769 q 829 580 851 631 q 769 490 807 529 q 685 432 732 451 l 669 458 q 744 415 713 443 q 795 348 776 386 q 815 261 814 310 q 823 190 819 218 q 833 143 826 161 q 858 115 840 125 q 890 74 883 101 q 878 24 896 46 q 847 2 865 7 q 808 1 828 -3 q 775 11 789 4 q 730 51 753 25 q 693 122 707 76 q 679 243 679 168 q 668 303 679 278 q 638 344 657 328 q 592 367 618 360 q 533 375 565 375 l 239 375 l 258 403 l 258 71 q 242 20 258 40 q 196 0 225 0 m 240 496 l 572 496 q 634 522 604 497 q 683 588 664 546 q 701 682 701 629 q 662 794 701 749 q 568 839 622 839 l 243 839 l 258 875 l 258 467 l 240 496 m 472 1260 q 565 1244 524 1260 q 636 1198 607 1228 q 678 1128 665 1168 q 678 1083 690 1100 q 642 1065 665 1065 q 602 1077 617 1065 q 572 1110 588 1089 q 533 1146 558 1133 q 472 1158 508 1158 q 410 1146 435 1158 q 372 1110 385 1133 q 343 1077 358 1089 q 301 1065 328 1065 q 267 1082 279 1065 q 264 1126 254 1099 q 307 1198 278 1168 q 378 1244 336 1228 q 472 1260 421 1260 z "},"Ṟ":{"ha":946,"x_min":113,"x_max":896,"o":"m 196 0 q 138 20 163 0 q 113 71 113 40 l 113 901 q 133 952 113 932 q 183 972 154 972 l 575 972 q 713 935 650 972 q 813 834 775 899 q 851 686 851 769 q 829 580 851 631 q 769 490 807 529 q 685 432 732 451 l 669 458 q 744 415 713 443 q 795 348 776 386 q 815 261 814 310 q 823 190 819 218 q 833 143 826 161 q 858 115 840 125 q 890 74 883 101 q 878 24 896 46 q 847 2 865 7 q 808 1 828 -3 q 775 11 789 4 q 730 51 753 25 q 693 122 707 76 q 679 243 679 168 q 668 303 679 278 q 638 344 657 328 q 592 367 618 360 q 533 375 565 375 l 239 375 l 258 403 l 258 71 q 242 20 258 40 q 196 0 225 0 m 240 496 l 572 496 q 634 522 604 497 q 683 588 664 546 q 701 682 701 629 q 662 794 701 749 q 568 839 622 839 l 243 839 l 258 875 l 258 467 l 240 496 m 324 -199 q 264 -146 264 -199 q 324 -93 264 -93 l 644 -93 q 704 -146 704 -93 q 644 -199 704 -199 l 324 -199 z "},"S":{"ha":813,"x_min":54,"x_max":754,"o":"m 411 -14 q 233 14 311 -14 q 85 106 156 42 q 62 133 69 117 q 54 165 54 149 q 74 213 54 192 q 122 233 93 233 q 164 218 144 233 q 274 144 217 169 q 410 119 332 119 q 512 138 465 119 q 586 186 558 156 q 614 257 614 217 q 585 340 614 307 q 503 394 557 372 q 375 431 450 415 q 251 465 306 443 q 157 522 196 488 q 97 603 118 556 q 76 713 76 650 q 121 858 76 797 q 242 953 165 919 q 414 986 318 986 q 578 959 501 986 q 701 886 654 932 q 735 824 735 857 q 715 777 735 799 q 668 756 694 756 q 635 767 649 756 q 575 809 613 790 q 495 840 538 828 q 414 853 453 853 q 307 835 351 853 q 239 788 263 818 q 215 718 215 758 q 242 640 215 671 q 318 591 269 610 q 429 557 367 572 q 566 519 506 540 q 668 466 626 499 q 732 385 710 433 q 754 264 754 336 q 707 118 754 181 q 583 21 660 56 q 411 -14 506 -14 z "},"Ś":{"ha":813,"x_min":54,"x_max":754,"o":"m 411 -14 q 233 14 311 -14 q 85 106 156 42 q 62 133 69 117 q 54 165 54 149 q 74 213 54 192 q 122 233 93 233 q 164 218 144 233 q 274 144 217 169 q 410 119 332 119 q 512 138 465 119 q 586 186 558 156 q 614 257 614 217 q 585 340 614 307 q 503 394 557 372 q 375 431 450 415 q 251 465 306 443 q 157 522 196 488 q 97 603 118 556 q 76 713 76 650 q 121 858 76 797 q 242 953 165 919 q 414 986 318 986 q 578 959 501 986 q 701 886 654 932 q 735 824 735 857 q 715 777 735 799 q 668 756 694 756 q 635 767 649 756 q 575 809 613 790 q 495 840 538 828 q 414 853 453 853 q 307 835 351 853 q 239 788 263 818 q 215 718 215 758 q 242 640 215 671 q 318 591 269 610 q 429 557 367 572 q 566 519 506 540 q 668 466 626 499 q 732 385 710 433 q 754 264 754 336 q 707 118 754 181 q 583 21 660 56 q 411 -14 506 -14 m 410 1029 q 374 1041 388 1029 q 361 1071 361 1053 q 366 1088 361 1079 q 379 1104 371 1096 l 500 1206 q 528 1224 513 1217 q 558 1232 543 1232 q 601 1216 581 1232 q 622 1172 622 1200 q 611 1137 622 1154 q 579 1108 600 1119 l 440 1038 q 425 1031 433 1032 q 410 1029 417 1029 z "},"Ṥ":{"ha":813,"x_min":54,"x_max":754,"o":"m 411 -14 q 233 14 311 -14 q 85 106 156 42 q 62 133 69 117 q 54 165 54 149 q 74 213 54 192 q 122 233 93 233 q 164 218 144 233 q 274 144 217 169 q 410 119 332 119 q 512 138 465 119 q 586 186 558 156 q 614 257 614 217 q 585 340 614 307 q 503 394 557 372 q 375 431 450 415 q 251 465 306 443 q 157 522 196 488 q 97 603 118 556 q 76 713 76 650 q 121 858 76 797 q 242 953 165 919 q 414 986 318 986 q 578 959 501 986 q 701 886 654 932 q 735 824 735 857 q 715 777 735 799 q 668 756 694 756 q 635 767 649 756 q 575 809 613 790 q 495 840 538 828 q 414 853 453 853 q 307 835 351 853 q 239 788 263 818 q 215 718 215 758 q 242 640 215 671 q 318 591 269 610 q 429 557 367 572 q 566 519 506 540 q 668 466 626 499 q 732 385 710 433 q 754 264 754 336 q 707 118 754 181 q 583 21 660 56 q 411 -14 506 -14 m 410 1029 q 374 1041 388 1029 q 361 1071 361 1053 q 366 1088 361 1079 q 379 1104 371 1096 l 500 1206 q 528 1224 513 1217 q 558 1232 543 1232 q 601 1216 581 1232 q 622 1172 622 1200 q 611 1137 622 1154 q 579 1108 600 1119 l 440 1038 q 425 1031 433 1032 q 410 1029 417 1029 m 474 1292 q 415 1307 433 1292 q 397 1357 397 1322 l 397 1379 q 417 1429 397 1415 q 475 1443 436 1443 q 535 1429 517 1443 q 553 1379 553 1415 l 553 1357 q 534 1306 553 1321 q 474 1292 515 1292 z "},"Š":{"ha":813,"x_min":54,"x_max":754,"o":"m 411 -14 q 233 14 311 -14 q 85 106 156 42 q 62 133 69 117 q 54 165 54 149 q 74 213 54 192 q 122 233 93 233 q 164 218 144 233 q 274 144 217 169 q 410 119 332 119 q 512 138 465 119 q 586 186 558 156 q 614 257 614 217 q 585 340 614 307 q 503 394 557 372 q 375 431 450 415 q 251 465 306 443 q 157 522 196 488 q 97 603 118 556 q 76 713 76 650 q 121 858 76 797 q 242 953 165 919 q 414 986 318 986 q 578 959 501 986 q 701 886 654 932 q 735 824 735 857 q 715 777 735 799 q 668 756 694 756 q 635 767 649 756 q 575 809 613 790 q 495 840 538 828 q 414 853 453 853 q 307 835 351 853 q 239 788 263 818 q 215 718 215 758 q 242 640 215 671 q 318 591 269 610 q 429 557 367 572 q 566 519 506 540 q 668 466 626 499 q 732 385 710 433 q 754 264 754 336 q 707 118 754 181 q 583 21 660 56 q 411 -14 506 -14 m 386 1132 l 506 1215 q 539 1233 525 1228 q 565 1239 553 1239 q 592 1230 582 1239 q 601 1210 601 1221 q 598 1194 601 1201 q 583 1174 594 1186 l 490 1069 q 458 1043 475 1051 q 418 1035 442 1035 l 399 1035 q 358 1043 375 1035 q 326 1069 342 1051 l 232 1174 q 219 1193 222 1186 q 215 1208 215 1200 q 226 1229 215 1219 q 251 1239 236 1239 q 311 1215 275 1239 l 431 1133 l 386 1132 z "},"Ṧ":{"ha":813,"x_min":54,"x_max":754,"o":"m 411 -14 q 233 14 311 -14 q 85 106 156 42 q 62 133 69 117 q 54 165 54 149 q 74 213 54 192 q 122 233 93 233 q 164 218 144 233 q 274 144 217 169 q 410 119 332 119 q 512 138 465 119 q 586 186 558 156 q 614 257 614 217 q 585 340 614 307 q 503 394 557 372 q 375 431 450 415 q 251 465 306 443 q 157 522 196 488 q 97 603 118 556 q 76 713 76 650 q 121 858 76 797 q 242 953 165 919 q 414 986 318 986 q 578 959 501 986 q 701 886 654 932 q 735 824 735 857 q 715 777 735 799 q 668 756 694 756 q 635 767 649 756 q 575 809 613 790 q 495 840 538 828 q 414 853 453 853 q 307 835 351 853 q 239 788 263 818 q 215 718 215 758 q 242 640 215 671 q 318 591 269 610 q 429 557 367 572 q 566 519 506 540 q 668 466 626 499 q 732 385 710 433 q 754 264 754 336 q 707 118 754 181 q 583 21 660 56 q 411 -14 506 -14 m 386 1132 l 506 1215 q 539 1233 525 1228 q 565 1239 553 1239 q 592 1230 582 1239 q 601 1210 601 1221 q 598 1194 601 1201 q 583 1174 594 1186 l 490 1069 q 458 1043 475 1051 q 418 1035 442 1035 l 399 1035 q 358 1043 375 1035 q 326 1069 342 1051 l 232 1174 q 219 1193 222 1186 q 215 1208 215 1200 q 226 1229 215 1219 q 251 1239 236 1239 q 311 1215 275 1239 l 431 1133 l 386 1132 m 406 1333 q 347 1349 365 1333 q 329 1399 329 1364 l 329 1421 q 349 1471 329 1457 q 407 1485 368 1485 q 467 1471 449 1485 q 485 1421 485 1457 l 485 1399 q 466 1348 485 1363 q 406 1333 447 1333 z "},"Ş":{"ha":813,"x_min":54,"x_max":754,"o":"m 411 -14 q 233 14 311 -14 q 85 106 156 42 q 62 133 69 117 q 54 165 54 149 q 74 213 54 192 q 122 233 93 233 q 164 218 144 233 q 274 144 217 169 q 410 119 332 119 q 512 138 465 119 q 586 186 558 156 q 614 257 614 217 q 585 340 614 307 q 503 394 557 372 q 375 431 450 415 q 251 465 306 443 q 157 522 196 488 q 97 603 118 556 q 76 713 76 650 q 121 858 76 797 q 242 953 165 919 q 414 986 318 986 q 578 959 501 986 q 701 886 654 932 q 735 824 735 857 q 715 777 735 799 q 668 756 694 756 q 635 767 649 756 q 575 809 613 790 q 495 840 538 828 q 414 853 453 853 q 307 835 351 853 q 239 788 263 818 q 215 718 215 758 q 242 640 215 671 q 318 591 269 610 q 429 557 367 572 q 566 519 506 540 q 668 466 626 499 q 732 385 710 433 q 754 264 754 336 q 707 118 754 181 q 583 21 660 56 q 411 -14 506 -14 m 326 -206 q 295 -199 314 -206 q 261 -178 276 -192 q 246 -149 246 -165 q 261 -112 246 -131 l 374 35 l 457 35 l 376 -168 q 326 -206 361 -206 z "},"Ŝ":{"ha":813,"x_min":54,"x_max":754,"o":"m 411 -14 q 233 14 311 -14 q 85 106 156 42 q 62 133 69 117 q 54 165 54 149 q 74 213 54 192 q 122 233 93 233 q 164 218 144 233 q 274 144 217 169 q 410 119 332 119 q 512 138 465 119 q 586 186 558 156 q 614 257 614 217 q 585 340 614 307 q 503 394 557 372 q 375 431 450 415 q 251 465 306 443 q 157 522 196 488 q 97 603 118 556 q 76 713 76 650 q 121 858 76 797 q 242 953 165 919 q 414 986 318 986 q 578 959 501 986 q 701 886 654 932 q 735 824 735 857 q 715 777 735 799 q 668 756 694 756 q 635 767 649 756 q 575 809 613 790 q 495 840 538 828 q 414 853 453 853 q 307 835 351 853 q 239 788 263 818 q 215 718 215 758 q 242 640 215 671 q 318 591 269 610 q 429 557 367 572 q 566 519 506 540 q 668 466 626 499 q 732 385 710 433 q 754 264 754 336 q 707 118 754 181 q 583 21 660 56 q 411 -14 506 -14 m 428 1142 l 310 1064 q 276 1045 290 1053 q 250 1038 261 1038 q 224 1047 235 1038 q 213 1068 213 1057 q 217 1085 213 1078 q 231 1103 221 1092 l 325 1208 q 356 1234 340 1225 q 396 1243 372 1243 l 417 1243 q 456 1234 440 1243 q 489 1208 472 1225 l 582 1104 q 597 1085 593 1092 q 600 1068 600 1078 q 590 1047 600 1057 q 564 1038 579 1038 q 538 1045 551 1038 q 504 1064 524 1053 l 385 1140 l 428 1142 z "},"Ș":{"ha":813,"x_min":54,"x_max":754,"o":"m 411 -14 q 233 14 311 -14 q 85 106 156 42 q 62 133 69 117 q 54 165 54 149 q 74 213 54 192 q 122 233 93 233 q 164 218 144 233 q 274 144 217 169 q 410 119 332 119 q 512 138 465 119 q 586 186 558 156 q 614 257 614 217 q 585 340 614 307 q 503 394 557 372 q 375 431 450 415 q 251 465 306 443 q 157 522 196 488 q 97 603 118 556 q 76 713 76 650 q 121 858 76 797 q 242 953 165 919 q 414 986 318 986 q 578 959 501 986 q 701 886 654 932 q 735 824 735 857 q 715 777 735 799 q 668 756 694 756 q 635 767 649 756 q 575 809 613 790 q 495 840 538 828 q 414 853 453 853 q 307 835 351 853 q 239 788 263 818 q 215 718 215 758 q 242 640 215 671 q 318 591 269 610 q 429 557 367 572 q 566 519 506 540 q 668 466 626 499 q 732 385 710 433 q 754 264 754 336 q 707 118 754 181 q 583 21 660 56 q 411 -14 506 -14 m 513 -146 q 495 -203 513 -175 q 449 -250 478 -232 q 383 -268 419 -268 q 337 -255 351 -268 q 322 -229 322 -242 q 331 -206 322 -212 q 349 -199 339 -199 q 367 -202 356 -199 q 390 -206 378 -206 q 413 -194 404 -204 q 422 -164 422 -183 q 408 -147 422 -147 q 394 -153 399 -147 q 372 -158 390 -158 q 340 -145 353 -160 q 328 -108 328 -131 q 351 -62 328 -78 q 414 -47 375 -47 q 485 -73 457 -47 q 513 -146 513 -99 z "},"Ṡ":{"ha":813,"x_min":54,"x_max":754,"o":"m 411 -14 q 233 14 311 -14 q 85 106 156 42 q 62 133 69 117 q 54 165 54 149 q 74 213 54 192 q 122 233 93 233 q 164 218 144 233 q 274 144 217 169 q 410 119 332 119 q 512 138 465 119 q 586 186 558 156 q 614 257 614 217 q 585 340 614 307 q 503 394 557 372 q 375 431 450 415 q 251 465 306 443 q 157 522 196 488 q 97 603 118 556 q 76 713 76 650 q 121 858 76 797 q 242 953 165 919 q 414 986 318 986 q 578 959 501 986 q 701 886 654 932 q 735 824 735 857 q 715 777 735 799 q 668 756 694 756 q 635 767 649 756 q 575 809 613 790 q 495 840 538 828 q 414 853 453 853 q 307 835 351 853 q 239 788 263 818 q 215 718 215 758 q 242 640 215 671 q 318 591 269 610 q 429 557 367 572 q 566 519 506 540 q 668 466 626 499 q 732 385 710 433 q 754 264 754 336 q 707 118 754 181 q 583 21 660 56 q 411 -14 506 -14 m 406 1042 q 347 1057 365 1042 q 329 1107 329 1072 l 329 1129 q 349 1179 329 1165 q 407 1193 368 1193 q 467 1179 449 1193 q 485 1129 485 1165 l 485 1107 q 466 1056 485 1071 q 406 1042 447 1042 z "},"Ṣ":{"ha":813,"x_min":54,"x_max":754,"o":"m 411 -14 q 233 14 311 -14 q 85 106 156 42 q 62 133 69 117 q 54 165 54 149 q 74 213 54 192 q 122 233 93 233 q 164 218 144 233 q 274 144 217 169 q 410 119 332 119 q 512 138 465 119 q 586 186 558 156 q 614 257 614 217 q 585 340 614 307 q 503 394 557 372 q 375 431 450 415 q 251 465 306 443 q 157 522 196 488 q 97 603 118 556 q 76 713 76 650 q 121 858 76 797 q 242 953 165 919 q 414 986 318 986 q 578 959 501 986 q 701 886 654 932 q 735 824 735 857 q 715 777 735 799 q 668 756 694 756 q 635 767 649 756 q 575 809 613 790 q 495 840 538 828 q 414 853 453 853 q 307 835 351 853 q 239 788 263 818 q 215 718 215 758 q 242 640 215 671 q 318 591 269 610 q 429 557 367 572 q 566 519 506 540 q 668 466 626 499 q 732 385 710 433 q 754 264 754 336 q 707 118 754 181 q 583 21 660 56 q 411 -14 506 -14 m 406 -200 q 347 -185 365 -200 q 329 -136 329 -171 l 329 -114 q 349 -63 329 -78 q 406 -49 368 -49 q 467 -63 449 -49 q 485 -114 485 -78 l 485 -136 q 466 -186 485 -172 q 406 -200 447 -200 z "},"Ṩ":{"ha":813,"x_min":54,"x_max":754,"o":"m 411 -14 q 233 14 311 -14 q 85 106 156 42 q 62 133 69 117 q 54 165 54 149 q 74 213 54 192 q 122 233 93 233 q 164 218 144 233 q 274 144 217 169 q 410 119 332 119 q 512 138 465 119 q 586 186 558 156 q 614 257 614 217 q 585 340 614 307 q 503 394 557 372 q 375 431 450 415 q 251 465 306 443 q 157 522 196 488 q 97 603 118 556 q 76 713 76 650 q 121 858 76 797 q 242 953 165 919 q 414 986 318 986 q 578 959 501 986 q 701 886 654 932 q 735 824 735 857 q 715 777 735 799 q 668 756 694 756 q 635 767 649 756 q 575 809 613 790 q 495 840 538 828 q 414 853 453 853 q 307 835 351 853 q 239 788 263 818 q 215 718 215 758 q 242 640 215 671 q 318 591 269 610 q 429 557 367 572 q 566 519 506 540 q 668 466 626 499 q 732 385 710 433 q 754 264 754 336 q 707 118 754 181 q 583 21 660 56 q 411 -14 506 -14 m 406 -200 q 347 -185 365 -200 q 329 -136 329 -171 l 329 -114 q 349 -63 329 -78 q 406 -49 368 -49 q 467 -63 449 -49 q 485 -114 485 -78 l 485 -136 q 466 -186 485 -172 q 406 -200 447 -200 m 406 1042 q 347 1057 365 1042 q 329 1107 329 1072 l 329 1129 q 349 1179 329 1165 q 407 1193 368 1193 q 467 1179 449 1193 q 485 1129 485 1165 l 485 1107 q 466 1056 485 1071 q 406 1042 447 1042 z "},"ẞ":{"ha":1018,"x_min":113,"x_max":958,"o":"m 658 -14 q 556 -1 608 -14 q 457 39 503 13 q 381 104 411 65 q 371 125 379 107 q 363 165 363 143 q 380 216 363 192 q 428 240 397 240 q 452 235 438 240 q 476 219 467 231 q 557 153 508 182 q 653 125 606 125 q 736 139 701 125 q 790 178 771 153 q 808 238 808 204 q 780 313 807 285 q 710 361 753 342 q 622 401 668 381 q 534 452 576 424 q 465 525 492 481 q 439 636 439 569 q 463 748 439 701 q 527 824 488 794 q 617 872 567 854 q 721 893 668 889 l 794 824 q 727 859 760 844 q 654 882 694 874 q 551 889 614 890 q 435 872 488 890 q 345 818 383 854 q 286 731 307 782 q 265 615 265 681 l 263 72 q 242 22 263 42 q 186 1 221 1 q 133 22 154 1 q 113 72 113 42 l 115 581 q 142 744 115 667 q 223 881 169 821 q 356 974 276 940 q 538 1008 435 1008 q 696 992 626 1008 q 811 954 765 976 q 882 867 882 922 q 867 832 882 843 q 827 817 851 821 q 775 806 803 813 q 680 780 721 794 q 616 740 639 765 q 593 675 593 715 q 612 613 593 639 q 663 569 631 588 q 731 535 694 551 q 809 500 769 519 q 883 451 849 481 q 938 374 917 421 q 958 257 958 328 q 917 122 958 183 q 807 24 875 61 q 658 -14 739 -12 z "},"Ə":{"ha":1069,"x_min":60,"x_max":1011,"o":"m 535 -14 q 364 18 447 -14 q 214 108 281 50 q 106 249 147 167 q 60 433 65 332 l 60 465 q 86 528 60 507 q 144 549 113 549 l 947 549 l 960 410 l 208 410 q 249 297 219 349 q 322 207 278 246 q 421 147 367 168 q 535 125 475 125 q 662 149 603 125 q 767 221 721 174 q 838 335 813 268 q 864 489 864 403 q 838 647 864 579 q 766 758 811 714 q 660 825 721 803 q 532 847 600 847 q 383 824 453 847 q 253 743 314 801 q 206 726 232 726 q 158 743 181 725 q 133 792 135 763 q 156 844 131 822 q 325 953 235 921 q 532 986 415 986 q 717 947 631 986 q 870 840 804 908 q 974 681 936 771 q 1011 486 1011 590 q 974 292 1011 382 q 872 133 938 201 q 719 25 806 64 q 535 -14 633 -14 z "},"T":{"ha":860,"x_min":43,"x_max":815,"o":"m 429 0 q 376 20 396 0 q 356 71 356 40 l 356 903 l 504 903 l 504 71 q 483 20 504 40 q 429 0 461 0 m 114 839 q 64 858 85 839 q 43 907 43 876 q 64 954 43 936 q 114 972 85 972 l 746 972 q 795 953 775 972 q 815 906 815 935 q 795 857 815 875 q 746 839 775 839 l 114 839 z "},"Ŧ":{"ha":860,"x_min":43,"x_max":815,"o":"m 322 415 q 272 433 292 415 q 251 481 251 450 q 272 525 251 507 q 322 543 292 543 l 558 543 q 609 525 589 543 q 629 479 629 507 q 609 433 629 450 q 558 415 589 415 l 322 415 m 429 0 q 376 20 396 0 q 356 71 356 40 l 356 903 l 504 903 l 504 71 q 483 20 504 40 q 429 0 461 0 m 114 839 q 64 858 85 839 q 43 907 43 876 q 64 954 43 936 q 114 972 85 972 l 746 972 q 795 953 775 972 q 815 906 815 935 q 795 857 815 875 q 746 839 775 839 l 114 839 z "},"Ť":{"ha":860,"x_min":43,"x_max":815,"o":"m 429 0 q 376 20 396 0 q 356 71 356 40 l 356 903 l 504 903 l 504 71 q 483 20 504 40 q 429 0 461 0 m 114 839 q 64 858 85 839 q 43 907 43 876 q 64 954 43 936 q 114 972 85 972 l 746 972 q 795 953 775 972 q 815 906 815 935 q 795 857 815 875 q 746 839 775 839 l 114 839 m 408 1132 l 528 1215 q 561 1233 547 1228 q 588 1239 575 1239 q 614 1230 604 1239 q 624 1210 624 1221 q 620 1194 624 1201 q 606 1174 617 1186 l 513 1069 q 481 1043 497 1051 q 440 1035 464 1035 l 421 1035 q 381 1043 397 1035 q 349 1069 364 1051 l 254 1174 q 241 1193 244 1186 q 238 1208 238 1200 q 248 1229 238 1219 q 274 1239 258 1239 q 333 1215 297 1239 l 453 1133 l 408 1132 z "},"Ţ":{"ha":860,"x_min":43,"x_max":815,"o":"m 429 0 q 376 20 396 0 q 356 71 356 40 l 356 903 l 504 903 l 504 71 q 483 20 504 40 q 429 0 461 0 m 114 839 q 64 858 85 839 q 43 907 43 876 q 64 954 43 936 q 114 972 85 972 l 746 972 q 795 953 775 972 q 815 906 815 935 q 795 857 815 875 q 746 839 775 839 l 114 839 m 349 -206 q 317 -199 336 -206 q 283 -178 299 -192 q 268 -149 268 -165 q 283 -112 268 -131 l 396 35 l 479 35 l 399 -168 q 349 -206 383 -206 z "},"Ṱ":{"ha":860,"x_min":43,"x_max":815,"o":"m 429 0 q 376 20 396 0 q 356 71 356 40 l 356 903 l 504 903 l 504 71 q 483 20 504 40 q 429 0 461 0 m 114 839 q 64 858 85 839 q 43 907 43 876 q 64 954 43 936 q 114 972 85 972 l 746 972 q 795 953 775 972 q 815 906 815 935 q 795 857 815 875 q 746 839 775 839 l 114 839 m 451 -156 l 340 -249 q 315 -270 325 -262 q 283 -278 304 -278 q 258 -269 268 -278 q 247 -247 247 -260 q 250 -230 247 -237 q 263 -211 253 -222 l 342 -117 q 413 -82 368 -82 l 454 -82 q 492 -89 478 -82 q 518 -117 506 -96 l 593 -211 q 604 -230 601 -222 q 607 -247 607 -237 q 597 -268 607 -258 q 572 -278 588 -278 q 540 -269 550 -278 q 514 -249 531 -261 l 394 -147 l 451 -156 z "},"Ț":{"ha":860,"x_min":43,"x_max":815,"o":"m 429 0 q 376 20 396 0 q 356 71 356 40 l 356 903 l 504 903 l 504 71 q 483 20 504 40 q 429 0 461 0 m 114 839 q 64 858 85 839 q 43 907 43 876 q 64 954 43 936 q 114 972 85 972 l 746 972 q 795 953 775 972 q 815 906 815 935 q 795 857 815 875 q 746 839 775 839 l 114 839 m 535 -146 q 517 -203 535 -175 q 471 -250 500 -232 q 406 -268 442 -268 q 359 -255 374 -268 q 344 -229 344 -242 q 353 -206 344 -212 q 371 -199 361 -199 q 389 -202 378 -199 q 413 -206 400 -206 q 435 -194 426 -204 q 444 -164 444 -183 q 431 -147 444 -147 q 417 -153 421 -147 q 394 -158 413 -158 q 363 -145 375 -160 q 350 -108 350 -131 q 374 -62 350 -78 q 436 -47 397 -47 q 507 -73 479 -47 q 535 -146 535 -99 z "},"Ṭ":{"ha":860,"x_min":43,"x_max":815,"o":"m 429 0 q 376 20 396 0 q 356 71 356 40 l 356 903 l 504 903 l 504 71 q 483 20 504 40 q 429 0 461 0 m 114 839 q 64 858 85 839 q 43 907 43 876 q 64 954 43 936 q 114 972 85 972 l 746 972 q 795 953 775 972 q 815 906 815 935 q 795 857 815 875 q 746 839 775 839 l 114 839 m 428 -200 q 369 -185 388 -200 q 351 -136 351 -171 l 351 -114 q 371 -63 351 -78 q 428 -49 390 -49 q 489 -63 471 -49 q 507 -114 507 -78 l 507 -136 q 488 -186 507 -172 q 428 -200 469 -200 z "},"Ṯ":{"ha":860,"x_min":43,"x_max":815,"o":"m 429 0 q 376 20 396 0 q 356 71 356 40 l 356 903 l 504 903 l 504 71 q 483 20 504 40 q 429 0 461 0 m 114 839 q 64 858 85 839 q 43 907 43 876 q 64 954 43 936 q 114 972 85 972 l 746 972 q 795 953 775 972 q 815 906 815 935 q 795 857 815 875 q 746 839 775 839 l 114 839 m 282 -199 q 222 -146 222 -199 q 282 -93 222 -93 l 603 -93 q 663 -146 663 -93 q 603 -199 663 -199 l 282 -199 z "},"U":{"ha":983,"x_min":113,"x_max":869,"o":"m 803 974 q 851 953 833 974 q 869 903 869 933 l 869 376 q 821 178 869 265 q 688 41 772 90 q 492 -8 603 -8 q 297 41 382 -8 q 162 178 211 90 q 113 376 113 265 l 113 903 q 133 953 113 933 q 188 974 154 974 q 235 953 214 974 q 257 903 257 933 l 257 376 q 290 248 257 303 q 376 162 322 193 q 492 131 431 131 q 614 162 558 131 q 703 248 669 193 q 738 376 738 303 l 738 903 q 755 953 738 933 q 803 974 772 974 z "},"Ú":{"ha":983,"x_min":113,"x_max":869,"o":"m 803 974 q 851 953 833 974 q 869 903 869 933 l 869 376 q 821 178 869 265 q 688 41 772 90 q 492 -8 603 -8 q 297 41 382 -8 q 162 178 211 90 q 113 376 113 265 l 113 903 q 133 953 113 933 q 188 974 154 974 q 235 953 214 974 q 257 903 257 933 l 257 376 q 290 248 257 303 q 376 162 322 193 q 492 131 431 131 q 614 162 558 131 q 703 248 669 193 q 738 376 738 303 l 738 903 q 755 953 738 933 q 803 974 772 974 m 494 1029 q 459 1041 472 1029 q 446 1071 446 1053 q 451 1088 446 1079 q 464 1104 456 1096 l 585 1206 q 613 1224 597 1217 q 643 1232 628 1232 q 686 1216 665 1232 q 707 1172 707 1200 q 696 1137 707 1154 q 664 1108 685 1119 l 525 1038 q 510 1031 518 1032 q 494 1029 501 1029 z "},"Ŭ":{"ha":983,"x_min":113,"x_max":869,"o":"m 803 974 q 851 953 833 974 q 869 903 869 933 l 869 376 q 821 178 869 265 q 688 41 772 90 q 492 -8 603 -8 q 297 41 382 -8 q 162 178 211 90 q 113 376 113 265 l 113 903 q 133 953 113 933 q 188 974 154 974 q 235 953 214 974 q 257 903 257 933 l 257 376 q 290 248 257 303 q 376 162 322 193 q 492 131 431 131 q 614 162 558 131 q 703 248 669 193 q 738 376 738 303 l 738 903 q 755 953 738 933 q 803 974 772 974 m 492 1061 q 361 1096 417 1061 q 282 1193 306 1131 q 283 1241 271 1224 q 318 1258 294 1258 q 357 1247 343 1258 q 388 1215 371 1236 q 428 1176 403 1190 q 492 1163 454 1163 q 596 1215 565 1163 q 627 1247 613 1236 q 665 1258 642 1258 q 702 1242 690 1258 q 703 1196 714 1225 q 624 1096 679 1131 q 492 1061 568 1061 z "},"Ǔ":{"ha":983,"x_min":113,"x_max":869,"o":"m 803 974 q 851 953 833 974 q 869 903 869 933 l 869 376 q 821 178 869 265 q 688 41 772 90 q 492 -8 603 -8 q 297 41 382 -8 q 162 178 211 90 q 113 376 113 265 l 113 903 q 133 953 113 933 q 188 974 154 974 q 235 953 214 974 q 257 903 257 933 l 257 376 q 290 248 257 303 q 376 162 322 193 q 492 131 431 131 q 614 162 558 131 q 703 248 669 193 q 738 376 738 303 l 738 903 q 755 953 738 933 q 803 974 772 974 m 471 1132 l 590 1215 q 624 1233 610 1228 q 650 1239 638 1239 q 676 1230 667 1239 q 686 1210 686 1221 q 683 1194 686 1201 q 668 1174 679 1186 l 575 1069 q 543 1043 560 1051 q 503 1035 526 1035 l 483 1035 q 443 1043 460 1035 q 411 1069 426 1051 l 317 1174 q 303 1193 307 1186 q 300 1208 300 1200 q 310 1229 300 1219 q 336 1239 321 1239 q 396 1215 360 1239 l 515 1133 l 471 1132 z "},"Û":{"ha":983,"x_min":113,"x_max":869,"o":"m 803 974 q 851 953 833 974 q 869 903 869 933 l 869 376 q 821 178 869 265 q 688 41 772 90 q 492 -8 603 -8 q 297 41 382 -8 q 162 178 211 90 q 113 376 113 265 l 113 903 q 133 953 113 933 q 188 974 154 974 q 235 953 214 974 q 257 903 257 933 l 257 376 q 290 248 257 303 q 376 162 322 193 q 492 131 431 131 q 614 162 558 131 q 703 248 669 193 q 738 376 738 303 l 738 903 q 755 953 738 933 q 803 974 772 974 m 513 1142 l 394 1064 q 360 1045 375 1053 q 335 1038 346 1038 q 308 1047 319 1038 q 297 1068 297 1057 q 301 1085 297 1078 q 315 1103 306 1092 l 410 1208 q 441 1234 425 1225 q 481 1243 457 1243 l 501 1243 q 541 1234 525 1243 q 574 1208 557 1225 l 667 1104 q 681 1085 678 1092 q 685 1068 685 1078 q 674 1047 685 1057 q 649 1038 664 1038 q 622 1045 636 1038 q 589 1064 608 1053 l 469 1140 l 513 1142 z "},"Ȕ":{"ha":983,"x_min":113,"x_max":869,"o":"m 803 974 q 851 953 833 974 q 869 903 869 933 l 869 376 q 821 178 869 265 q 688 41 772 90 q 492 -8 603 -8 q 297 41 382 -8 q 162 178 211 90 q 113 376 113 265 l 113 903 q 133 953 113 933 q 188 974 154 974 q 235 953 214 974 q 257 903 257 933 l 257 376 q 290 248 257 303 q 376 162 322 193 q 492 131 431 131 q 614 162 558 131 q 703 248 669 193 q 738 376 738 303 l 738 903 q 755 953 738 933 q 803 974 772 974 m 376 1046 q 362 1049 369 1046 q 346 1054 354 1051 l 208 1126 q 164 1190 164 1150 q 185 1233 164 1217 q 228 1249 206 1249 q 260 1241 244 1249 q 286 1224 275 1233 l 407 1121 q 421 1105 417 1113 q 425 1088 425 1097 q 412 1058 425 1069 q 376 1046 399 1046 m 646 1056 q 630 1058 638 1056 q 614 1064 622 1060 l 476 1135 q 433 1199 433 1158 q 453 1242 433 1226 q 496 1258 474 1258 q 528 1251 513 1258 q 554 1232 543 1243 l 675 1131 q 689 1114 685 1122 q 693 1097 693 1106 q 681 1067 693 1079 q 646 1056 668 1056 z "},"Ü":{"ha":983,"x_min":113,"x_max":869,"o":"m 803 974 q 851 953 833 974 q 869 903 869 933 l 869 376 q 821 178 869 265 q 688 41 772 90 q 492 -8 603 -8 q 297 41 382 -8 q 162 178 211 90 q 113 376 113 265 l 113 903 q 133 953 113 933 q 188 974 154 974 q 235 953 214 974 q 257 903 257 933 l 257 376 q 290 248 257 303 q 376 162 322 193 q 492 131 431 131 q 614 162 558 131 q 703 248 669 193 q 738 376 738 303 l 738 903 q 755 953 738 933 q 803 974 772 974 m 624 1063 q 567 1078 586 1063 q 549 1128 549 1093 l 549 1149 q 568 1199 549 1185 q 624 1214 588 1214 q 683 1199 664 1214 q 701 1149 701 1183 l 701 1128 q 682 1077 701 1092 q 624 1063 663 1063 m 360 1063 q 303 1078 322 1063 q 285 1128 285 1093 l 285 1149 q 304 1199 285 1185 q 361 1214 324 1214 q 419 1199 400 1214 q 438 1149 438 1183 l 438 1128 q 418 1077 438 1092 q 360 1063 399 1063 z "},"Ụ":{"ha":983,"x_min":113,"x_max":869,"o":"m 803 974 q 851 953 833 974 q 869 903 869 933 l 869 376 q 821 178 869 265 q 688 41 772 90 q 492 -8 603 -8 q 297 41 382 -8 q 162 178 211 90 q 113 376 113 265 l 113 903 q 133 953 113 933 q 188 974 154 974 q 235 953 214 974 q 257 903 257 933 l 257 376 q 290 248 257 303 q 376 162 322 193 q 492 131 431 131 q 614 162 558 131 q 703 248 669 193 q 738 376 738 303 l 738 903 q 755 953 738 933 q 803 974 772 974 m 490 -200 q 432 -185 450 -200 q 414 -136 414 -171 l 414 -114 q 433 -63 414 -78 q 490 -49 453 -49 q 551 -63 533 -49 q 569 -114 569 -78 l 569 -136 q 551 -186 569 -172 q 490 -200 532 -200 z "},"Ù":{"ha":983,"x_min":113,"x_max":869,"o":"m 803 974 q 851 953 833 974 q 869 903 869 933 l 869 376 q 821 178 869 265 q 688 41 772 90 q 492 -8 603 -8 q 297 41 382 -8 q 162 178 211 90 q 113 376 113 265 l 113 903 q 133 953 113 933 q 188 974 154 974 q 235 953 214 974 q 257 903 257 933 l 257 376 q 290 248 257 303 q 376 162 322 193 q 492 131 431 131 q 614 162 558 131 q 703 248 669 193 q 738 376 738 303 l 738 903 q 755 953 738 933 q 803 974 772 974 m 490 1033 q 476 1035 483 1033 q 460 1042 468 1038 l 322 1113 q 278 1176 278 1136 q 299 1220 278 1204 q 342 1236 319 1236 q 374 1228 358 1236 q 400 1210 389 1221 l 521 1108 q 535 1092 531 1100 q 539 1075 539 1083 q 526 1045 539 1057 q 490 1033 513 1033 z "},"Ủ":{"ha":983,"x_min":113,"x_max":869,"o":"m 803 974 q 851 953 833 974 q 869 903 869 933 l 869 376 q 821 178 869 265 q 688 41 772 90 q 492 -8 603 -8 q 297 41 382 -8 q 162 178 211 90 q 113 376 113 265 l 113 903 q 133 953 113 933 q 188 974 154 974 q 235 953 214 974 q 257 903 257 933 l 257 376 q 290 248 257 303 q 376 162 322 193 q 492 131 431 131 q 614 162 558 131 q 703 248 669 193 q 738 376 738 303 l 738 903 q 755 953 738 933 q 803 974 772 974 m 367 1278 q 414 1307 389 1296 q 475 1318 439 1318 q 557 1300 528 1318 q 597 1255 586 1282 q 608 1204 608 1228 q 600 1163 608 1181 q 575 1126 592 1146 q 555 1101 563 1113 q 547 1078 547 1090 q 533 1057 546 1064 q 499 1050 519 1050 q 476 1057 488 1050 q 464 1079 464 1064 q 469 1106 464 1092 q 486 1133 475 1119 q 510 1165 499 1150 q 521 1194 521 1181 q 506 1223 521 1213 q 472 1233 492 1233 q 440 1226 454 1233 q 413 1208 425 1218 q 389 1201 403 1201 q 358 1215 375 1200 q 349 1249 344 1232 q 367 1278 354 1267 z "},"Ư":{"ha":983,"x_min":113,"x_max":1029,"o":"m 803 974 q 851 953 833 974 q 869 903 869 933 l 869 376 q 821 178 869 265 q 688 41 772 90 q 492 -8 603 -8 q 297 41 382 -8 q 162 178 211 90 q 113 376 113 265 l 113 903 q 133 953 113 933 q 188 974 154 974 q 235 953 214 974 q 257 903 257 933 l 257 376 q 290 248 257 303 q 376 162 322 193 q 492 131 431 131 q 614 162 558 131 q 703 248 669 193 q 738 376 738 303 l 738 903 q 755 953 738 933 q 803 974 772 974 m 790 856 l 790 972 q 881 994 849 972 q 913 1065 913 1017 q 928 1110 913 1089 q 972 1131 943 1131 q 1017 1108 1006 1131 q 1029 1065 1029 1086 q 1003 959 1029 1007 q 926 883 978 911 q 790 856 874 856 z "},"Ứ":{"ha":983,"x_min":113,"x_max":1029,"o":"m 803 974 q 851 953 833 974 q 869 903 869 933 l 869 376 q 821 178 869 265 q 688 41 772 90 q 492 -8 603 -8 q 297 41 382 -8 q 162 178 211 90 q 113 376 113 265 l 113 903 q 133 953 113 933 q 188 974 154 974 q 235 953 214 974 q 257 903 257 933 l 257 376 q 290 248 257 303 q 376 162 322 193 q 492 131 431 131 q 614 162 558 131 q 703 248 669 193 q 738 376 738 303 l 738 903 q 755 953 738 933 q 803 974 772 974 m 790 856 l 790 972 q 881 994 849 972 q 913 1065 913 1017 q 928 1110 913 1089 q 972 1131 943 1131 q 1017 1108 1006 1131 q 1029 1065 1029 1086 q 1003 959 1029 1007 q 926 883 978 911 q 790 856 874 856 m 503 1029 q 467 1041 481 1029 q 454 1071 454 1053 q 459 1088 454 1079 q 472 1104 464 1096 l 593 1206 q 621 1224 606 1217 q 651 1232 636 1232 q 694 1216 674 1232 q 715 1172 715 1200 q 704 1137 715 1154 q 672 1108 693 1119 l 533 1038 q 518 1031 526 1032 q 503 1029 510 1029 z "},"Ự":{"ha":983,"x_min":113,"x_max":1029,"o":"m 803 974 q 851 953 833 974 q 869 903 869 933 l 869 376 q 821 178 869 265 q 688 41 772 90 q 492 -8 603 -8 q 297 41 382 -8 q 162 178 211 90 q 113 376 113 265 l 113 903 q 133 953 113 933 q 188 974 154 974 q 235 953 214 974 q 257 903 257 933 l 257 376 q 290 248 257 303 q 376 162 322 193 q 492 131 431 131 q 614 162 558 131 q 703 248 669 193 q 738 376 738 303 l 738 903 q 755 953 738 933 q 803 974 772 974 m 790 856 l 790 972 q 881 994 849 972 q 913 1065 913 1017 q 928 1110 913 1089 q 972 1131 943 1131 q 1017 1108 1006 1131 q 1029 1065 1029 1086 q 1003 959 1029 1007 q 926 883 978 911 q 790 856 874 856 m 499 -200 q 440 -185 458 -200 q 422 -136 422 -171 l 422 -114 q 442 -63 422 -78 q 499 -49 461 -49 q 560 -63 542 -49 q 578 -114 578 -78 l 578 -136 q 559 -186 578 -172 q 499 -200 540 -200 z "},"Ừ":{"ha":983,"x_min":113,"x_max":1029,"o":"m 803 974 q 851 953 833 974 q 869 903 869 933 l 869 376 q 821 178 869 265 q 688 41 772 90 q 492 -8 603 -8 q 297 41 382 -8 q 162 178 211 90 q 113 376 113 265 l 113 903 q 133 953 113 933 q 188 974 154 974 q 235 953 214 974 q 257 903 257 933 l 257 376 q 290 248 257 303 q 376 162 322 193 q 492 131 431 131 q 614 162 558 131 q 703 248 669 193 q 738 376 738 303 l 738 903 q 755 953 738 933 q 803 974 772 974 m 790 856 l 790 972 q 881 994 849 972 q 913 1065 913 1017 q 928 1110 913 1089 q 972 1131 943 1131 q 1017 1108 1006 1131 q 1029 1065 1029 1086 q 1003 959 1029 1007 q 926 883 978 911 q 790 856 874 856 m 499 1033 q 484 1035 492 1033 q 468 1042 476 1038 l 331 1113 q 286 1176 286 1136 q 307 1220 286 1204 q 350 1236 328 1236 q 382 1228 367 1236 q 408 1210 397 1221 l 529 1108 q 543 1092 539 1100 q 547 1075 547 1083 q 534 1045 547 1057 q 499 1033 521 1033 z "},"Ử":{"ha":983,"x_min":113,"x_max":1029,"o":"m 803 974 q 851 953 833 974 q 869 903 869 933 l 869 376 q 821 178 869 265 q 688 41 772 90 q 492 -8 603 -8 q 297 41 382 -8 q 162 178 211 90 q 113 376 113 265 l 113 903 q 133 953 113 933 q 188 974 154 974 q 235 953 214 974 q 257 903 257 933 l 257 376 q 290 248 257 303 q 376 162 322 193 q 492 131 431 131 q 614 162 558 131 q 703 248 669 193 q 738 376 738 303 l 738 903 q 755 953 738 933 q 803 974 772 974 m 790 856 l 790 972 q 881 994 849 972 q 913 1065 913 1017 q 928 1110 913 1089 q 972 1131 943 1131 q 1017 1108 1006 1131 q 1029 1065 1029 1086 q 1003 959 1029 1007 q 926 883 978 911 q 790 856 874 856 m 375 1278 q 422 1307 397 1296 q 483 1318 447 1318 q 565 1300 536 1318 q 606 1255 594 1282 q 617 1204 617 1228 q 608 1163 617 1181 q 583 1126 600 1146 q 563 1101 571 1113 q 556 1078 556 1090 q 541 1057 554 1064 q 507 1050 528 1050 q 484 1057 496 1050 q 472 1079 472 1064 q 478 1106 472 1092 q 494 1133 483 1119 q 518 1165 507 1150 q 529 1194 529 1181 q 515 1223 529 1213 q 481 1233 500 1233 q 448 1226 463 1233 q 421 1208 433 1218 q 397 1201 411 1201 q 367 1215 383 1200 q 358 1249 353 1232 q 375 1278 363 1267 z "},"Ữ":{"ha":983,"x_min":113,"x_max":1029,"o":"m 803 974 q 851 953 833 974 q 869 903 869 933 l 869 376 q 821 178 869 265 q 688 41 772 90 q 492 -8 603 -8 q 297 41 382 -8 q 162 178 211 90 q 113 376 113 265 l 113 903 q 133 953 113 933 q 188 974 154 974 q 235 953 214 974 q 257 903 257 933 l 257 376 q 290 248 257 303 q 376 162 322 193 q 492 131 431 131 q 614 162 558 131 q 703 248 669 193 q 738 376 738 303 l 738 903 q 755 953 738 933 q 803 974 772 974 m 790 856 l 790 972 q 881 994 849 972 q 913 1065 913 1017 q 928 1110 913 1089 q 972 1131 943 1131 q 1017 1108 1006 1131 q 1029 1065 1029 1086 q 1003 959 1029 1007 q 926 883 978 911 q 790 856 874 856 m 315 1039 q 271 1062 289 1039 q 254 1125 253 1085 q 294 1203 257 1169 q 397 1238 332 1238 q 478 1216 440 1238 q 550 1174 517 1194 q 608 1153 583 1153 q 635 1163 625 1153 q 642 1190 644 1174 q 649 1232 635 1217 q 685 1247 664 1247 q 731 1224 713 1247 q 747 1164 749 1201 q 731 1111 746 1138 q 690 1066 717 1085 q 621 1047 663 1047 q 534 1069 576 1047 q 456 1111 492 1090 q 394 1132 419 1132 q 368 1122 379 1132 q 358 1094 357 1113 q 351 1054 365 1069 q 315 1039 336 1039 z "},"Ű":{"ha":983,"x_min":113,"x_max":869,"o":"m 803 974 q 851 953 833 974 q 869 903 869 933 l 869 376 q 821 178 869 265 q 688 41 772 90 q 492 -8 603 -8 q 297 41 382 -8 q 162 178 211 90 q 113 376 113 265 l 113 903 q 133 953 113 933 q 188 974 154 974 q 235 953 214 974 q 257 903 257 933 l 257 376 q 290 248 257 303 q 376 162 322 193 q 492 131 431 131 q 614 162 558 131 q 703 248 669 193 q 738 376 738 303 l 738 903 q 755 953 738 933 q 803 974 772 974 m 361 1068 q 328 1099 328 1068 q 343 1139 328 1117 l 407 1238 q 431 1265 417 1254 q 465 1276 444 1276 q 513 1259 493 1276 q 533 1217 533 1242 q 528 1195 533 1206 q 513 1175 522 1185 l 435 1099 q 401 1076 418 1083 q 361 1068 385 1068 m 603 1068 q 569 1097 569 1068 q 585 1139 569 1115 l 650 1239 q 673 1263 660 1254 q 708 1272 686 1272 q 752 1260 729 1272 q 775 1219 775 1247 q 769 1196 775 1207 q 754 1175 764 1185 l 676 1099 q 643 1076 660 1083 q 603 1068 626 1068 z "},"Ȗ":{"ha":983,"x_min":113,"x_max":869,"o":"m 803 974 q 851 953 833 974 q 869 903 869 933 l 869 376 q 821 178 869 265 q 688 41 772 90 q 492 -8 603 -8 q 297 41 382 -8 q 162 178 211 90 q 113 376 113 265 l 113 903 q 133 953 113 933 q 188 974 154 974 q 235 953 214 974 q 257 903 257 933 l 257 376 q 290 248 257 303 q 376 162 322 193 q 492 131 431 131 q 614 162 558 131 q 703 248 669 193 q 738 376 738 303 l 738 903 q 755 953 738 933 q 803 974 772 974 m 492 1260 q 585 1244 543 1260 q 656 1198 626 1228 q 697 1128 685 1168 q 697 1083 710 1100 q 661 1065 685 1065 q 622 1077 636 1065 q 592 1110 607 1089 q 553 1146 578 1133 q 492 1158 528 1158 q 429 1146 454 1158 q 392 1110 404 1133 q 363 1077 378 1089 q 321 1065 347 1065 q 286 1082 299 1065 q 283 1126 274 1099 q 326 1198 297 1168 q 398 1244 356 1228 q 492 1260 440 1260 z "},"Ū":{"ha":983,"x_min":113,"x_max":869,"o":"m 803 974 q 851 953 833 974 q 869 903 869 933 l 869 376 q 821 178 869 265 q 688 41 772 90 q 492 -8 603 -8 q 297 41 382 -8 q 162 178 211 90 q 113 376 113 265 l 113 903 q 133 953 113 933 q 188 974 154 974 q 235 953 214 974 q 257 903 257 933 l 257 376 q 290 248 257 303 q 376 162 322 193 q 492 131 431 131 q 614 162 558 131 q 703 248 669 193 q 738 376 738 303 l 738 903 q 755 953 738 933 q 803 974 772 974 m 324 1058 q 264 1113 264 1058 q 324 1165 264 1165 l 665 1165 q 725 1113 725 1165 q 665 1058 725 1058 l 324 1058 z "},"Ṻ":{"ha":983,"x_min":113,"x_max":869,"o":"m 803 974 q 851 953 833 974 q 869 903 869 933 l 869 376 q 821 178 869 265 q 688 41 772 90 q 492 -8 603 -8 q 297 41 382 -8 q 162 178 211 90 q 113 376 113 265 l 113 903 q 133 953 113 933 q 188 974 154 974 q 235 953 214 974 q 257 903 257 933 l 257 376 q 290 248 257 303 q 376 162 322 193 q 492 131 431 131 q 614 162 558 131 q 703 248 669 193 q 738 376 738 303 l 738 903 q 755 953 738 933 q 803 974 772 974 m 324 1058 q 264 1113 264 1058 q 324 1165 264 1165 l 665 1165 q 725 1113 725 1165 q 665 1058 725 1058 l 324 1058 m 624 1290 q 567 1306 586 1290 q 549 1356 549 1321 l 549 1376 q 568 1427 549 1413 q 624 1442 588 1442 q 683 1426 664 1442 q 701 1376 701 1411 l 701 1356 q 682 1305 701 1319 q 624 1290 663 1290 m 360 1290 q 303 1306 322 1290 q 285 1356 285 1321 l 285 1376 q 304 1427 285 1413 q 361 1442 324 1442 q 419 1426 400 1442 q 438 1376 438 1411 l 438 1356 q 418 1305 438 1319 q 360 1290 399 1290 z "},"Ų":{"ha":983,"x_min":113,"x_max":869,"o":"m 608 -279 q 499 -244 546 -279 q 453 -136 453 -208 q 474 -46 453 -86 q 527 24 494 -6 q 599 74 560 54 q 675 104 638 93 l 547 -7 q 519 -8 533 -7 q 492 -8 506 -8 q 297 41 382 -8 q 162 178 211 90 q 113 376 113 265 l 113 903 q 133 953 113 933 q 188 974 154 974 q 238 953 219 974 q 257 903 257 933 l 257 376 q 290 248 257 303 q 376 162 322 193 q 492 131 431 131 q 614 162 558 131 q 703 248 669 193 q 738 376 738 303 l 738 903 q 757 953 738 933 q 803 974 776 974 q 851 953 833 974 q 869 903 869 933 l 869 376 q 853 256 869 318 q 801 141 836 194 q 708 53 765 88 q 636 1 668 28 q 587 -53 604 -26 q 569 -111 569 -81 q 585 -155 569 -140 q 621 -169 601 -169 q 653 -154 642 -169 q 678 -134 664 -139 q 703 -129 693 -129 q 740 -144 725 -129 q 754 -185 754 -158 q 734 -228 754 -206 q 681 -265 714 -250 q 608 -279 647 -279 z "},"Ů":{"ha":983,"x_min":113,"x_max":869,"o":"m 803 974 q 851 953 833 974 q 869 903 869 933 l 869 376 q 821 178 869 265 q 688 41 772 90 q 492 -8 603 -8 q 297 41 382 -8 q 162 178 211 90 q 113 376 113 265 l 113 903 q 133 953 113 933 q 188 974 154 974 q 235 953 214 974 q 257 903 257 933 l 257 376 q 290 248 257 303 q 376 162 322 193 q 492 131 431 131 q 614 162 558 131 q 703 248 669 193 q 738 376 738 303 l 738 903 q 755 953 738 933 q 803 974 772 974 m 492 1039 q 417 1058 451 1039 q 360 1112 382 1078 q 339 1185 339 1146 q 360 1260 339 1226 q 417 1313 382 1293 q 492 1333 451 1333 q 567 1313 532 1333 q 623 1260 601 1293 q 644 1185 644 1226 q 623 1112 644 1146 q 567 1058 601 1078 q 492 1039 532 1039 m 492 1122 q 540 1140 521 1122 q 560 1185 560 1158 q 539 1232 560 1215 q 492 1249 518 1249 q 444 1231 464 1249 q 425 1185 425 1214 q 444 1140 425 1158 q 492 1122 464 1122 z "},"Ũ":{"ha":983,"x_min":113,"x_max":869,"o":"m 803 974 q 851 953 833 974 q 869 903 869 933 l 869 376 q 821 178 869 265 q 688 41 772 90 q 492 -8 603 -8 q 297 41 382 -8 q 162 178 211 90 q 113 376 113 265 l 113 903 q 133 953 113 933 q 188 974 154 974 q 235 953 214 974 q 257 903 257 933 l 257 376 q 290 248 257 303 q 376 162 322 193 q 492 131 431 131 q 614 162 558 131 q 703 248 669 193 q 738 376 738 303 l 738 903 q 755 953 738 933 q 803 974 772 974 m 307 1039 q 263 1062 281 1039 q 246 1125 244 1085 q 286 1203 249 1169 q 389 1238 324 1238 q 470 1216 432 1238 q 542 1174 508 1194 q 600 1153 575 1153 q 626 1163 617 1153 q 633 1190 636 1174 q 641 1232 626 1217 q 676 1247 656 1247 q 722 1224 704 1247 q 739 1164 740 1201 q 723 1111 738 1138 q 681 1066 708 1085 q 613 1047 654 1047 q 526 1069 568 1047 q 447 1111 483 1090 q 386 1132 411 1132 q 360 1122 371 1132 q 350 1094 349 1113 q 342 1054 357 1069 q 307 1039 328 1039 z "},"Ṹ":{"ha":983,"x_min":113,"x_max":869,"o":"m 803 974 q 851 953 833 974 q 869 903 869 933 l 869 376 q 821 178 869 265 q 688 41 772 90 q 492 -8 603 -8 q 297 41 382 -8 q 162 178 211 90 q 113 376 113 265 l 113 903 q 133 953 113 933 q 188 974 154 974 q 235 953 214 974 q 257 903 257 933 l 257 376 q 290 248 257 303 q 376 162 322 193 q 492 131 431 131 q 614 162 558 131 q 703 248 669 193 q 738 376 738 303 l 738 903 q 755 953 738 933 q 803 974 772 974 m 307 1039 q 263 1062 281 1039 q 246 1125 244 1085 q 286 1203 249 1169 q 389 1238 324 1238 q 470 1216 432 1238 q 542 1174 508 1194 q 600 1153 575 1153 q 626 1163 617 1153 q 633 1190 636 1174 q 641 1232 626 1217 q 676 1247 656 1247 q 722 1224 704 1247 q 739 1164 740 1201 q 723 1111 738 1138 q 681 1066 708 1085 q 613 1047 654 1047 q 526 1069 568 1047 q 447 1111 483 1090 q 386 1132 411 1132 q 360 1122 371 1132 q 350 1094 349 1113 q 342 1054 357 1069 q 307 1039 328 1039 m 494 1319 q 459 1331 472 1319 q 446 1361 446 1343 q 451 1378 446 1369 q 464 1394 456 1386 l 585 1496 q 613 1515 597 1507 q 643 1522 628 1522 q 686 1506 665 1522 q 707 1463 707 1490 q 696 1427 707 1444 q 664 1399 685 1410 l 525 1328 q 510 1321 518 1322 q 494 1319 501 1319 z "},"V":{"ha":936,"x_min":44,"x_max":892,"o":"m 821 975 q 871 956 850 975 q 892 908 892 936 q 885 876 892 893 l 533 46 q 503 11 522 22 q 465 0 485 0 q 428 13 446 1 q 401 44 411 24 l 50 876 q 46 891 47 883 q 44 907 44 899 q 68 957 44 939 q 114 975 92 975 q 179 929 158 975 l 497 175 l 457 175 l 757 931 q 821 975 776 975 z "},"W":{"ha":1321,"x_min":29,"x_max":1292,"o":"m 1217 976 q 1268 956 1244 976 q 1292 901 1292 936 q 1288 878 1292 892 l 1003 44 q 978 13 996 24 q 940 0 960 1 q 901 11 921 0 q 872 44 882 22 l 653 558 l 665 553 l 449 44 q 419 11 438 22 q 379 0 400 0 q 343 13 361 1 q 318 44 325 24 l 33 878 q 29 901 29 892 q 54 956 29 936 q 106 976 79 976 q 147 965 128 976 q 172 931 165 953 l 413 214 l 388 214 l 599 731 q 626 764 608 751 q 665 775 643 776 q 705 764 688 776 q 731 731 722 751 l 931 229 l 910 218 l 1149 931 q 1175 965 1156 953 q 1217 976 1194 976 z "},"Ẃ":{"ha":1321,"x_min":29,"x_max":1292,"o":"m 1217 976 q 1268 956 1244 976 q 1292 901 1292 936 q 1288 878 1292 892 l 1003 44 q 978 13 996 24 q 940 0 960 1 q 901 11 921 0 q 872 44 882 22 l 653 558 l 665 553 l 449 44 q 419 11 438 22 q 379 0 400 0 q 343 13 361 1 q 318 44 325 24 l 33 878 q 29 901 29 892 q 54 956 29 936 q 106 976 79 976 q 147 965 128 976 q 172 931 165 953 l 413 214 l 388 214 l 599 731 q 626 764 608 751 q 665 775 643 776 q 705 764 688 776 q 731 731 722 751 l 931 229 l 910 218 l 1149 931 q 1175 965 1156 953 q 1217 976 1194 976 m 664 1029 q 628 1041 642 1029 q 615 1071 615 1053 q 620 1088 615 1079 q 633 1104 625 1096 l 754 1206 q 782 1224 767 1217 q 813 1232 797 1232 q 856 1216 835 1232 q 876 1172 876 1200 q 865 1137 876 1154 q 833 1108 854 1119 l 694 1038 q 679 1031 688 1032 q 664 1029 671 1029 z "},"Ŵ":{"ha":1321,"x_min":29,"x_max":1292,"o":"m 1217 976 q 1268 956 1244 976 q 1292 901 1292 936 q 1288 878 1292 892 l 1003 44 q 978 13 996 24 q 940 0 960 1 q 901 11 921 0 q 872 44 882 22 l 653 558 l 665 553 l 449 44 q 419 11 438 22 q 379 0 400 0 q 343 13 361 1 q 318 44 325 24 l 33 878 q 29 901 29 892 q 54 956 29 936 q 106 976 79 976 q 147 965 128 976 q 172 931 165 953 l 413 214 l 388 214 l 599 731 q 626 764 608 751 q 665 775 643 776 q 705 764 688 776 q 731 731 722 751 l 931 229 l 910 218 l 1149 931 q 1175 965 1156 953 q 1217 976 1194 976 m 681 1142 l 563 1064 q 528 1045 543 1053 q 503 1038 514 1038 q 476 1047 488 1038 q 465 1068 465 1057 q 469 1085 465 1078 q 483 1103 474 1092 l 578 1208 q 609 1234 593 1225 q 649 1243 625 1243 l 669 1243 q 709 1234 693 1243 q 742 1208 725 1225 l 835 1104 q 849 1085 846 1092 q 853 1068 853 1078 q 842 1047 853 1057 q 817 1038 832 1038 q 790 1045 804 1038 q 757 1064 776 1053 l 638 1140 l 681 1142 z "},"Ẅ":{"ha":1321,"x_min":29,"x_max":1292,"o":"m 1217 976 q 1268 956 1244 976 q 1292 901 1292 936 q 1288 878 1292 892 l 1003 44 q 978 13 996 24 q 940 0 960 1 q 901 11 921 0 q 872 44 882 22 l 653 558 l 665 553 l 449 44 q 419 11 438 22 q 379 0 400 0 q 343 13 361 1 q 318 44 325 24 l 33 878 q 29 901 29 892 q 54 956 29 936 q 106 976 79 976 q 147 965 128 976 q 172 931 165 953 l 413 214 l 388 214 l 599 731 q 626 764 608 751 q 665 775 643 776 q 705 764 688 776 q 731 731 722 751 l 931 229 l 910 218 l 1149 931 q 1175 965 1156 953 q 1217 976 1194 976 m 792 1063 q 735 1078 754 1063 q 717 1128 717 1093 l 717 1149 q 736 1199 717 1185 q 792 1214 756 1214 q 851 1199 832 1214 q 869 1149 869 1183 l 869 1128 q 850 1077 869 1092 q 792 1063 831 1063 m 528 1063 q 472 1078 490 1063 q 453 1128 453 1093 l 453 1149 q 472 1199 453 1185 q 529 1214 492 1214 q 587 1199 568 1214 q 606 1149 606 1183 l 606 1128 q 586 1077 606 1092 q 528 1063 567 1063 z "},"Ẁ":{"ha":1321,"x_min":29,"x_max":1292,"o":"m 1217 976 q 1268 956 1244 976 q 1292 901 1292 936 q 1288 878 1292 892 l 1003 44 q 978 13 996 24 q 940 0 960 1 q 901 11 921 0 q 872 44 882 22 l 653 558 l 665 553 l 449 44 q 419 11 438 22 q 379 0 400 0 q 343 13 361 1 q 318 44 325 24 l 33 878 q 29 901 29 892 q 54 956 29 936 q 106 976 79 976 q 147 965 128 976 q 172 931 165 953 l 413 214 l 388 214 l 599 731 q 626 764 608 751 q 665 775 643 776 q 705 764 688 776 q 731 731 722 751 l 931 229 l 910 218 l 1149 931 q 1175 965 1156 953 q 1217 976 1194 976 m 658 1033 q 644 1035 651 1033 q 628 1042 636 1038 l 490 1113 q 446 1176 446 1136 q 467 1220 446 1204 q 510 1236 488 1236 q 542 1228 526 1236 q 568 1210 557 1221 l 689 1108 q 703 1092 699 1100 q 707 1075 707 1083 q 694 1045 707 1057 q 658 1033 681 1033 z "},"X":{"ha":888,"x_min":58,"x_max":829,"o":"m 764 975 q 810 955 792 975 q 829 911 829 935 q 814 868 829 889 l 522 478 l 443 588 l 708 942 q 764 975 732 975 m 131 976 q 188 947 164 976 l 814 106 q 829 64 829 88 q 806 13 829 31 q 758 -6 782 -6 q 703 24 725 -6 l 75 864 q 60 906 60 883 q 82 956 60 936 q 131 976 104 976 m 121 -6 q 76 13 94 -6 q 58 56 58 32 q 75 103 58 79 l 369 501 l 446 389 l 178 26 q 121 -6 156 -6 z "},"Y":{"ha":811,"x_min":25,"x_max":789,"o":"m 719 976 q 767 956 746 976 q 789 906 789 936 q 785 884 789 894 q 775 863 782 874 l 457 413 l 479 494 l 479 71 q 458 20 479 40 q 411 0 438 0 q 362 20 382 0 q 342 71 342 40 l 342 483 l 351 443 l 44 853 q 29 881 33 868 q 25 907 25 894 q 49 957 25 938 q 99 976 74 976 q 156 944 132 976 l 433 564 l 400 568 l 661 943 q 719 976 685 976 z "},"Ý":{"ha":811,"x_min":25,"x_max":789,"o":"m 719 976 q 767 956 746 976 q 789 906 789 936 q 785 884 789 894 q 775 863 782 874 l 457 413 l 479 494 l 479 71 q 458 20 479 40 q 411 0 438 0 q 362 20 382 0 q 342 71 342 40 l 342 483 l 351 443 l 44 853 q 29 881 33 868 q 25 907 25 894 q 49 957 25 938 q 99 976 74 976 q 156 944 132 976 l 433 564 l 400 568 l 661 943 q 719 976 685 976 m 408 1029 q 373 1041 386 1029 q 360 1071 360 1053 q 365 1088 360 1079 q 378 1104 369 1096 l 499 1206 q 526 1224 511 1217 q 557 1232 542 1232 q 600 1216 579 1232 q 621 1172 621 1200 q 610 1137 621 1154 q 578 1108 599 1119 l 439 1038 q 424 1031 432 1032 q 408 1029 415 1029 z "},"Ŷ":{"ha":811,"x_min":25,"x_max":789,"o":"m 719 976 q 767 956 746 976 q 789 906 789 936 q 785 884 789 894 q 775 863 782 874 l 457 413 l 479 494 l 479 71 q 458 20 479 40 q 411 0 438 0 q 362 20 382 0 q 342 71 342 40 l 342 483 l 351 443 l 44 853 q 29 881 33 868 q 25 907 25 894 q 49 957 25 938 q 99 976 74 976 q 156 944 132 976 l 433 564 l 400 568 l 661 943 q 719 976 685 976 m 426 1142 l 308 1064 q 274 1045 289 1053 q 249 1038 260 1038 q 222 1047 233 1038 q 211 1068 211 1057 q 215 1085 211 1078 q 229 1103 219 1092 l 324 1208 q 355 1234 339 1225 q 394 1243 371 1243 l 415 1243 q 455 1234 439 1243 q 488 1208 471 1225 l 581 1104 q 595 1085 592 1092 q 599 1068 599 1078 q 588 1047 599 1057 q 563 1038 578 1038 q 536 1045 550 1038 q 503 1064 522 1053 l 383 1140 l 426 1142 z "},"Ÿ":{"ha":811,"x_min":25,"x_max":789,"o":"m 719 976 q 767 956 746 976 q 789 906 789 936 q 785 884 789 894 q 775 863 782 874 l 457 413 l 479 494 l 479 71 q 458 20 479 40 q 411 0 438 0 q 362 20 382 0 q 342 71 342 40 l 342 483 l 351 443 l 44 853 q 29 881 33 868 q 25 907 25 894 q 49 957 25 938 q 99 976 74 976 q 156 944 132 976 l 433 564 l 400 568 l 661 943 q 719 976 685 976 m 536 1063 q 480 1078 499 1063 q 461 1128 461 1093 l 461 1149 q 481 1199 461 1185 q 536 1214 500 1214 q 595 1199 576 1214 q 614 1149 614 1183 l 614 1128 q 594 1077 614 1092 q 536 1063 575 1063 m 272 1063 q 216 1078 235 1063 q 197 1128 197 1093 l 197 1149 q 217 1199 197 1185 q 274 1214 236 1214 q 331 1199 313 1214 q 350 1149 350 1183 l 350 1128 q 331 1077 350 1092 q 272 1063 311 1063 z "},"Ẏ":{"ha":811,"x_min":25,"x_max":789,"o":"m 719 976 q 767 956 746 976 q 789 906 789 936 q 785 884 789 894 q 775 863 782 874 l 457 413 l 479 494 l 479 71 q 458 20 479 40 q 411 0 438 0 q 362 20 382 0 q 342 71 342 40 l 342 483 l 351 443 l 44 853 q 29 881 33 868 q 25 907 25 894 q 49 957 25 938 q 99 976 74 976 q 156 944 132 976 l 433 564 l 400 568 l 661 943 q 719 976 685 976 m 404 1042 q 346 1057 364 1042 q 328 1107 328 1072 l 328 1129 q 347 1179 328 1165 q 406 1193 367 1193 q 465 1179 447 1193 q 483 1129 483 1165 l 483 1107 q 465 1056 483 1071 q 404 1042 446 1042 z "},"Ỵ":{"ha":811,"x_min":25,"x_max":789,"o":"m 719 976 q 767 956 746 976 q 789 906 789 936 q 785 884 789 894 q 775 863 782 874 l 457 413 l 479 494 l 479 71 q 458 20 479 40 q 411 0 438 0 q 362 20 382 0 q 342 71 342 40 l 342 483 l 351 443 l 44 853 q 29 881 33 868 q 25 907 25 894 q 49 957 25 938 q 99 976 74 976 q 156 944 132 976 l 433 564 l 400 568 l 661 943 q 719 976 685 976 m 410 -201 q 351 -187 369 -201 q 333 -137 333 -172 l 333 -115 q 353 -65 333 -79 q 410 -50 372 -50 q 471 -65 453 -50 q 489 -115 489 -79 l 489 -137 q 470 -187 489 -174 q 410 -201 451 -201 z "},"Ỳ":{"ha":811,"x_min":25,"x_max":789,"o":"m 719 976 q 767 956 746 976 q 789 906 789 936 q 785 884 789 894 q 775 863 782 874 l 457 413 l 479 494 l 479 71 q 458 20 479 40 q 411 0 438 0 q 362 20 382 0 q 342 71 342 40 l 342 483 l 351 443 l 44 853 q 29 881 33 868 q 25 907 25 894 q 49 957 25 938 q 99 976 74 976 q 156 944 132 976 l 433 564 l 400 568 l 661 943 q 719 976 685 976 m 403 1033 q 388 1035 396 1033 q 372 1042 381 1038 l 235 1113 q 190 1176 190 1136 q 211 1220 190 1204 q 254 1236 232 1236 q 286 1228 271 1236 q 313 1210 301 1221 l 433 1108 q 447 1092 443 1100 q 451 1075 451 1083 q 438 1045 451 1057 q 403 1033 425 1033 z "},"Ỷ":{"ha":811,"x_min":25,"x_max":789,"o":"m 719 976 q 767 956 746 976 q 789 906 789 936 q 785 884 789 894 q 775 863 782 874 l 457 413 l 479 494 l 479 71 q 458 20 479 40 q 411 0 438 0 q 362 20 382 0 q 342 71 342 40 l 342 483 l 351 443 l 44 853 q 29 881 33 868 q 25 907 25 894 q 49 957 25 938 q 99 976 74 976 q 156 944 132 976 l 433 564 l 400 568 l 661 943 q 719 976 685 976 m 281 1278 q 328 1307 303 1296 q 389 1318 353 1318 q 471 1300 442 1318 q 511 1255 500 1282 q 522 1204 522 1228 q 514 1163 522 1181 q 489 1126 506 1146 q 469 1101 476 1113 q 461 1078 461 1090 q 447 1057 460 1064 q 413 1050 433 1050 q 390 1057 401 1050 q 378 1079 378 1064 q 383 1106 378 1092 q 400 1133 389 1119 q 424 1165 413 1150 q 435 1194 435 1181 q 420 1223 435 1213 q 386 1233 406 1233 q 353 1226 368 1233 q 326 1208 339 1218 q 303 1201 317 1201 q 272 1215 289 1200 q 263 1249 258 1232 q 281 1278 268 1267 z "},"Ȳ":{"ha":811,"x_min":25,"x_max":789,"o":"m 719 976 q 767 956 746 976 q 789 906 789 936 q 785 884 789 894 q 775 863 782 874 l 457 413 l 479 494 l 479 71 q 458 20 479 40 q 411 0 438 0 q 362 20 382 0 q 342 71 342 40 l 342 483 l 351 443 l 44 853 q 29 881 33 868 q 25 907 25 894 q 49 957 25 938 q 99 976 74 976 q 156 944 132 976 l 433 564 l 400 568 l 661 943 q 719 976 685 976 m 236 1058 q 176 1113 176 1058 q 236 1165 176 1165 l 578 1165 q 638 1113 638 1165 q 578 1058 638 1058 l 236 1058 z "}}}
